<svg width="228" height="439" viewBox="0 0 228 350" fill="none" xmlns="http://www.w3.org/2000/svg">
<g filter="url(#filter0_d_5_102)">
<path fill-rule="evenodd" clip-rule="evenodd" d="M111.799 246.147C111.28 251.409 110.301 256.72 109.514 261.884C109.482 262.787 108.244 263.226 107.646 262.555C107.662 250.814 110.789 238.767 109.682 226.781C110.575 226.281 111.484 225.728 112.351 225.175C113.521 226.723 113.65 228.511 113.458 230.133C113.311 235.487 112.448 240.823 111.799 246.147ZM61.8361 174.875L60.5252 174.744C59.8802 163.973 61.6935 153.39 63.8112 142.981L65.1288 143.059C65.5937 149.058 68.649 154.74 67.2498 160.914C65.9121 165.789 63.0776 169.992 61.8361 174.875ZM211.369 120.627L210.601 120.791C212.031 118.073 210.698 117.178 209.08 114.93L208.904 115.339L208.281 113.973C208.158 113.627 208.032 113.332 207.69 113.203C207.357 111.504 206.364 109.948 205.043 109.103L204.789 109.388C204.266 108.929 203.634 108.754 203.033 108.541C204.323 106.585 205.153 104.049 206.024 101.952C206.732 99.7499 207.84 97.6129 208.048 95.3799C207.881 93.234 205.86 94.6279 204.874 95.6983C201.864 98.3481 199.271 102.545 197.328 107.641C193.992 106.77 192.078 107.689 191.151 112.265C190.298 115.373 189.426 118.561 189.311 121.784C188.863 121.629 188.068 121.049 187.639 121.504C180.224 129.647 171.468 135.921 163.001 142.787C156.602 138.063 153.272 128.716 149.753 121.699C143.613 109.656 137.474 92.0243 121.682 92.0864C119.589 91.8674 117.545 91.6163 115.57 91.0063C114.805 90.7977 113.859 90.5464 113.599 90.08C113.131 88.5779 113.043 86.9526 112.22 85.575C109.963 81.892 105.071 81.6025 101.239 82.4022C94.7314 83.6125 94.8952 82.906 94.4254 89.7751C94.2845 91.4058 93.0252 91.6393 91.6808 91.977C90.1544 92.46 88.5995 92.8547 87.0307 93.1727C87.1935 93.1268 87.3563 93.0813 87.5191 93.0351C62.051 93.4401 45.1411 123.09 41.7864 144.067C37.8901 165.528 42.9296 189.412 50.897 207.436C50.5549 214 51.8379 220.594 52.6502 227.064C53.1601 228.683 54.9253 228.84 55.43 226.965L56.0521 224.498L56.7181 226.954C57.1403 228.474 57.8189 228.655 58.4295 228.665C59.1869 228.665 59.6021 228.29 59.627 226.314L60.8816 226.011C61.365 226.936 61.845 227.753 62.6046 228.322C64.132 239.466 65.0907 251.053 68.7982 261.836C70.2765 265.838 72.5469 269.472 74.2142 273.398C66.3527 291.206 65.035 310.941 63.1474 330.009C63.2992 330.021 64.0794 330.089 64.246 330.104L80.6573 333.885C80.5421 333.934 79.398 336.247 78.2604 336.153C73.594 335.767 62.8471 332.142 62.7039 332.61C62.3074 332.577 60.6529 332.589 60.7451 332.969C60.9364 335.21 61.5623 336.808 62.7483 337.974C62.7645 338.334 62.7865 338.7 62.8142 339.04C60.4614 347.28 58.7374 356.063 57.6898 365.12C56.358 366.406 56.0247 370.637 58.011 371.765C63.4944 375.555 70.8602 377.354 77.7954 376.671C85.3009 375.958 94.2523 372.957 90.6605 364.365C90.614 364.099 90.2495 364.086 89.9621 364.144C89.3259 363.525 88.6361 363.056 87.89 362.793C86.4075 359.077 85.0741 355.181 83.911 351.29C83.3444 349.504 82.7585 347.656 82.8067 345.697C83.0872 340.886 83.5807 338.897 86.912 335.108C88.9743 336.103 92.9045 328.897 93.8052 327.384C95.6999 322.909 98.1146 318.84 100.138 314.45C100.45 313.709 101.543 313.693 101.97 314.336C102.162 314.606 102.21 314.941 102.102 315.254C100.34 320.356 97.9409 325.228 95.6267 329.988C96.4153 332.753 96.7266 337.37 98.6987 339.427C99.7715 346.59 92.4309 349.872 97.161 357.816C95.5601 357.926 95.4108 358.568 95.4388 360.519C95.4334 361.92 95.3971 363.39 95.6604 364.7C95.9795 366.309 97.4591 366.74 99.68 367.215C101.48 367.614 103.213 368.07 104.999 368.502C106.805 369.104 108.709 369.055 109.451 367.221C118.396 370.264 144.183 369.916 152.712 365.884C155.067 364.938 156.728 364.403 154.565 361.739C153.375 354.137 133.935 359.573 131.189 351.234C130.797 350.152 130.231 349.582 129.129 349.385C129.297 348.525 129.073 347.569 128.119 347.321C127.832 347.235 127.526 347.213 127.23 346.941C126.496 345.424 125.293 344.504 123.89 343.697C124.463 342.87 124 342.485 123.742 341.56C123.481 339.789 124.082 338.093 124.051 336.372C124.373 335.829 124.622 335.069 125.138 334.693C125.616 334.355 124.654 334.793 124.468 334.419C124.564 334.334 118.115 336.556 114.614 336.953C112.923 337.146 113.368 335.123 113.416 335.086C113.974 334.47 125.715 331.791 124.998 331.722C124.91 331.425 124.806 331.08 124.739 330.785C126.719 324.81 129.056 317.052 129.832 308.832C130.583 295.685 129.879 284.601 133.871 271.239C139.451 250.083 150.292 230.23 150.438 207.842C150.252 204.131 151.277 200.179 150.348 196.537L151.502 195.935C151.668 196.127 151.968 196.122 152.028 195.86C152.786 194.627 151.937 193.148 151.763 191.798C152.159 191.372 151.961 190.984 151.483 190.752C146.355 172.588 137.778 169.934 140.139 147.23C143.991 155.42 152.525 163.712 161.932 162.493C171.408 163.914 193.513 140.751 197.782 133.263C198.564 133.324 198.574 132.761 198.693 132.231C202.592 132.691 206.242 129.62 206.315 125.863C209.736 127.991 213.393 124.951 211.58 121.239C211.509 121.038 211.436 120.834 211.369 120.627Z" fill="#D08B5B"/>
<path fill-rule="evenodd" clip-rule="evenodd" d="M89.3074 363.544L90.2298 366.552C91.0575 369.251 90.0682 371.523 87.5371 372.948C79.672 377.133 69.2947 376.835 60.8239 372.53C60.1065 372.159 59.4128 371.764 58.7445 371.344L58.5448 371.218L58.3777 371.111L58.2936 371.056C57.9479 370.827 57.7259 370.62 57.5741 370.327L57.5529 370.285L57.5423 370.263L57.5345 370.24C57.4972 370.13 57.4632 370.02 57.4323 369.908L57.4086 369.819L57.3858 369.73C57.2311 369.11 57.1812 368.549 57.1459 367.453L57.1298 366.932L57.0874 365.65L57.85 366.68C58.1618 367.102 58.5862 367.462 59.2825 367.932L59.5885 368.135L60.1845 368.528L60.2016 368.539C61.7056 369.548 63.3855 370.395 65.2386 371.099C71.947 373.597 79.5872 373.286 85.5319 370.098L85.7074 370.002L86.1757 369.721L86.3213 369.632C87.2242 369.077 87.7618 368.662 88.1791 368.146L88.2111 368.106L88.2425 368.066L88.3683 367.902L88.574 367.91C89.1277 367.931 89.469 367.432 89.4503 366.727L89.4489 366.687L89.3074 363.544ZM96.9577 357.328L97.5344 357.696C103.95 361.791 109.802 364.372 115.77 365.423C119.177 365.99 122.778 366.147 126.9 365.972L127.38 365.95L127.776 365.931C130.249 365.804 132.529 365.597 136.726 365.151L138.299 364.983L140.262 364.726L141.098 364.615C144.806 364.116 147.165 363.733 149.618 363.199L149.882 363.141L149.89 363.136C149.957 363.088 150.029 363.043 150.135 362.983L150.226 362.931C150.474 362.793 150.567 362.723 150.615 362.637L150.621 362.625L150.739 362.383L151.104 362.408L151.11 362.405C151.185 362.364 151.262 362.323 151.339 362.283L151.457 362.223L151.576 362.165L151.626 362.141L151.767 362.115L151.919 362.085C152.204 362.029 152.477 361.962 152.881 361.854L153.204 361.766L153.322 361.733L153.438 361.773C154.38 362.093 154.629 362.987 154.082 363.675L154.058 363.704L154.041 363.724L154.039 363.743C154.006 363.968 153.85 364.135 153.616 364.285L153.581 364.306L153.531 364.336L153.489 364.36L153.474 364.381C153.439 364.425 153.4 364.466 153.356 364.504L153.322 364.532L153.286 364.558L153.27 364.569L152.949 364.777L152.843 364.844C152.605 364.992 152.426 365.085 152.233 365.152L152.19 365.167L152.187 365.169C151.4 365.936 150.188 366.352 148.368 366.7L148.177 366.735L148.082 366.753L147.794 366.804C138.387 368.492 128.733 368.955 119.144 368.188C117.653 368.067 116.171 367.919 114.699 367.741L114.209 367.681L113.626 367.607L112.991 367.53L112.824 367.509L112.66 367.487C111.203 367.286 110.349 367 109.583 366.319L109.541 366.281L109.485 366.228C109.172 365.931 108.574 366.136 108.566 366.523L108.566 366.545L108.567 366.57C108.608 367.149 108.253 367.515 107.682 367.619C107.296 367.69 106.803 367.652 106.207 367.532C105.976 367.486 105.735 367.428 105.48 367.36L105.299 367.311L105.052 367.239C105.016 367.228 104.979 367.217 104.943 367.207L104.4 367.043L103.731 366.859C103.476 366.788 103.195 366.709 102.839 366.608L100.934 366.069L100.473 365.941C100.069 365.829 99.7281 365.738 99.3689 365.644L99.1964 365.599L98.7788 365.518L98.6297 365.488L98.4952 365.458C97.0814 365.143 96.8414 364.754 96.812 362.975L96.8099 362.817L96.7345 362.136L96.6889 361.743C96.6367 361.306 96.5877 360.936 96.534 360.583L96.5024 360.38L96.4916 360.313L96.4494 360.061C96.4462 360.043 96.3831 359.754 96.3588 359.63C96.3249 359.457 96.2986 359.297 96.2807 359.144C96.2391 358.789 96.2441 358.5 96.3207 358.268C96.4149 357.983 96.6222 357.801 96.8913 357.768L96.9226 357.765L96.9341 357.764L96.9577 357.328Z" fill="white"/>
<path fill-rule="evenodd" clip-rule="evenodd" d="M118.891 91.0598L124.082 91.6282L124.392 91.6633C126.505 91.9063 127.98 92.1734 129.401 92.6296C131.192 93.2049 132.712 94.0518 134.018 95.2723C140.533 101.313 147.599 113.194 155.274 130.947L155.49 131.448L155.548 131.555L155.632 131.706C156.517 133.292 158.043 135.521 159.747 137.767L159.913 137.986L160.159 138.305L160.314 138.507C161.012 139.407 161.678 140.228 162.226 140.867L162.346 141.006L162.507 141.189L162.61 141.306C162.712 141.419 162.805 141.522 162.891 141.613L162.933 141.657L163.015 141.742L163.027 141.737L163.164 141.847L163.185 141.669L163.682 141.431C167.861 139.426 171.937 136.788 176.128 133.462L176.331 133.301C179.809 130.525 183.214 127.42 187.454 123.255L188.647 122.081L189.224 123.421C191.408 128.488 194.36 131.755 198.147 132.344L198.262 132.361L200.517 132.677L198.683 134.186L198.474 134.358C196.372 136.101 194.627 137.718 191.409 140.85L190.753 141.49L189.31 142.9C188.077 144.103 187.257 144.895 186.458 145.649L186.262 145.833L185.643 146.412L185.261 146.754C181.643 149.981 179.009 152.193 176.298 154.194L176 154.413L175.801 154.558C172.227 157.155 168.787 159.153 165.256 160.595L165.055 160.677L164.951 160.714L164.849 160.75C164.346 160.922 163.884 161.029 163.092 161.173L163.012 161.188L162.344 161.306C162.188 161.334 162.058 161.359 161.937 161.383L161.857 161.399L161.68 161.437L161.457 161.438C157.708 161.45 154.268 160.282 150.898 158.054L150.725 157.939C148.336 156.336 146.2 154.406 143.273 151.362L142.953 151.028L142.633 150.692L140.996 148.957L140.971 149.091C140.142 153.444 139.635 158.504 139.885 160.954L139.893 161.028L139.904 161.119L139.92 161.298C140.161 163.93 140.843 166.575 141.948 169.379C142.819 171.588 143.9 173.793 145.427 176.571L145.511 176.723L145.763 177.178L145.775 177.199C148.285 181.98 150.147 187.052 151.29 192.254L151.343 192.494L151.39 192.715L151.339 192.934C150.963 194.536 149.838 195.794 148.09 196.94L148.01 196.992L147.85 197.094C145.614 198.479 143.192 199.34 139.454 200.277C127.049 203.47 115.208 204.541 103.995 203.183C98.3979 202.454 92.6205 201.353 86.2592 199.849L85.9297 199.771L84.9918 199.546C80.601 198.485 76.4537 197.38 70.3027 195.654L69.073 195.309L66.9246 194.702L66.605 194.605L65.7314 194.346L65.4154 194.25L65.2984 194.215L65.0938 194.151L64.88 194.082C64.1457 193.843 63.553 193.614 62.9999 193.343L62.7543 193.22L62.6289 193.082C62.6215 193.074 62.6094 193.064 62.5928 193.053L62.5795 193.044L62.1315 192.777L62.0569 191.729C62.0268 191.316 61.9956 190.906 61.9585 190.434L61.9224 189.979L61.5842 185.82C61.5562 185.467 61.5306 185.139 61.5068 184.826L61.4525 184.096L61.4073 183.462L61.4195 183.222C61.7103 177.784 63.1714 172.306 65.6569 166.967L65.7493 166.769L65.8242 166.626C67.8003 162.818 68.5665 159.656 68.4213 156.337L68.4136 156.175C68.2833 153.6 67.7364 151.294 66.2061 146.36L66.1091 146.049L65.9541 145.553L65.9461 145.526C65.4265 143.69 65.0929 142.008 64.9653 140.41L64.9531 140.248L64.8978 140.443C62.086 150.437 60.6175 160.538 60.6291 170.387L60.6299 170.685L60.6324 171.083L60.6424 171.616C60.7016 174.489 60.8517 177.281 61.1498 181.488L61.1722 181.802L61.2811 183.305L61.2485 183.765L61.2356 183.957L61.2234 184.152L61.2126 184.34C61.1292 185.888 61.2086 186.918 61.5445 187.866L61.6181 188.067L61.6342 188.412C61.6554 188.831 61.683 189.228 61.7292 189.782L61.7437 189.953L61.8926 191.632L61.9211 191.969C62.0448 193.468 62.0872 194.524 62.0432 195.6L62.0399 195.678L62.0299 195.88L61.9986 196.104C61.6337 198.612 60.7919 200.349 59.0522 201.979L59.0009 202.027L58.9134 202.115C57.1564 203.882 55.216 205.28 53.0933 206.272L52.9604 206.333L52.8297 206.392L51.8307 206.84L51.4768 205.803C46.1142 190.086 43.0554 176.948 42.2894 164.369C41.3879 149.564 43.7887 136.011 50.0442 123.302L50.2349 122.917L50.4371 122.495C57.2857 108.349 68.2051 97.8094 81.3241 94.095L81.7223 93.9846L82.1301 93.8762L85.3608 93.0361L83.1217 95.5157C81.8275 96.9488 82.3673 99.3317 84.1679 102.007L84.2229 102.089L84.3182 102.227C87.489 106.936 92.6566 110.219 99.1142 111.93C104.891 113.461 111.426 113.632 117.299 112.512L117.477 112.478L117.673 112.443C123.337 111.412 127.492 107.861 128.009 102.973L128.023 102.825L128.047 102.53C128.303 98.9824 126.312 95.3675 123.142 93.4997L123.046 93.4437L118.891 91.0598Z" fill="#78E185"/>
<path fill-rule="evenodd" clip-rule="evenodd" d="M184.307 145.881L183.94 146.209C177.933 151.568 171.561 156.917 164.041 159.945C163.022 160.318 161.961 160.418 160.914 160.64C152.168 160.727 146.228 153.933 140.689 148.074C141.153 138.049 140.77 127.697 136.821 118.329L136.726 118.088C135.76 115.637 134.579 113.208 132.69 111.335C132.644 111.289 132.58 111.357 132.62 111.406C134.231 113.386 135.17 115.805 135.844 118.246L135.878 118.37C138.176 126.635 138.576 135.307 138.274 143.843L138.264 144.102C138.058 149.87 137.561 155.668 138.254 161.424C138.759 167.365 141.38 172.737 144.234 177.868C146.723 182.607 148.582 187.672 149.71 192.908C149.347 194.453 148.034 195.586 146.668 196.446C144.201 197.974 141.342 198.811 138.549 199.511C127.123 202.452 115.223 203.818 103.467 202.394C90.9257 200.761 78.6856 197.382 66.5397 193.942C65.2906 193.558 63.9044 193.21 62.7113 192.612C62.6314 192.524 62.5368 192.449 62.4343 192.388C62.228 189.466 61.9547 186.569 61.7511 183.654C62.0261 178.008 63.5904 172.517 65.9871 167.418C70.367 159.058 68.9203 153.974 66.2503 145.456C65.6369 143.288 65.1987 141.02 65.2533 138.786C65.533 137.379 65.8033 135.97 66.0523 134.557C66.1562 134.287 66.2694 134.018 66.3959 133.752C66.4199 133.701 66.3519 133.661 66.32 133.708C66.2641 133.788 66.2108 133.869 66.1575 133.952C66.3426 132.874 66.5144 131.795 66.6649 130.713C66.6849 130.57 66.5011 130.514 66.4478 130.653C61.6486 143.597 58.8626 157.471 58.9772 171.302C59.0453 175.375 59.3249 179.446 59.6232 183.509L59.5954 183.901C59.4897 185.438 59.4341 187.005 59.9707 188.47C60.085 190.983 60.5103 193.466 60.3782 195.987C60.0685 198.288 59.376 199.916 57.6522 201.508C55.9451 203.246 53.9912 204.684 51.7652 205.682C42.511 178.56 37.0891 150.386 50.4716 123.567C56.6828 110.51 67.3749 98.7787 81.7244 95.0474C79.6793 97.3121 81.2735 100.7 82.7438 102.859L82.8336 102.99C89.8755 113.446 105.382 115.937 117.011 113.663C122.645 112.694 127.927 109.039 128.377 102.927C128.726 98.833 126.401 94.7951 122.885 92.7784L123.313 92.8252C126.735 93.2063 130.057 93.7562 132.683 96.2094C142.362 105.184 146.853 117.965 152.57 129.537L152.798 129.958C155.246 134.508 157.613 139.424 161.681 142.724L160.921 143.373C160.825 143.456 160.927 143.643 161.049 143.594C161.44 143.435 161.829 143.268 162.217 143.099C162.763 143.538 163.391 143.094 163.456 142.536C172.657 138.122 180.433 131.122 187.651 124.021C189.473 128.25 192.547 132.863 197.466 133.554C192.822 137.373 188.711 141.789 184.307 145.881ZM110.355 226.975C110.952 226.634 111.541 226.281 112.123 225.914C113.083 227.454 112.839 228.807 112.736 230.507C112.516 233.344 112.565 236.23 111.991 239.023C110.997 246.148 110.408 253.593 108.931 260.536C108.898 260.925 108.863 261.312 108.833 261.701C108.794 262.212 107.995 262.214 108.034 261.701C109.007 250.175 111.072 238.581 110.355 226.975ZM115.77 365.824C123.266 367.071 130.917 366.187 138.416 365.385L139.517 365.242C143.066 364.78 146.636 364.294 150.123 363.518C150.416 363.275 150.869 363.167 151.045 362.807L151.261 362.822C151.442 362.719 151.628 362.622 151.816 362.531C152.364 362.432 152.81 362.313 153.375 362.157C154.143 362.419 154.223 363.095 153.702 363.574C153.754 363.818 153.462 363.958 153.272 364.066C153.241 364.128 153.194 364.186 153.123 364.236C152.781 364.453 152.435 364.711 152.044 364.818C151.087 365.815 149.033 366.194 147.901 366.396L147.789 366.416C138.385 368.103 128.765 368.557 119.242 367.794C117.6 367.662 115.959 367.494 114.325 367.29L113.879 367.233C112.468 367.05 110.911 366.979 109.826 365.944C109.285 365.429 108.202 365.754 108.233 366.573L108.235 366.604C108.329 367.949 105.193 366.837 104.572 366.663L104.554 366.658C102.817 366.186 101.092 365.664 99.3499 365.214L98.9227 365.131C97.4096 364.83 97.292 364.678 97.2752 362.799L97.2189 362.288C97.1429 361.607 97.0613 360.928 96.9515 360.252L96.909 359.999C96.8597 359.715 96.3777 357.956 97.1806 358.19C97.2819 358.219 97.3804 358.138 97.3857 358.039C103.028 361.641 109.133 364.654 115.77 365.824ZM85.9697 370.357L86.4485 370.069C87.2505 369.583 88.0561 369.055 88.6249 368.316C89.5634 368.352 89.9495 367.466 89.914 366.675C90.7018 369.244 89.7247 371.3 87.4157 372.601C79.3719 376.88 69.0806 376.25 61.0733 372.181C60.305 371.783 59.5539 371.352 58.8255 370.887L58.6616 370.782C58.3886 370.606 58.124 370.418 57.9786 370.117C57.6283 369.087 57.633 368.072 57.5951 366.925C58.2018 367.745 59.2086 368.313 60.0453 368.878C61.6419 369.949 63.3717 370.798 65.1655 371.48C71.8075 373.954 79.6968 373.803 85.9697 370.357ZM61.642 159.411C62.2834 153.83 63.3827 148.325 64.4477 142.814C64.8806 148.737 67.9475 154.505 66.5837 160.496C65.2506 165.319 62.3938 169.597 61.1732 174.462C60.9359 169.438 61.0819 164.411 61.642 159.411ZM69.5466 207.841C68.8248 207.974 68.0831 207.971 67.3532 207.919C64.3955 207.56 63.9277 209.355 63.9378 211.866C63.8478 213.489 63.7487 215.112 63.6642 216.736L63.6154 217.71C63.5542 219.008 63.3916 220.459 63.5542 221.816C63.0183 223.048 62.7286 224.332 62.6433 225.679C62.397 225.612 62.1333 225.644 61.9442 225.774C60.859 223.834 60.5993 221.466 60.3756 219.283C60.2664 218.209 58.6924 218.159 58.6684 219.283C58.6378 220.81 58.6151 222.339 58.5885 223.866L58.5472 226.223L58.5473 226.258C58.554 226.594 58.7053 227.442 58.2937 227.409L58.2702 227.406C57.5043 227.349 57.469 224.616 57.3033 223.934L56.6643 219.363C56.5207 218.34 55.0541 218.674 54.9532 219.566L54.9505 219.595C54.7711 221.684 54.5892 223.773 54.4351 225.864C54.3865 226.226 54.38 226.88 53.9864 227.038C53.6387 226.725 53.5728 226.198 53.4988 225.76C52.8442 219.728 51.615 213.773 50.857 207.755C51.3484 207.684 51.7985 207.377 51.9423 206.905C55.8858 206.097 60.0243 203.871 62.0055 200.254C62.401 200.604 62.7099 201.061 63.0934 201.42C63.6993 201.989 64.3652 202.503 65.0017 203.035C66.7858 204.55 68.5766 205.98 70.3242 207.541C70.0686 207.625 69.8355 207.789 69.5466 207.841ZM112.452 84.3545C112.472 84.2758 112.581 84.2985 112.586 84.3732C112.696 85.894 113.059 87.4986 113.613 88.99C113.811 89.022 114.002 89.134 114.14 89.3516C114.327 89.6438 115.219 89.8475 115.684 89.985L115.75 90.0051C117.682 90.6032 119.698 90.8447 121.701 91.058C131.124 91.5805 134.553 94.5418 139.869 102.024C146.179 110.453 149.719 120.457 154.476 129.761C155.646 132.023 156.91 134.232 158.299 136.368L158.431 136.57C159.672 138.464 161.044 140.382 162.94 141.659C167.526 137.803 172.43 134.361 176.966 130.445L177.391 130.077C180.794 127.126 184.045 123.999 187.138 120.723C187.503 120.336 188.187 120.235 188.693 120.462C188.891 117.513 189.722 114.62 190.487 111.771C191.291 108.101 192.688 105.62 196.9 106.529C198.596 102.247 200.867 98.068 204.304 94.9418L204.525 94.7425C205.257 94.076 206.218 93.1203 207.246 93.2065C208.179 93.2839 208.659 94.1311 208.696 94.9927C208.739 96.0148 208.294 97.0555 207.976 98.0135L207.949 98.0954C207.539 99.3533 207.097 100.601 206.629 101.838C206.179 103.03 205.697 104.209 205.192 105.377C204.678 106.355 204.3 107.973 203.363 108.564C202.879 108.853 202.381 108.465 202.329 107.969C202.256 107.32 202.629 106.749 202.903 106.183C203.156 105.663 203.404 105.14 203.645 104.614C204.614 102.499 205.483 100.339 206.23 98.1355C206.452 97.3938 207.36 95.4658 207.045 94.7994C206.729 94.8019 206.08 95.4702 205.85 95.669C202.239 98.6686 199.892 102.813 197.207 106.595C198.892 107.078 200.721 107.305 202.12 108.439C204.999 110.958 202.687 115.945 198.829 115.016C199.906 117.311 200.832 121.019 198.923 123.092C198.349 123.631 197.235 123.459 197.06 122.6C196.874 121.688 197.097 120.906 197.302 120.022C197.674 118.221 197.899 116.377 197.646 114.544L197.566 114.497C196.912 114.099 196.501 113.652 196.521 112.829C196.436 112.234 197.068 111.432 197.703 111.919C197.91 112.076 198.161 112.088 198.378 112.247C198.747 112.598 199.204 112.874 199.726 112.87L199.777 112.869C200.448 112.863 200.943 112.458 201.148 111.828C201.71 110.101 199.765 109.521 198.5 109.189L198.173 109.088C194.72 108.029 193.468 108.012 192.6 112.08C191.661 115.116 190.832 118.241 189.243 121.015L189.441 121.489C191.039 125.304 193.044 129.696 197.34 130.866C197.492 129.592 198.867 129.546 199.862 129.578C201.146 129.508 202.436 128.855 203.343 127.916C204.135 127.115 204.534 126 205.411 125.286C205.014 124.382 205.91 123.384 206.846 123.905C207.478 124.254 207.858 124.753 208.62 124.854C209.295 124.945 209.917 124.709 210.43 124.275C211.768 123.142 211.132 121.475 211.459 119.991C211.028 120.739 210.311 121.313 209.544 121.709C204.422 124.646 204.474 118.887 207.304 119.833C210.379 119.132 210.327 118.018 209.178 115.402L209.158 115.341C208.971 114.791 208.553 113.821 208.941 113.229C208.962 113.2 209.001 113.19 209.029 113.217C209.38 113.564 209.519 114.145 209.816 114.554L210.17 114.977C211.244 116.276 212.369 117.818 211.671 119.552C211.745 119.536 211.827 119.568 211.852 119.659C212.182 120.863 212.839 122.046 212.703 123.335C212.419 126.159 209.366 127.709 206.837 126.532C206.351 130.163 202.78 132.776 199.201 132.614C199.088 133.111 198.721 133.549 198.152 133.594C192.885 142.053 172.183 163.814 162.03 162.905C161.059 163.346 159.824 163.125 158.796 162.992C150.911 161.961 144.321 156.179 140.645 149.327C139.294 171.773 146.93 171.5 152.039 190.096C152.55 190.417 152.848 191.119 152.452 191.713C152.671 192.838 153.12 193.991 152.947 195.145C152.862 195.474 152.69 195.775 152.534 196.076C152.214 196.691 151.368 196.617 150.972 196.139C151.644 198.574 151.357 201.13 151.185 203.613C151.08 205.071 151.088 206.509 151.087 207.968C150.886 230.184 140.062 250.214 134.497 271.29C132.923 277.198 131.714 283.219 131.239 289.321C130.734 295.813 131.085 302.342 130.478 308.826C129.774 316.336 127.774 323.635 125.414 330.774C125.555 331.352 125.848 332.01 125.667 332.509C122.296 333.078 119.042 334.114 115.768 335.076C115.639 335.113 115.559 335.193 115.519 335.288L114.771 335.537C114.285 335.699 114.493 336.472 114.983 336.309L115.801 336.036C118.599 335.108 121.43 334.222 124.34 333.805L124.429 333.769C125.011 333.536 125.695 333.364 126.002 334.007C126.158 334.332 126.034 334.66 125.812 334.918C125.624 335.136 125.386 335.27 125.221 335.517C125.038 335.842 124.882 336.184 124.7 336.513C124.702 338.144 124.166 339.758 124.374 341.385C124.53 342.06 125.076 342.707 124.73 343.43L124.887 343.531C125.806 344.122 126.683 344.771 127.286 345.684C127.418 345.884 127.518 346.296 127.669 346.438C127.826 346.585 128.119 346.602 128.312 346.671C129.29 346.969 129.905 347.854 129.82 348.882C132.11 349.542 131.322 351.873 133.685 353.496C136.111 355.258 139.396 355.451 142.262 355.909L147.145 356.689L147.429 356.724C150.52 357.106 154.551 357.826 155.173 361.445L155.223 361.503C155.97 362.397 156.688 364.094 155.766 365.065C155.016 365.731 153.993 366.045 153.085 366.433C151.826 367.345 150.012 367.769 148.631 368.026C136.692 370.242 124.393 370.499 112.373 368.78L112.172 368.751C111.332 368.625 110.465 368.454 109.698 368.093C108.626 369.903 106.56 369.675 104.822 369.161C103.457 368.823 102.092 368.489 100.727 368.156L100.599 368.122C98.4906 367.58 95.5008 367.415 94.9901 364.837C94.7265 363.51 94.7438 362.033 94.7571 360.684L94.7541 360.242C94.7523 359.105 94.8415 357.565 96.1247 357.325C94.3422 354.015 94.7306 349.945 96.3909 346.663L96.4789 346.502C97.7007 344.256 98.4639 342.381 98.0582 339.728C97.2446 338.96 96.8651 337.857 96.5641 336.772C95.9319 334.489 95.3796 332.182 94.9122 329.859L95.6374 328.366C97.7638 323.985 99.867 319.586 101.456 314.977C101.602 314.553 100.916 314.254 100.726 314.668C98.7165 319.039 96.2597 323.192 94.3893 327.628C93.1492 329.948 91.6603 332.129 89.991 334.16L89.9172 334.263C89.2692 335.154 88.7264 335.45 87.6621 335.817C87.4917 335.889 87.3186 335.89 87.1561 335.844C86.1405 337.224 84.9078 338.317 84.3743 339.964C83.7924 341.786 83.57 343.79 83.4554 345.695C83.3942 348.177 84.4256 350.52 85.0734 352.877C86.0639 356.052 87.1672 359.192 88.3875 362.287C89.0392 362.551 89.6307 362.957 90.1763 363.458C90.631 363.414 91.1102 363.621 91.2802 364.177L91.3508 364.409C91.9518 366.407 92.4616 368.715 91.6812 370.717C89.5242 375.567 82.5923 376.776 77.8506 377.357C70.8289 378.026 63.4632 376.344 57.6177 372.332C56.7921 371.752 56.2289 371.092 56.0917 370.063L56.0773 369.935C55.8886 368.215 55.8448 366.174 57.0358 364.841C58.054 356.117 59.7219 347.396 62.124 338.945C62.1054 338.706 62.0907 338.468 62.0787 338.227C60.7379 336.828 60.2131 334.857 60.0626 332.965C60.0452 332.17 60.8476 332.004 61.4699 331.907L61.6992 331.905C63.7269 331.89 65.8195 331.99 67.6289 332.749L67.5398 332.753C67.4482 332.757 67.3526 332.768 67.2832 332.816C68.1897 333.107 69.1785 333.236 70.0451 333.619C70.687 333.651 71.2467 333.956 71.8968 334.012L72.0002 334.018C72.1158 334.028 72.2037 333.994 72.267 333.937C74.0134 334.249 75.7497 334.669 77.4934 334.926C77.9963 335 78.2134 334.229 77.7058 334.154C75.3731 333.81 73.0512 333.18 70.7023 332.887C70.1829 332.685 69.681 332.426 69.1604 332.218C69.13 332.149 69.073 332.087 68.9805 332.043C68.4093 331.774 67.8161 331.553 67.2094 331.368C65.6539 330.885 64.02 330.681 62.4002 330.585L62.515 329.424C64.3787 310.444 65.7386 290.955 73.4709 273.279C71.828 269.473 69.5937 265.849 68.1563 261.934C67.5598 260.369 67.1975 258.774 66.7248 257.177C66.4175 256.412 66.1635 255.638 66.0404 254.817C64.1473 246.133 63.0771 237.299 61.9601 228.489C61.2082 227.866 60.7115 226.968 60.2757 226.142L60.2737 226.267C60.248 227.627 60.0564 229.194 58.3488 229.154C56.9706 229.12 56.3672 228.089 56.0584 226.949C55.4581 229.334 52.7907 229.464 52.0089 227.116C51.66 226.169 51.6747 225.088 51.5708 224.094C51.0135 218.64 49.8504 213.19 50.1846 207.697C49.833 207.577 49.5267 207.308 49.3774 206.858C42.7191 186.631 36.7936 164.985 41.116 143.641C45.4379 122.73 57.1428 99.3203 79.2622 93.3906C83.7402 92.2558 88.2892 91.8707 92.8795 91.5778C93.5419 90.2927 93.97 88.8308 94.0567 87.3759C94.0833 86.9557 94.0633 86.5396 94.062 86.1193C94.0607 85.7311 94.2258 85.2683 94.1485 84.9056C94.1299 84.8174 94.2498 84.788 94.2817 84.8694C94.3789 85.1242 94.5773 85.2523 94.7118 85.467C95.0463 86.0741 95.1349 86.7948 95.2232 87.4733C95.5551 90.1216 94.8002 92.8466 93.2026 94.973L93.1472 95.0461C92.6518 95.7105 91.709 96.9136 90.7342 96.3373C89.8848 95.8339 90.4288 94.8088 90.9355 94.2598L90.9739 94.219C91.6597 93.504 92.235 92.7397 92.7024 91.906C90.6256 92.461 88.565 93.0722 86.4943 93.6507L86.396 93.7049C84.7745 94.5905 82.365 95.5385 82.5778 97.7342C86.8897 110.784 105.966 114.137 117.756 111.021L117.944 110.97C120.2 110.346 122.458 109.344 123.993 107.516L124.057 107.44C126.782 104.204 126.573 98.8581 123.161 96.2012C121.134 94.5365 118.334 93.6521 115.805 93.076C116.54 94.3005 118.167 95.1653 118.463 96.6161C118.539 97.1137 118.264 97.5872 117.717 97.5979C116.327 97.6246 115.302 96.1359 114.572 95.1354C113.049 93.0425 112.185 90.5123 112 87.9348C111.909 86.6809 112.139 85.5511 112.452 84.3545ZM204.439 107.897C204.365 107.847 204.406 107.696 204.505 107.737C208.284 109.308 209.827 114.933 206.982 118.031C206.038 119.03 204.622 119.608 203.333 119.084C201.749 118.815 200.824 117.211 200.621 115.733C200.607 115.664 200.684 115.633 200.728 115.676L200.735 115.685C201.334 116.425 202.278 116.92 203.138 117.299C203.379 117.168 203.642 117.064 203.907 117.003C204.284 116.917 204.67 117.213 204.634 117.599C206.413 117.273 207.126 115.15 207.18 113.539L207.182 113.49C207.254 111.262 206.248 109.2 204.439 107.897Z" fill="black"/>
<path fill-rule="evenodd" clip-rule="evenodd" d="M127.619 56.5266C127.304 52.4256 127.793 48.1271 126.218 44.229C123.471 37.7614 115.77 35.605 109.799 33.1426C107.407 32.4332 99.3589 32.334 96.5582 31.395C90.2197 29.2698 88.7052 26.7376 83.6687 30.7841C82.8185 31.4753 82.2866 32.2266 81.8985 33.2531L81.9145 33.2575C81.8037 33.6854 81.9225 34.1124 82.1721 34.4386C79.9884 36.6793 79.0745 40.0387 80.195 43.0215C83.8515 50.7836 83.6796 54.9806 82.5014 63.3252C80.9629 71.1154 84.4786 73.9611 90.301 78.1998C90.0639 78.6613 90.0148 79.2745 90.3238 79.6816C97.0566 89.1791 109.751 93.7138 120.628 88.8932C125.043 86.9205 127.014 82.2006 128.139 77.9417C129.449 73.173 129.852 68.1481 128.785 63.2904C128.355 61.0438 127.795 58.8134 127.619 56.5266Z" fill="#D08B5B"/>
<path fill-rule="evenodd" clip-rule="evenodd" d="M79.3964 44.8928L83.3997 47.57L97.7297 32.4048L92.961 28.6371C92.961 28.6371 84.3094 35.0558 82.6083 36.7498C80.9072 38.4439 79.3964 44.8928 79.3964 44.8928Z" fill="#9FD8E5"/>
<path fill-rule="evenodd" clip-rule="evenodd" d="M88.7832 11.09C89.6004 10.9668 90.2176 11.4758 90.5112 12.1932L90.5266 12.2319C90.621 12.476 90.7259 12.7134 90.8389 12.9469C92.884 11.9397 95.8021 12.1985 97.0963 14.2381C98.0199 15.6948 97.4565 17.4236 97.1083 18.9683L96.8797 19.9861C97.3215 20.2683 97.6547 20.7737 97.6391 21.2971L97.6372 21.3373L97.5442 22.7567C97.8392 22.4565 98.1089 22.1297 98.3494 21.7815C98.5155 21.4761 98.6949 21.1759 98.8876 20.8851C100.021 19.1737 102.566 20.661 101.63 22.4939C101.451 22.8474 101.249 23.1822 101.032 23.505C100.788 23.9812 100.587 24.4708 100.433 24.9737C100.876 25.1671 101.216 25.5966 101.252 26.2449C101.335 27.7589 100.543 29.0222 99.2836 29.8159C98.9128 30.0493 98.5301 30.0947 98.1833 30.008C98.1222 30.0907 98.0611 30.1734 98.0026 30.2574C98.5049 30.6669 98.958 31.1338 99.3474 31.6514C100.519 31.4753 101.698 31.3926 102.877 31.3899C104.317 30.6816 106.042 30.6963 107.59 30.9617C108.587 31.1325 109.543 31.4646 110.524 31.7034C111.558 31.9542 112.608 31.9635 113.654 32.1343C114.972 32.349 116.128 32.96 116.855 33.9351C117.653 33.9591 118.493 34.2872 119.189 34.7328C120.811 35.7706 122.422 36.8231 124.04 37.8675C124.66 38.2685 124.892 38.9087 124.778 39.6227L124.771 39.6684L124.716 39.9645L124.844 40.1468C125.339 40.8483 125.877 41.5832 126.198 42.3576C126.79 43.2153 127.326 44.1144 127.8 45.0415C128.439 46.2874 128.967 47.608 129.324 48.9633C129.413 49.3061 129.502 49.6516 129.561 50.0011C129.645 50.4946 129.516 50.8775 129.445 51.351C129.358 51.9513 129.326 52.5596 129.233 53.1612C129.17 53.56 128.833 53.7561 128.479 53.7668C128.612 54.7819 128.708 55.8037 128.8 56.8175C128.928 58.2662 129.016 59.7188 129.092 61.1715C129.483 61.7411 130.281 62.192 130.858 62.348C131.657 62.5628 132.494 62.3294 133.248 62.0559C133.723 61.8838 134.112 62.4828 133.881 62.8829C133.154 64.1395 131.599 64.1342 130.422 63.5779C129.924 63.3432 129.487 63.003 129.162 62.5601C129.182 62.9817 129.203 63.4032 129.225 63.826L129.245 64.209C129.484 68.682 130.001 73.3088 129.164 77.7377C127.714 85.4092 121.39 91.2505 113.664 91.7041C109.61 91.9421 106.234 90.7401 104.555 90.0696C102.877 89.399 103.529 88.0318 104.695 88.4227C106.702 89.0959 110.39 90.0989 113.691 89.6658C121.47 88.645 128.066 84.742 127.388 67.9319C127.292 65.5481 126.996 63.1631 126.933 60.7793C126.871 58.4489 126.894 56.1172 126.792 53.7881L126.758 52.9935C126.718 52.0649 126.675 51.1321 126.606 50.2025C126.522 49.8423 126.453 49.4768 126.35 49.1233C126.073 48.1616 125.71 47.2265 125.26 46.3341C125.16 46.4101 125.048 46.4648 124.927 46.4861C124.009 46.6515 123.148 46.6049 122.288 46.2207C121.887 46.0433 121.533 45.8072 121.204 45.515C121.047 45.3776 120.942 45.2442 120.86 45.1055C120.444 45.1122 120.028 44.9868 119.767 44.6866C119.47 44.3446 119.421 43.9912 119.537 43.6641L119.55 43.6315L119.52 43.6208C119.17 44.5319 118.471 45.3336 117.704 45.8752C116.492 46.7342 114.976 46.9824 113.522 47.005C111.917 47.029 110.224 46.7809 108.64 46.5275C108.221 46.4608 107.805 46.3848 107.397 46.282C107.381 46.2981 107.366 46.3167 107.348 46.3327C105.989 47.6387 104.077 47.9748 102.352 47.2291C101.355 46.7983 100.519 46.1046 99.7806 45.3096C99.7699 45.7258 99.7487 46.142 99.7128 46.5542L99.6979 46.7178C99.6244 47.4855 99.4828 48.2999 98.9049 48.8539C97.9707 49.7516 96.6153 49.3915 95.5376 48.8072C95.539 48.8352 95.539 48.8646 95.539 48.8939C95.83 49.8864 96.1223 50.8801 96.4146 51.8739L96.4776 52.0856C96.6902 52.7913 96.9234 53.4978 96.9874 54.2363C97.1096 55.6476 96.1741 57.0416 94.6114 56.5681C93.7917 56.3206 93.1351 55.6287 92.505 55.0746L92.1079 54.7299C93.1351 58.1008 93.8474 61.5917 93.9138 65.1093C93.9178 65.3 93.7543 65.4441 93.5736 65.4508C93.151 65.4681 92.6966 65.3841 92.2714 65.2147C92.2474 65.2133 92.2235 65.212 92.1983 65.208C91.4727 65.1026 90.799 64.8398 90.205 64.4517C90.3419 64.8879 90.403 65.3561 90.3672 65.8456C90.3579 65.9643 90.1731 66.0057 90.1466 65.875C89.8037 64.1822 87.8304 62.903 86.1295 63.2271C84.3037 63.5753 82.9589 65.152 82.6294 66.9461C82.2759 68.8737 82.9523 71.1027 84.2054 72.59C84.7821 73.2757 85.5408 73.8479 86.4418 73.992C86.8537 74.0574 87.2816 74.0347 87.6816 73.9173C87.8517 73.8666 88.0111 73.7959 88.1733 73.7292C88.4098 73.6332 88.6862 73.6185 88.9094 73.5171C89.4157 73.289 89.9247 73.7572 89.6682 74.2788C89.4449 74.7337 89.2443 75.0405 88.8736 75.2753C89.1739 75.6434 89.4463 76.1557 89.5473 76.293C90.0629 76.992 90.5864 77.6523 91.1738 78.2913C91.7717 78.9396 92.4242 79.5319 93.1138 80.0801L93.4037 80.3101C94.068 80.8389 94.6465 81.329 95.1151 82.0877C95.4845 82.6866 95.0061 83.499 94.3138 83.4897C92.1478 83.459 90.5731 81.5488 89.4516 79.88C89.2921 79.6412 89.142 79.3891 89.0024 79.1303C88.952 79.2117 88.8961 79.2878 88.8337 79.3571L88.9573 79.6906C89.324 80.6724 87.744 81.314 87.2856 80.3976C86.9521 79.7333 86.5654 79.101 86.1348 78.5034C85.881 78.4674 85.6325 78.3126 85.4943 78.1125C85.1449 77.6043 84.7529 77.0907 84.422 76.5492C84.2386 76.3744 84.0499 76.2063 83.8572 76.0423C83.8014 76.0916 83.7443 76.141 83.6898 76.193C83.4479 76.7466 83.149 77.2522 82.7782 77.7284L82.6987 77.83C81.9885 78.7285 81.0633 79.6482 79.9186 79.868C79.5691 79.9347 79.2329 79.4985 79.5425 79.2197C80.3438 78.4967 81.2913 78.0045 82.0301 77.1975C82.3941 76.7999 82.7283 76.362 83.0157 75.9031L83.0812 75.7968C83.129 75.7181 83.1782 75.6394 83.2287 75.5594C82.8952 75.3313 82.5616 75.1018 82.2281 74.8724C81.3099 75.6599 80.1142 76.0201 79.0986 76.6724L78.9977 76.7386C78.0795 77.3549 77.1121 75.9916 77.8483 75.2432C78.6598 74.4214 79.3372 73.4414 80.0561 72.5279C79.7181 71.9028 79.5581 71.1636 79.4981 70.4166C79.4745 70.2052 79.456 69.9936 79.4375 69.7821C78.922 69.7901 78.4037 69.6127 77.9652 69.3072L77.7991 69.1885C77.2662 69.3592 76.7068 69.4419 76.1713 69.4273C74.9116 69.3899 74.396 67.9452 75.184 67.0315C75.9879 66.0977 77.3951 65.8936 78.51 66.3472C78.5459 66.3285 78.5831 66.3085 78.619 66.2885C78.5658 66.043 78.5777 65.8204 78.6381 65.6249L78.6206 65.5056C78.3754 65.128 78.2142 64.6968 78.1531 64.2413C78.1047 63.8805 78.1146 63.5228 78.1977 63.1665C78.2254 63.0479 78.2829 62.9251 78.3269 62.8014C78.2363 62.5717 78.183 62.3343 78.1665 62.0955C78.1411 62.0652 78.1159 62.0342 78.092 62.0005C77.5388 61.2209 77.6505 60.2814 78.177 59.6504C78.1794 59.6102 78.1831 59.5701 78.1886 59.5302C78.1577 59.4606 78.1294 59.3903 78.1037 59.3192C77.5893 58.7983 77.2116 58.1715 77.282 57.3947C77.3234 56.9377 77.5105 56.5263 77.7936 56.2188C77.7434 56.0697 77.7386 55.897 77.7995 55.7528C77.3476 54.5461 77.4047 53.0927 77.73 51.7432C77.6582 51.5378 77.621 51.315 77.629 51.0789C77.6662 50.0771 78.53 49.1567 79.5531 49.1687C79.6763 49.1698 79.7917 49.1859 79.9025 49.2095L79.904 49.1856C79.9432 48.885 80.0255 48.6071 80.1458 48.3578C80.0867 48.3363 80.0319 48.3055 79.984 48.2645C79.3283 48.6156 78.6345 48.884 77.9071 49.0669C77.3723 49.2014 76.8244 48.5911 77.1569 48.0871C77.3111 47.8533 77.4814 47.6433 77.6648 47.4515C77.404 47.453 77.1393 47.4707 76.8716 47.5053C76.3905 47.568 75.8537 47.2385 75.5414 46.7929C75.1534 47.1718 74.7641 47.5493 74.3747 47.9268C73.3887 48.8859 71.8991 48.1802 71.7436 46.9157C71.45 46.837 71.1762 46.7036 70.9357 46.5128C69.381 47.1905 67.708 47.5626 65.9978 47.6333C64.7699 47.684 64.0524 46.2487 64.6264 45.2349C65.0118 44.5546 65.4902 43.9436 66.0416 43.4127C65.1859 43.6755 64.3022 43.8649 63.3999 43.9863C62.9122 44.0517 62.2226 43.6462 62.0272 43.1966C61.2804 41.4679 61.3442 39.6657 62.204 37.9836C62.2372 37.9169 62.2744 37.8529 62.3103 37.7888C62.3993 37.5661 62.4963 37.346 62.6013 37.1299C61.5435 36.0227 61.4518 34.3766 62.0219 32.9987C61.7934 32.6265 61.7057 32.1783 61.8611 31.7728C62.3036 30.6056 62.9415 29.5277 63.7467 28.602C63.6697 28.4526 63.6019 28.2938 63.5448 28.1231C63.0916 26.7425 63.6165 25.0764 64.6756 24.1146C65.3413 23.509 66.1067 23.1462 66.924 22.9141C67.2681 22.3031 67.7106 21.7522 68.2262 21.288C68.2461 21.244 68.2661 21.2 68.2887 21.1559C69.0913 19.6379 70.553 18.8242 72.1197 18.6361C72.1808 18.0425 72.5795 17.4756 73.1588 17.2915C73.3183 16.7779 73.5561 16.287 73.883 15.8415C74.3973 15.1399 75.2517 14.809 76.057 15.2692C76.4982 15.5214 76.9207 15.8108 77.3167 16.131C77.4946 16.0472 77.6962 15.9931 77.9237 15.9758L77.9811 15.9722L79.2914 15.9055C79.8402 15.6614 80.3877 15.4053 80.9365 15.1559C81.266 14.8824 81.6341 14.6543 82.0354 14.4849C82.4899 14.2941 82.9549 14.1861 83.4214 14.1501C83.8001 14.026 84.1815 13.9166 84.5695 13.8313C85.4811 13.6312 86.4352 13.5191 87.3813 13.5285C87.4006 13.2826 87.4102 13.0339 87.4084 12.7822L87.4065 12.6561C87.3853 11.849 88.0271 11.2047 88.7832 11.09ZM87.865 75.6594C87.7347 75.6875 87.6032 75.7101 87.4716 75.7261C87.5115 75.8249 87.5514 75.9236 87.5899 76.0223C87.6962 76.0823 87.8038 76.1397 87.9115 76.193C87.8796 76.0116 87.861 75.8289 87.865 75.6594ZM81.0378 73.6229L80.9495 73.7862C80.9352 73.8129 80.9211 73.8393 80.9072 73.8653C81.0946 73.8506 81.2833 73.8546 81.4693 73.8759L81.4688 73.8561C81.4449 73.8479 81.4209 73.8405 81.3981 73.8293C81.2697 73.7674 81.1504 73.698 81.0378 73.6229ZM84.7276 66.1725C85.9032 66.2412 86.8993 66.4222 87.9685 66.9384L88.0603 66.9835C89.0051 67.4544 90.5678 68.3241 90.4362 69.5714C90.399 69.9262 90.1426 70.2997 89.7386 70.2717C88.6317 70.1956 87.9992 69.0751 87.2497 68.3761C86.4936 67.6718 85.5648 66.9475 84.6492 66.4633C84.5198 66.3951 84.5708 66.1793 84.7116 66.1724L84.7276 66.1725ZM79.3963 49.7396C79.1146 49.749 79.209 50.0238 79.3538 49.7943C79.3658 49.7756 79.3804 49.757 79.3963 49.7396ZM94.6029 31.395C91.9349 31.4654 89.2497 33.0468 87.251 34.6453C85.5123 36.0359 84.0108 37.69 82.6813 39.4728C82.3393 40.3607 82.0456 41.2671 81.7975 42.1802C81.6341 42.7831 81.5318 43.3927 81.3949 44.001L81.3524 44.1875C81.2449 44.3892 81.165 44.6062 81.1068 44.8305C81.3491 45.0743 81.6633 45.2489 82.0094 45.3317C82.1208 45.3584 82.2135 45.4162 82.2867 45.4928C82.5652 45.0261 82.8086 44.5336 82.9503 44.0115L82.9555 43.9874C83.4909 43.1071 84.0724 42.2542 84.6957 41.4305C86.4152 39.1561 88.3088 37.0832 90.5851 35.3584C92.3112 34.0511 94.2407 33.0267 96.2924 32.361C95.7902 31.9543 95.2199 31.6326 94.6029 31.395Z" fill="black"/>
<path fill-rule="evenodd" clip-rule="evenodd" d="M118.748 80.858C117.767 81.1426 116.714 81.1681 115.714 80.8741C114.807 80.6075 113.876 80.0208 113.208 79.2444C112.615 78.5546 112.231 77.7165 112.246 76.8218C112.248 76.7196 112.284 76.6343 112.341 76.5681C112.401 76.4968 112.485 76.4479 112.576 76.4266C112.669 76.4048 112.767 76.4125 112.851 76.4506C112.926 76.4851 112.991 76.5436 113.032 76.6292C113.134 76.7642 113.237 76.8972 113.339 77.0265C114.164 78.0467 114.963 78.8091 116.203 79.0826C116.876 79.231 117.548 79.1652 118.165 78.9388C118.825 78.6964 119.422 78.2703 119.889 77.7249C120.1 77.4785 120.35 77.3779 120.594 77.3762C120.87 77.3743 121.144 77.5029 121.349 77.7086C121.552 77.9108 121.687 78.1855 121.7 78.4729C121.71 78.7251 121.628 78.9886 121.41 79.2236C120.69 79.9979 119.757 80.5652 118.748 80.858ZM118.717 68.08C119.723 68.6922 121.255 70.12 120.173 71.6379C118.9 72.9763 117.067 71.4417 116.163 70.7477C115.326 70.2098 114.384 71.5932 115.162 72.2213C121.69 77.0628 124.339 68.2401 119.226 67.3601C118.663 67.2631 118.454 67.8905 118.717 68.08ZM109.311 65.3858C108.988 65.1787 108.607 65.1077 108.186 65.2997C107.857 65.4497 107.279 65.9497 106.877 66.607C106.602 67.0567 106.408 67.5843 106.448 68.1338C106.458 68.2614 106.41 68.3555 106.336 68.4251C106.278 68.4801 106.193 68.5204 106.093 68.5331C106.009 68.5438 105.914 68.5341 105.837 68.5101C105.691 68.4644 105.614 68.3693 105.585 68.2917C105.303 67.5431 105.425 66.7077 105.74 65.954C106.166 64.9369 106.938 64.0849 107.445 63.8102C108.311 63.34 109.334 63.3183 110.202 63.7974C110.94 64.2051 111.402 64.8633 111.862 65.5343C111.959 65.6769 112.056 65.8185 112.156 65.9576C112.357 66.2363 112.377 66.5128 112.299 66.7498C112.213 67.0124 111.994 67.234 111.719 67.35C111.465 67.4572 111.171 67.4723 110.91 67.3621C110.69 67.2691 110.488 67.0877 110.36 66.78C110.144 66.2617 109.786 65.6898 109.311 65.3858ZM125.725 66.5389C125.504 66.6544 125.331 66.6892 125.085 66.6155C124.95 66.5747 124.815 66.4964 124.71 66.3911C124.606 66.2868 124.531 66.1571 124.502 66.0132C124.43 65.6581 124.236 65.3256 123.96 65.1089C123.723 64.9237 123.425 64.8255 123.094 64.8809C122.737 64.9406 122.397 65.1699 122.163 65.4403C122.085 65.5307 122.024 65.6335 121.962 65.7355C121.846 65.9264 121.734 66.1038 121.575 66.2439C121.515 66.2973 121.424 66.3342 121.336 66.3342C121.3 66.3342 121.264 66.3284 121.229 66.3176C120.874 65.9604 120.806 65.6894 120.817 65.4206C120.829 65.1388 120.94 64.8534 121.119 64.5872C121.54 63.9627 122.338 63.4506 122.877 63.3346C123.615 63.1758 124.347 63.3664 124.935 63.7792C125.539 64.204 125.987 64.8634 126.127 65.6065C126.16 65.7855 126.146 65.9787 126.078 66.1462C126.011 66.3099 125.896 66.4501 125.725 66.5389ZM110.938 58.7271C110.495 59.1592 109.971 59.2261 109.441 59.2857C109.146 59.3191 108.911 59.346 108.68 59.3983C108.044 59.5421 107.415 59.7587 106.842 60.0707C106.242 60.3968 105.589 60.7901 105.119 61.2939C105.007 61.4138 104.901 61.5396 104.796 61.6657C104.7 61.7807 104.607 61.8914 104.509 61.9981C104.397 62.1207 104.291 62.2492 104.185 62.3773C104.119 62.4854 104.106 62.512 104.093 62.5397C104.073 62.5813 104.05 62.6279 104.024 62.6778C103.987 62.7462 103.945 62.8211 103.901 62.8889C103.827 63.013 103.788 63.0472 103.753 63.0625C103.697 63.0878 103.643 63.1003 103.591 63.0935C103.542 63.0872 103.496 63.0636 103.45 63.0251C103.223 62.8327 103.156 62.517 103.163 62.1818C103.173 61.6732 103.36 61.1101 103.533 60.7639C103.934 59.9596 104.491 59.1235 105.16 58.5231C105.924 57.8379 106.76 57.3191 107.72 56.9617C108.316 56.7395 109.007 56.5355 109.657 56.5612C110.124 56.5798 110.571 56.7191 110.94 57.0669C111.166 57.2804 111.275 57.5842 111.275 57.8877C111.275 58.1972 111.162 58.5086 110.938 58.7271ZM126.626 62.6842C126.598 62.7304 126.559 62.7623 126.515 62.7814C126.47 62.8015 126.419 62.8073 126.37 62.799C126.322 62.7909 126.276 62.7688 126.239 62.7352C126.204 62.7029 126.178 62.6602 126.166 62.6078C125.872 61.3144 125.301 60.3522 124.083 59.7317C123.483 59.4264 122.794 59.2325 122.142 59.0778C121.952 59.0329 121.752 59.0038 121.55 58.9743C120.918 58.8818 120.281 58.7759 119.869 58.264C119.621 57.9556 119.516 57.5612 119.575 57.2005C119.631 56.861 119.829 56.5496 120.189 56.363C121.086 55.8986 122.2 56.3543 123.105 56.7424C123.172 56.7712 123.238 56.7995 123.303 56.8267C124.188 57.2011 124.995 57.6952 125.659 58.4019C126.186 58.9626 126.674 59.7914 126.87 60.644C127.034 61.3533 126.995 62.0775 126.626 62.6842Z" fill="black"/>
</g>
<defs>
<filter id="filter0_d_5_102" x="0.887207" y="0" width="227.054" height="447" filterUnits="userSpaceOnUse" color-interpolation-filters="sRGB">
<feFlood flood-opacity="0" result="BackgroundImageFix"/>
<feColorMatrix in="SourceAlpha" type="matrix" values="0 0 0 0 0 0 0 0 0 0 0 0 0 0 0 0 0 0 127 0" result="hardAlpha"/>
<feOffset dy="4"/>
<feGaussianBlur stdDeviation="2"/>
<feComposite in2="hardAlpha" operator="out"/>
<feColorMatrix type="matrix" values="0 0 0 0 0 0 0 0 0 0 0 0 0 0 0 0 0 0 0.25 0"/>
<feBlend mode="normal" in2="BackgroundImageFix" result="effect1_dropShadow_5_102"/>
<feBlend mode="normal" in="SourceGraphic" in2="effect1_dropShadow_5_102" result="shape"/>
</filter>
</defs>
</svg>
