<svg width="219" height="404" viewBox="0 0 219 390" fill="none" xmlns="http://www.w3.org/2000/svg">
<g filter="url(#filter0_d_10_358)">
<path fill-rule="evenodd" clip-rule="evenodd" d="M51.7748 188.793C51.7956 190.203 51.9372 193.443 52.2917 194.809C48.3416 188.486 42.4225 181.577 41.5224 173.833C41.8029 173.757 43.0476 173.642 43.265 173.479C45.3087 174.427 44.922 171.51 45.2241 170.16C46.0398 167.303 47.7535 164.493 48.4981 161.617C50.4553 160.772 46.5248 160.414 45.9538 160.397C48.3279 157.758 49.4199 154.13 51.1102 151.051C53.594 145.818 55.8185 140.469 57.8048 135.037C58.239 138.441 58.3168 141.882 58.0523 145.304C57.2355 159.966 51.7194 174.063 51.7748 188.793ZM188.873 162.749C187.644 162.955 185.596 163.151 184.37 163.251C185.979 162.293 190.737 160.467 187.739 158.826C186.814 158.489 185.822 158.97 184.89 159.119C181.018 159.755 176.238 159.721 172.321 159.401C173.749 158.231 175.629 156.546 177.022 155.335C177.762 154.691 178.481 154.447 177.648 153.486C176.179 152.121 173.554 153.126 171.856 153.727C167.173 156.346 161.885 159.188 156.859 161.203C156.807 160.5 156.839 159.591 156.16 159.119C154.169 158.182 152.702 158.456 150.583 158.206C148.113 157.836 145.918 157.416 143.472 156.764C141.872 155.545 140.897 151.953 138.338 152.354C140.604 146.661 137.151 140.721 135.853 135.27C134.235 129.691 133.384 123.897 133.361 118.096C133.345 108.809 127.957 101.682 120.173 96.9169C117.104 94.8476 115.043 89.8143 111.244 88.8061C110.761 86.9548 110.731 86.1416 110.307 84.2762C110.094 83.7404 109.936 80.8328 109.4 80.9318C108.809 78.0517 105.799 76.8967 103.193 76.2935C99.8062 75.5925 95.0792 74.7435 92.0343 76.7213C91.1523 77.4541 90.7649 78.6811 90.7002 79.7772C90.3618 81.2368 89.6581 82.7489 88.8378 84.0153C87.4378 83.543 88.2301 82.6628 86.8454 82.4579C74.2022 80.5867 60.1681 89.8483 51.9649 98.8834C37.0953 114.13 25.2165 134.944 27.1609 156.675C26.638 156.598 24.3201 156.235 24.3536 156.966C24.4671 160.146 25.053 162.799 25.2147 165.976C25.054 170.186 29.4338 170.693 32.5977 171.731C32.4029 183.944 36.8464 196.16 43.8012 206.199C45.4908 208.175 48.0262 215.03 51.1103 212.299C51.4737 211.875 48.6551 208.934 48.1537 208.208C46.4414 206.055 41.9059 195.398 45.1113 193.27C45.8239 195.57 52.7242 206.632 53.9542 200.354C55.5879 201.3 58.2874 201.946 60.2404 201.849C63.9118 203.834 67.4843 205.979 71.01 208.208C72.6523 211.428 75.0612 214.522 77.0793 217.614C63.1125 249.828 49.4798 302.85 31.5062 333.192C29.939 335.174 38.5602 338.541 40.0829 339.268C37.1709 343.99 36.8063 349.461 34.5909 354.545C34.1689 354.477 33.7432 354.567 33.3626 354.77C30.6297 356.618 29.5985 363.234 29.4426 366.496C29.5688 367.951 29.0286 370.152 30.2076 371.223C30.0428 371.401 29.9198 371.619 29.8323 371.841C29.0026 372.486 29.1048 373.911 29.5483 374.795C31.1088 378.029 42.515 377.729 46.2165 378.421C59.3279 379.53 70.3326 379.704 83.4424 378.492C85.0515 378.156 83.8346 375.649 83.0401 374.969C83.4071 374.746 83.6417 374.339 83.4811 373.816C80.5008 365.305 69.7291 365.881 63.2112 361.336C64.925 360.346 63.8188 360.662 62.7421 361.047C61.5992 360.329 60.4875 359.522 59.4577 358.631C60.2487 358.143 59.8586 357.821 59.0029 358.229C57.6543 357.149 56.604 355.48 54.8861 354.957C53.2035 354.545 53.2035 353.827 53.2035 353.374C54.2049 349.353 55.2987 345.23 55.8609 341.152C56.4606 342.036 61.6349 334.959 62.7421 333.192C67.0439 326.389 67.0323 319.685 70.0427 312.286C76.2245 296.175 88.8877 262.407 96.6102 246.998C114.679 276.399 105.878 316.163 117.025 347.515C117.52 348.457 118.452 351.989 119.742 350.97C120.243 351.088 120.777 351.151 121.254 351.218C121.116 354.645 120.859 358.064 120.289 361.455C119.758 361.595 119.306 361.874 119.072 362.361C118.178 361.705 116.465 371.382 116.318 372.368C116.316 373.64 115.218 376.471 116.221 377.227C114.776 377.817 114.54 379.999 115.556 381.121C118.573 385.169 133.278 384.057 138.703 384.735C145.563 384.565 174.261 387.13 176.254 380.632C176.65 379.148 175.971 377.276 174.59 376.705C175.143 375.416 173.819 374.172 173.009 373.268C168.235 368.309 160.893 367.528 154.536 365.37C154.773 365.127 146.238 360.76 144.387 359.681C144.509 358.214 141.458 359.684 141.449 359.681C139.994 357.113 138.964 353.118 137.988 350.348C139.788 349.79 144.126 349.295 144.93 347.515C147.514 346.65 144.923 342.908 144.387 341.152C129.24 303.308 143.611 255.573 121.254 219.854C125.352 217.511 130.054 212.382 126.006 208.079C125.196 207.045 123.214 203.825 123.247 204.387C122.494 201.321 120.813 196.04 120.289 192.94C118.366 181.557 119.626 170.897 121.254 159.401C123.514 168.051 131.304 175.258 139.229 179.21C142.322 180.484 146.406 183.114 149.801 182.284C152.866 181.379 158.432 175.097 159.088 172.08C168.021 173.141 177.297 172.289 185.835 169.485C186.931 169.071 188.227 169.106 187.889 167.553C187.551 166.235 185.141 166.571 184.105 166.816C185.688 165.939 189.8 165.71 189.769 163.418C189.715 162.94 189.362 162.667 188.873 162.749Z" fill="#D08B5B"/>
<path fill-rule="evenodd" clip-rule="evenodd" d="M71.0784 209.146L72.6806 210.234L73.2482 210.618C76.9427 213.11 80.114 215.108 83.249 216.87L83.5678 217.048L83.8863 217.225C88.2346 219.629 92.3302 221.459 96.297 222.697C105.595 225.599 113.956 225.168 121.523 220.741L121.752 220.605L122.112 220.39L122.422 221.102L122.715 221.779C124.324 225.511 125.49 228.426 126.492 231.313L126.537 231.442L126.621 231.687C129.536 239.759 131.455 248.413 132.697 258.328L132.78 258.998C133.632 265.976 134.077 272.378 134.619 283.788L134.671 284.896L134.922 290.292C135.138 294.87 135.288 297.697 135.475 300.612L135.523 301.343L135.601 302.504L135.641 303.073C136.003 308.179 136.444 312.717 137.022 317.029L137.099 317.596C138.57 328.29 140.903 337.554 144.504 346.134L144.614 346.393L144.72 346.644L144.511 346.819C144.425 346.891 144.358 347.023 144.346 347.16L144.345 347.188L144.335 347.512L144.012 347.543C143.198 347.621 142.438 347.802 141.164 348.185L140.403 348.416L140.109 348.503C139.362 348.724 138.883 348.849 138.379 348.947L138.284 348.966L138.124 348.995L137.831 349.062L137.534 349.129C132.731 350.191 127.759 350.601 120.808 350.696L120.294 350.702L120.238 350.679L120.234 350.678L120.214 350.675C120.176 350.671 120.116 350.672 120.019 350.679L119.962 350.684L119.452 350.731L119.319 350.216C119.003 348.999 118.678 347.883 118.133 346.12L118.036 345.808L117.371 343.672C116.298 340.213 115.788 338.368 115.371 336.242L115.331 336.033L115.288 335.808L115.286 335.795C114.178 328.41 113.269 321.423 112.405 313.894L112.292 312.896C112.016 310.451 111.53 305.947 111.119 302.108L110.403 295.407L110.347 294.898C108.846 281.288 107.545 273.663 105.087 265.696C103.215 259.626 100.698 253.725 97.2296 247.376L97.1007 247.141L97.058 247.063L96.945 247.155C95.8409 248.051 95.1888 248.658 95.0334 248.914L95.0261 248.927L94.8351 249.288L94.6735 249.59L93.705 251.38C93.6036 251.569 93.5155 251.734 93.4336 251.889L93.2827 252.176L93.0667 252.595L92.9113 252.901L92.8043 253.113L92.6833 253.356L92.4315 253.732L92.3194 253.9L92.1063 254.222L92.001 254.385C90.3586 256.938 89.0724 259.689 87.3794 264.039L87.161 264.603L86.8145 265.51L85.7776 268.249L85.2793 269.558L85.0406 270.178C84.807 270.782 84.5874 271.341 84.3707 271.884L84.2625 272.154L84.0856 272.591L83.8093 273.27L83.6169 273.744C81.4016 279.217 79.113 285.277 76.6615 292.104L76.1919 293.415L75.8502 294.374C74.4815 298.222 73.0859 302.235 71.4711 306.951L71.0627 308.144L70.4668 309.89L66.4074 321.822L65.732 323.8L65.1265 325.565L64.9511 325.942L64.7798 326.309C62.728 330.678 60.8221 334.115 58.6371 337.209L58.5607 337.317L58.5174 337.397L58.477 337.467C58.3259 337.724 58.1389 337.968 57.8339 338.324L57.7916 338.373L57.4465 338.77L57.369 338.861C56.7905 339.547 56.5791 339.924 56.5516 340.385L56.5439 340.561L55.9403 341.152L55.7023 341.028L55.6496 341.001C55.1725 340.769 54.3725 340.606 53.0489 340.44L52.8968 340.422L52.5439 340.38L51.3982 340.25C50.3809 340.132 49.8083 340.043 49.3837 339.92L49.3292 339.903L49.273 339.885L49.0986 339.851C43.497 338.735 38.0924 336.726 33.1497 333.92L32.9754 333.82L32.8016 333.72L32.5065 333.55L32.8213 332.892C33.6608 331.134 34.5103 329.311 35.3706 327.423C40.8492 315.398 46.5526 301.258 53.3754 283.127L53.5825 282.577L54.1064 281.181L54.5346 280.034C57.9981 270.74 66.9698 246.254 70.1463 237.689L70.7009 236.198L70.8522 235.793L73.1953 230.021L73.336 229.679C73.4081 229.504 73.4833 229.324 73.563 229.133L73.7726 228.633L74.534 226.828L74.8492 226.075C75.4551 224.619 75.8413 223.641 76.2075 222.621L76.2523 222.495L76.3858 222.116C76.525 221.716 76.5058 220.447 76.2882 219.126L76.2665 218.998L76.2432 218.868C75.9089 217.05 75.265 215.388 74.3203 214.159L74.2866 214.115L74.2747 214.105L73.9243 213.595C73.17 212.493 72.6103 211.644 72.0932 210.807L72.0502 210.737L71.0784 209.146Z" fill="#FFCF77"/>
<path fill-rule="evenodd" clip-rule="evenodd" d="M144.125 358.828C144.675 359.372 148.895 362.606 154.595 365.331C158.078 366.996 162.322 367.856 165.909 369.505C169.779 371.283 172.93 373.851 174.855 375.708L176.837 380.996C176.535 382.913 167.625 384.128 158.274 384.437C144.576 384.891 127.555 383.578 125.929 383.405C123.123 383.148 114.382 383.434 115.993 378.862C116.451 379.007 116.595 376.067 116.917 375.783L117.194 373.542C117.99 367.147 118.457 363.706 118.595 363.218C118.631 363.162 118.667 363.107 118.708 363.055C119.182 362.444 119.983 362.273 120.722 362.318C120.782 362.321 120.842 362.329 120.903 362.338C121.003 362.39 121.1 362.452 121.192 362.525L121.269 362.536C121.282 362.538 121.295 362.539 121.308 362.542C121.335 362.546 121.359 362.553 121.381 362.562C121.399 362.531 121.415 362.498 121.432 362.465C121.889 362.605 122.354 362.793 122.8 362.814L123.123 362.956L123.54 363.142L124.746 363.683L125.015 363.803C126.569 364.483 130.469 365.943 134.056 365.454C137.53 364.979 140.447 361.533 141.521 360.626C142.301 359.911 143.398 359.577 144.125 358.828ZM54.4372 354.704C54.7785 354.794 56.2868 355.709 57.586 356.949C58.8135 358.12 59.7885 359.582 61.6175 360.912C64.2592 362.832 74.4047 366.5 79.9365 370.021C82.8047 371.847 84.6334 377.804 84.681 378.079C67.2739 379.076 46.513 378.881 29.2723 376.134C28.9445 376.039 29.0843 368.474 29.8634 363.397L29.8872 363.244C30.4492 359.678 31.088 357.718 31.1269 357.634L31.171 357.56C31.8866 356.395 33.8444 355.142 35.1122 355.994L35.1241 356.004L35.3614 356.218C36.4939 357.233 41.2264 361.301 44.5121 360.313C45.588 359.965 46.4812 359.267 47.4171 358.659C49.9356 357.036 51.5957 355.68 54.4372 354.704ZM54.9401 354.479C55.1713 354.628 55.3913 354.795 55.6038 354.975C55.3271 354.809 55.0339 354.672 54.7182 354.574C54.7871 354.549 54.8538 354.521 54.918 354.49L54.9401 354.479Z" fill="white"/>
<path fill-rule="evenodd" clip-rule="evenodd" d="M85.2977 81.8715L85.4969 81.8962C86.2728 81.9973 86.9224 82.1652 87.4745 82.443L87.5378 82.4755L87.7904 82.6083L87.8518 82.8867C88.0444 83.76 88.7611 85.7297 89.1479 86.5027L89.1683 86.5429L89.1813 86.5682L89.227 86.6522L89.3227 86.8718C91.2017 91.1523 93.7397 95.2213 96.8326 98.9556L96.9848 99.1386L97.0813 99.2678C99.8962 103.018 103.476 105.712 106.454 105.784L106.544 105.786L106.703 105.785C108.406 105.745 109.924 104.852 111.234 102.955C112.13 101.637 112.641 99.999 112.832 98.0345C112.985 96.4692 112.936 94.7983 112.728 92.7034L112.714 92.5662L112.681 92.241L112.657 92.0213C112.647 91.928 112.629 91.9071 112.595 91.9042L112.588 91.9038L112.574 91.9037L112.566 91.9041L112.559 91.9049L112.545 91.9073L111.915 92.1608L111.678 91.4432L111.628 91.2945L111.572 91.1324L111.345 90.4832L111.273 90.2735L111.216 90.1024C111.134 89.8552 111.067 89.6339 111.007 89.414L110.985 89.3316L110.658 88.0497L111.75 88.4457C111.808 88.4665 111.865 88.4882 111.921 88.5107L112.006 88.5452L112.085 88.5784L112.152 88.6322C112.384 88.817 112.617 88.9669 113.028 89.202L113.081 89.2318L113.621 89.5366L113.742 89.6385L113.823 89.7096C114.323 90.1491 114.746 90.6189 115.393 91.4154L115.446 91.4807L115.915 92.0639L116.138 92.3368L116.266 92.5481L116.363 92.7098L116.417 92.8015L116.722 93.3238L116.866 93.5665C117.231 94.1796 117.465 94.5299 117.752 94.8849L117.807 94.9516L117.847 94.9989C118.324 95.5634 118.917 96.0665 119.804 96.6977L119.959 96.8072L120.19 96.9683L120.276 97.0405C120.484 97.2132 120.683 97.3587 120.877 97.4786L120.933 97.5123L121.001 97.5369L121.296 97.7472L121.523 97.9101C123.125 99.0693 124.322 100.058 125.415 101.171C126.178 101.948 126.888 102.754 127.54 103.586L127.67 103.753C127.778 103.893 127.878 104.026 127.993 104.185L128.115 104.353L128.697 105.168L128.854 105.385C129.077 105.69 129.248 105.91 129.428 106.126L129.458 106.162L129.54 106.258L129.622 106.326L129.679 106.434C130.291 107.594 130.765 108.797 131.098 110.067L131.128 110.186L131.164 110.288C131.608 111.576 131.895 112.939 132.069 114.473L132.086 114.627L132.114 114.906C132.208 115.853 132.255 116.686 132.293 118.044L132.306 118.507L132.348 120.351L132.36 120.776C132.41 122.501 132.487 123.648 132.647 124.817L132.657 124.887L132.676 125.023L132.679 125.041C133.295 130.401 134.55 135.638 136.425 140.661L136.513 140.897L136.579 141.07L137.059 142.321L137.169 142.611C137.68 143.968 137.986 144.905 138.215 145.898C138.532 147.27 138.626 148.524 138.461 149.725L138.447 149.821L138.439 149.884C138.346 150.648 138.329 151.366 138.378 151.897L138.384 151.966L138.561 151.967C139.139 151.971 139.611 152.157 139.987 152.516L140.023 152.552L140.059 152.588C140.343 152.887 140.546 153.25 140.781 153.817L140.837 153.955C140.905 154.128 141.077 154.564 141.203 154.873L141.293 155.09L141.352 155.224C141.436 155.413 142.075 156.164 143.157 156.641C143.789 156.919 145.509 157.207 145.509 157.207L145.62 157.252C147.17 157.872 148.56 158.169 151.293 158.538L151.796 158.605L152.928 158.752C154.066 158.901 154.784 159.009 155.521 159.148L155.733 159.189L157.221 159.486L156.076 160.31C154.109 161.725 146.962 169.367 146.6 171.985C146.171 175.095 152.795 173.041 153.716 172.031L153.819 171.916L153.92 171.804L154.228 171.455L154.531 171.476L154.83 171.497C155.433 171.542 156.059 171.6 156.728 171.671L157.892 171.797L157.067 173.06L156.852 173.388L156.705 173.61L156.554 173.835L156.402 174.063C154.277 177.216 152.481 179.276 150.255 180.803L150.18 180.854L150.138 180.885C149.577 181.281 148.96 181.483 148.285 181.516L148.217 181.518L148.149 181.52L148.095 181.52C147.722 181.521 147.337 181.472 146.925 181.378L146.83 181.357C146.454 181.267 146.096 181.154 145.572 180.967L145.437 180.919L144.999 180.759L144.66 180.638L144.557 180.602C143.069 180.071 141.617 179.47 140.205 178.8C131.127 174.539 124.208 168.089 121.343 160.228L121.257 159.989L121.164 159.72L119.68 160.043L119.64 160.383C117.846 176.046 118.202 188.504 121.411 200.112L121.509 200.463L121.601 200.786L121.755 201.157C122.218 202.267 122.723 203.412 123.359 204.808L123.623 205.384L123.806 205.44L123.923 205.686C124.07 205.998 124.24 206.305 124.431 206.606L124.478 206.678C124.672 206.976 124.873 207.239 125.219 207.656L125.305 207.759L125.816 208.366L125.928 208.501C125.951 208.529 125.973 208.556 125.995 208.583L126.06 208.664L126.168 208.8C126.218 208.864 126.265 208.925 126.31 208.985L126.376 209.073L126.444 209.193C126.724 209.69 126.929 210.134 127.074 210.587L127.101 210.672L127.114 210.716L127.121 210.761C127.513 213.408 126.37 215.774 124.042 217.833C122.306 219.368 120.002 220.662 117.402 221.72L117.252 221.781C113.954 223.018 110.653 223.648 107.306 223.715L107.139 223.718L106.715 223.721C101.681 223.721 96.6073 222.469 91.0948 220.056L90.85 219.948C86.9405 218.22 83.3534 216.222 77.5796 212.691L77.2159 212.468L76.4392 211.991L74.3105 210.679L74.2644 210.573L74.164 210.493L74.0969 210.441C73.6816 210.122 73.2317 209.857 72.4445 209.446L72.3139 209.378L71.9302 209.181L71.4898 208.952L71.177 208.762L70.7066 208.479C69.0018 207.454 67.5151 206.59 66.0949 205.806L65.966 205.735L65.61 205.54L65.5897 205.529C64.7355 205.02 63.8938 204.529 63.0612 204.052L62.7262 203.861L62.4423 203.665L62.1895 203.492L61.9351 203.319L61.7427 203.19C60.5702 202.407 59.6445 201.872 58.6863 201.453C57.7158 201.028 56.8882 200.749 56.1135 200.622L56.0335 200.61L55.9089 200.591L55.8016 200.525C55.3488 200.245 54.9449 199.945 54.583 199.613C53.7302 198.831 53.233 197.892 52.9945 196.742L52.9793 196.666L52.9314 196.422L53.0676 196.213C53.0904 196.179 53.1119 196.042 53.1213 195.767L53.1233 195.696L53.1287 195.48L53.132 195.386C53.1428 195.118 53.1631 194.953 53.216 194.79L53.2295 194.75L53.2414 194.654C53.4051 193.316 53.4971 192.141 53.6066 190.106L53.6291 189.68L53.7452 187.374C53.8071 186.191 53.8614 185.324 53.9298 184.493L53.9532 184.217L53.9883 183.827L54.0211 183.438C54.3737 179.353 54.9373 175.911 56.305 168.842L57.02 165.154C57.3969 163.193 57.6485 161.83 57.8804 160.476L57.9745 159.921L58.1125 159.086L58.1815 158.657C58.8952 154.175 59.2615 150.381 59.2711 146.752C59.2823 142.528 58.797 138.616 57.7349 134.869L57.6822 134.685L57.662 134.616L56.5556 135.674C56.5556 135.674 49.5589 150.18 46.1959 156.699L46.0365 157.007L46.0052 157.084C45.8556 157.472 45.8229 158.486 45.9342 159.509L45.9476 159.627L45.9627 159.747L45.9808 159.879C46.0592 160.423 46.172 160.898 46.3022 161.226C46.3438 161.331 46.3852 161.415 46.4223 161.476L46.436 161.497L46.445 161.51L46.5133 161.51C46.6242 161.51 46.7348 161.509 46.8451 161.507L47.0102 161.504L47.2565 161.499L48.7193 161.456L47.9567 162.474C45.7581 165.41 44.0714 168.854 43.0533 172.456L43.0088 172.615L42.8295 173.269L42.2539 173.215L42.1501 173.207L41.8304 173.182L41.4521 173.147L41.331 172.957L41.1043 173.099L40.6918 173.02L40.3595 172.955C37.7937 172.442 35.4234 171.775 31.4423 170.511L31.052 170.387L29.5739 169.915L28.7823 169.662L28.6674 169.623L28.5652 169.587L28.4677 169.551C27.3474 169.134 26.7081 168.582 26.3953 167.554L26.3718 167.474L26.349 167.355L25.2813 161.754L25.1073 160.859C24.9191 159.899 24.7468 159.041 24.5754 158.214L24.4468 157.598L24.222 156.539L25.325 156.445L25.4547 156.433C25.7911 156.401 26.0521 156.365 26.2714 156.317L26.32 156.306L26.3301 156.049L26.34 155.823C26.3521 155.555 26.3663 155.275 26.3833 154.98L26.3985 154.722L26.4218 154.354C26.5513 152.377 26.7651 150.199 27.088 147.845C28.0193 141.055 29.6441 134.276 32.1436 127.936C34.0349 123.138 36.9676 118.171 40.7599 113.072C43.7688 109.026 47.1557 105.105 50.936 101.141C55.8304 95.9299 59.7159 92.33 63.9048 89.3941C69.0928 85.7581 74.332 83.5307 79.9085 82.8349L80.0521 82.8173L80.2837 82.772C80.6085 82.7096 80.9278 82.6538 81.3634 82.5829L81.4415 82.5703L82.8967 82.3394L83.293 82.2744C83.8156 82.1872 84.2122 82.1137 84.6003 82.031L84.7664 81.9949L84.9461 81.9545L85.2977 81.8715Z" fill="#9DDADB"/>
<path fill-rule="evenodd" clip-rule="evenodd" d="M90.7312 77.829C90.8671 77.884 90.9598 78.0904 91.0148 78.4005C91.1661 78.4476 91.2957 78.5592 91.3347 78.7272C91.4493 79.2215 91.3154 79.7368 91.212 80.2294L91.2003 80.2862C91.1025 80.7631 90.983 81.237 90.8368 81.7018L90.8155 81.8195C90.4599 83.7404 89.7743 85.5668 88.9692 85.2565L89.1552 85.5948C92.3143 91.3202 101.338 106.693 108.384 104.502C112.487 102.86 112.428 97.5218 112.128 93.8067C109.082 95.6726 108.512 81.3889 109.136 79.8105C109.633 79.4453 109.873 82.731 110.058 83.184C110.462 84.9864 110.957 86.7655 111.422 88.5529C112.404 88.7471 113.333 89.1381 114.154 89.6985C114.194 89.7209 114.234 89.7413 114.272 89.7646C114.765 90.0642 115.15 90.4462 115.493 90.8693C115.88 91.3023 116.212 91.7763 116.525 92.2635C117.213 93.0441 117.868 93.8537 118.546 94.6427C118.868 95.0171 119.197 95.3801 119.534 95.7339L119.793 95.9517C119.837 95.9879 119.88 96.0239 119.924 96.0596C127.707 100.913 133.096 108.174 133.111 117.632C133.134 123.541 133.985 129.442 135.604 135.125C136.901 140.678 141.092 146.353 138.826 152.152C141.385 151.743 141.622 155.027 143.222 156.268L143.725 156.404C145.972 157.008 148.033 157.512 150.333 157.862C152.452 158.117 154.902 157.837 156.894 158.792C157.572 159.273 157.329 160.141 157.382 160.857C162.408 158.804 166.922 155.968 171.605 153.3L171.762 153.244C173.495 152.629 176.587 151.706 178.011 153.055C178.844 154.034 178.003 154.907 177.263 155.563C175.869 156.796 174.391 157.927 172.964 159.119C176.81 159.44 180.669 159.184 184.474 158.561L184.681 158.527C185.613 158.375 186.712 158.013 187.637 158.356C190.635 160.027 187.166 161.978 185.556 162.954C186.783 162.852 188.007 162.7 189.236 162.49C189.725 162.406 190.078 162.684 190.132 163.171C190.163 165.505 187.084 165.631 185.5 166.524L185.627 166.494C186.662 166.255 188.151 166.044 188.476 167.333C188.815 168.915 186.679 169.555 185.583 169.976C177.046 172.832 167.77 173.7 158.837 172.619C158.181 175.692 152.616 182.091 149.551 183.013C146.156 183.859 142.072 181.179 138.979 179.882C131.055 175.856 123.712 169.215 121.452 160.405C119.553 174.066 120.321 187.838 123.172 201.28C123.633 202.327 124.12 203.359 124.668 204.364C124.834 204.391 124.974 204.501 125.006 204.725C125.023 204.847 125.048 204.967 125.076 205.084C125.621 206.01 126.219 206.899 126.774 207.819C126.889 208.009 127.002 208.207 127.106 208.409C130.802 212.762 126.297 218.371 122.269 220.718C144.624 257.101 130.185 302.95 145.332 341.497L145.365 341.607C145.94 343.44 147.691 347.214 145.159 348.078C144.355 349.891 140.304 350.105 138.503 350.673C139.479 353.494 140.563 356.285 142.018 358.9L142.045 358.912C142.624 358.486 143.867 358.047 144.38 358.51C144.505 358.526 144.63 358.561 144.751 358.622C145.546 359.016 146.186 359.77 146.946 360.245C147.357 360.502 147.784 360.735 148.224 360.939C148.634 361.128 149.07 361.253 149.404 361.566C149.509 361.664 149.536 361.79 149.51 361.905C149.774 362.042 150.038 362.179 150.3 362.317L150.443 362.228C152.766 360.782 154.635 359.999 151.255 362.776C152.466 363.335 153.708 363.824 154.958 364.283C155.907 363.827 156.92 363.494 157.965 363.448C158.153 363.68 156.717 364.577 156.48 364.824C162.837 367.022 169.829 368.743 174.603 373.795L174.656 373.855C175.469 374.77 176.724 376.011 176.184 377.295C177.565 377.877 178.244 379.784 177.847 381.295C175.855 387.914 145.312 385.302 138.453 385.475C133.028 384.784 118.324 385.917 115.307 381.793C114.291 380.65 114.527 378.428 115.972 377.827C114.969 377.057 116.067 374.173 116.069 372.878L116.092 372.728C116.246 371.761 116.912 367.976 117.602 365.332C117.617 365.123 117.644 364.91 117.678 364.695L117.699 364.558C117.837 363.715 118.048 362.858 118.593 362.18C118.984 361.693 119.527 361.392 120.116 361.284C120.274 360.277 120.403 359.267 120.514 358.256C120.593 357.068 120.622 355.877 120.609 354.686C120.602 354.084 120.586 353.483 120.557 352.882C120.535 352.44 120.56 351.914 120.448 351.462C120.373 351.539 120.266 351.58 120.147 351.539C119.893 351.452 119.66 351.292 119.427 351.161C119.418 351.156 119.411 351.151 119.404 351.145C118.16 351.952 117.26 348.5 116.776 347.563C105.63 315.629 114.43 278.877 96.3617 248.93C93.8673 254.276 91.7238 259.181 89.3229 264.566C81.8247 281.38 72.5682 310.999 66.3605 328.803C64.6715 332.442 62.6863 335.96 60.3265 339.21C59.5721 340.064 59.0659 341.321 57.9737 341.78L57.8782 341.795C57.5867 342.339 57.1821 342.797 56.5804 342.782C56.4329 342.778 56.2823 342.761 56.1303 342.735C55.597 346.44 54.9265 350.168 54.0351 353.814L54.1554 353.764C54.7388 353.523 55.3524 353.318 55.9513 353.371C57.4044 353.739 56.8664 355.008 55.7177 355.426C57.1475 355.87 58.1151 357.121 59.1768 358.163C60.0741 357.68 61.0799 357.429 62.1546 357.535C62.3192 357.551 62.4446 357.623 62.5318 357.722C62.5935 357.722 62.6534 357.725 62.7102 357.735L62.5932 357.805C62.7841 358.126 62.6478 358.614 62.1546 358.617C61.7675 358.619 61.3947 358.654 61.0342 358.72C60.784 358.867 60.5349 359.014 60.2893 359.169C61.1179 359.899 62 360.574 62.9084 361.19C63.3882 360.945 63.8955 360.74 64.4232 360.575C65.1045 360.363 65.4018 361.444 64.7175 361.64C64.5723 361.682 64.4284 361.728 64.2855 361.778L64.1451 361.863C64.1123 361.882 64.0781 361.903 64.0425 361.924C70.5603 366.553 81.5775 365.967 84.5578 374.636C84.6565 374.963 84.6057 375.245 84.4671 375.467C85.113 376.059 85.411 377.123 85.2655 377.939L85.2779 378.008C85.3887 378.668 85.2293 379.248 84.519 379.399C79.779 379.84 75.0505 380.12 70.2899 380.207L69.9057 380.21C63.0851 380.256 29.9095 380.008 28.4131 375.633C28.014 374.823 27.891 373.566 28.4749 372.844C28.5427 372.455 28.6761 372.101 28.9134 371.824C27.9525 370.855 28.4251 368.411 28.3075 367.18C28.5185 363.071 29.353 358.665 31.8674 355.302C31.9084 355.249 31.9581 355.216 32.0094 355.2C32.4485 354.759 33.0254 354.481 33.6851 354.443C33.7056 354.392 33.7265 354.341 33.7466 354.29C34.2594 353.082 34.7466 351.852 35.2305 350.616C35.5896 349.211 35.9642 347.81 36.3395 346.417C36.7145 345.025 37.0813 343.631 37.4402 342.235C37.726 341.122 37.9719 339.868 38.4665 338.804C38.4531 338.759 38.4402 338.713 38.4254 338.668L37.9107 338.46C34.5392 337.091 29.1971 334.782 30.3709 333.257C42.8784 307.295 55.1215 270.334 66.5995 243.419C66.7788 242.891 66.9684 242.367 67.1766 241.847C67.6835 240.582 68.197 239.318 68.7178 238.058L69.0311 237.303L74.0316 225.284C74.555 224.026 75.1451 222.774 75.5576 221.474C75.9551 220.222 76.0619 218.976 75.3067 217.837C74.631 216.817 73.6789 215.974 72.9171 215.016C72.341 214.291 71.7795 213.518 71.2762 212.705C70.8192 212.103 70.4372 211.414 70.0964 210.859C69.5503 209.969 68.8558 208.984 68.4594 207.956C67.9481 207.634 67.4359 207.314 66.9218 206.997C66.034 206.499 65.1604 205.979 64.3101 205.416C63.2362 204.778 62.1554 204.151 61.0661 203.539C60.6729 203.344 60.2795 203.149 59.8856 202.956C58.7054 203.058 55.445 201.605 54.3344 200.622C54.2074 200.596 54.0811 200.567 53.9556 200.536C53.9054 201.164 53.7 201.732 53.2215 202.154C50.039 203.732 45.9827 196.587 44.8647 194.203C42.6431 196.371 47.944 207.095 49.6564 209.288L49.7477 209.424C50.2057 210.109 50.6859 210.879 51.3355 211.385L51.401 211.435C51.8464 211.764 51.929 212.278 51.5657 212.711C48.4816 215.492 45.2441 209.385 43.5545 207.373C36.6002 197.147 32.1566 184.703 32.3514 172.264C29.1877 171.206 24.808 170.69 24.9687 166.402C24.807 163.165 24.2211 159.963 24.1072 156.724C24.0742 155.98 26.392 156.349 26.9151 156.428C26.1446 148.986 27.3088 141.43 29.3851 134.277C34.8363 115.976 57.284 82.9894 79.3785 81.7985C79.3592 81.7626 79.3683 81.7141 79.4179 81.7012C80.4179 81.4418 81.523 81.4833 82.5507 81.516C83.6203 81.5498 84.7075 81.5572 85.7714 81.6779C86.8741 81.8028 88.0417 82.2077 88.7825 83.0088L89.0391 82.5464C89.3369 82.0065 89.6239 81.4611 89.8407 80.8653C89.9505 80.5643 90.0365 80.2523 90.1149 79.9369C90.2036 79.4871 90.2259 79.0189 90.439 78.6104C90.4446 78.5997 90.4517 78.5909 90.4578 78.5809C90.5344 78.3235 90.6221 78.0713 90.7312 77.829ZM117.848 377.811C117.533 378.132 116.985 378.272 116.5 378.118C114.889 382.691 123.631 382.404 126.436 382.661C129.428 382.98 183.922 385.811 174.706 379.107C163.894 383.223 127.731 383.677 117.848 377.811ZM144.387 359.681C143.66 360.43 142.563 360.763 141.782 361.478C139.576 363.342 137.802 365.964 134.753 366.458C130.748 367.205 127.137 365.231 123.554 363.667C123.108 363.646 122.643 363.457 122.185 363.318C122.169 363.351 122.153 363.384 122.135 363.415C122.112 363.406 122.089 363.399 122.062 363.394C122.022 363.388 121.984 363.384 121.945 363.378C121.853 363.304 121.756 363.243 121.656 363.191C121.595 363.181 121.535 363.174 121.475 363.17C120.737 363.125 119.935 363.297 119.462 363.908C119.421 363.96 119.384 364.015 119.349 364.071C119.119 364.884 119.09 365.867 119.2 366.555C119.236 366.779 119.143 367 118.984 367.128C118.842 370.529 118.459 373.946 118.191 377.302C119.531 377.783 120.922 378.149 122.313 378.381C131.917 379.56 141.623 380.108 151.301 379.812C157.061 379.604 162.814 379.09 168.515 378.235C170.358 378.062 172.245 377.349 174.086 377.637C174.165 377.489 174.287 377.363 174.457 377.276C169.736 370.82 161.668 369.074 154.633 366.244C153.471 366.985 152.756 368.53 151.462 368.99C150.96 369.066 150.261 368.77 150.335 368.133C150.544 366.83 151.953 366.236 152.902 365.48C151.884 365.004 150.885 364.488 149.91 363.914C148.953 364.776 147.82 365.431 146.924 366.351C147.433 367.593 145.309 367.486 145.285 366.163C145.432 364.701 147.753 364.081 148.789 363.228C147.17 362.244 145.724 361.003 144.387 359.681ZM30.3362 372.464C30.2797 372.575 30.1876 372.676 30.0512 372.755C29.8151 372.891 29.9286 373.613 29.9404 373.856L29.9411 373.874C29.9541 374.31 29.9814 374.745 30.0192 375.18C30.4177 375.539 30.9272 375.812 31.4933 375.976C48.7341 378.724 66.3056 378.947 83.7128 377.949C83.6327 377.487 83.2944 377.107 82.9949 376.721C71.9904 377.655 60.7212 376.678 49.6983 375.768C43.2541 374.922 36.5022 374.571 30.3362 372.464ZM55.4367 355.556C52.5952 356.533 49.9513 357.888 47.4328 359.512C46.4969 360.12 45.6036 360.817 44.5277 361.166C40.8025 362.286 35.2174 356.907 35.1278 356.847C33.8341 355.977 32.4624 356.788 31.7585 357.993C31.6935 358.105 30.6145 364.271 30.6471 367.291C30.4535 368.318 30.9701 369.997 30.6952 371.116C30.9113 371.376 31.2194 371.498 31.4268 371.77C31.502 371.868 31.4807 371.979 31.4158 372.063C41.4755 372.89 51.4767 374.459 61.5842 374.79C68.5019 375.156 75.4328 375.072 82.3516 374.988C80.7775 370.372 75.4158 369.153 71.3204 367.634C68.2261 366.523 65.3772 364.869 62.8705 362.743C61.7835 363.505 60.9263 364.573 60.1561 365.646C59.8062 366.082 59.0876 366.411 58.7129 365.807C58.327 365.18 59.0804 364.388 60.0106 363.693C60.4999 362.97 61.1169 362.353 61.8274 361.845C61.0419 361.146 60.2855 360.417 59.577 359.643C58.1077 360.637 57.0282 362.067 55.9713 363.455C55.4634 364.009 54.5134 363.277 54.9301 362.653C55.264 362.223 55.6399 361.827 56.0423 361.455C56.6488 360.312 57.5222 359.257 58.5817 358.526L58.5009 358.424C57.6158 357.289 56.8507 355.929 55.4367 355.556ZM30.4012 371.739C30.3769 371.769 30.3513 371.798 30.324 371.826C30.3484 371.876 30.367 371.928 30.3808 371.981L30.639 372.001C30.5493 371.927 30.4704 371.837 30.4012 371.739ZM137.558 350.86C132.288 351.854 126.843 352.236 121.523 351.415C122.139 354.846 122.525 358.299 122.323 361.784C130.277 364.077 133.582 367.9 140.2 360.259C139.88 359.773 139.696 359.175 139.481 358.6C138.566 356.101 137.811 353.517 137.558 350.86ZM40.7526 339.606C40.6774 339.772 40.5419 339.909 40.3466 339.969C40.277 340.276 40.205 340.583 40.1283 340.889C39.9992 342.47 39.4017 344.038 38.7838 345.496C38.7414 345.597 38.6997 345.697 38.6578 345.798C38.2502 347.011 37.8229 348.222 37.4015 349.434C37.0822 350.693 36.8009 351.962 36.507 353.227C36.4503 354.085 36.3283 354.936 36.1407 355.777C36.132 355.816 36.1203 355.852 36.1074 355.887C36.402 356.018 36.6863 356.17 36.9544 356.323C45.0242 362.378 43.6306 358.33 51.3788 354.94C51.3342 354.615 51.4975 354.321 51.6307 353.984L51.6479 353.939C51.656 353.918 51.664 353.897 51.6721 353.875C51.6593 353.747 51.6668 353.609 51.7009 353.462C52.4856 350.257 53.5784 347.107 54.6011 343.97C54.7648 343.498 54.9543 343.037 55.148 342.576C50.2353 342.513 45.3759 341.206 40.7526 339.606ZM71.2196 209.713C115.793 265.217 106.028 271.763 115.625 335.752C116.558 340.733 118.452 345.461 119.706 350.347L119.879 350.331C120.051 350.314 120.213 350.304 120.335 350.343L120.339 350.345L120.834 350.338C126.6 350.259 132.392 349.958 138.025 348.645C140.016 348.296 141.958 347.38 143.951 347.188C143.959 346.929 144.082 346.688 144.249 346.548C128.875 310.235 139.586 268.754 126.248 231.823C124.983 228.128 123.475 224.514 121.916 220.933C104.773 231.169 85.6141 219.577 71.2196 209.713ZM38.6272 341.163C38.5322 341.582 38.4287 341.995 38.3343 342.394L38.1952 342.99C38.3931 342.388 38.5492 341.777 38.6272 341.163ZM77.2015 219.542C77.2311 220.46 77.0094 221.385 76.709 222.248C75.7465 225.014 74.5137 227.708 73.4101 230.42C72.6611 232.26 71.9189 234.104 71.1687 235.944C60.0573 265.587 46.4179 305.321 32.9611 333.413C38.0313 336.344 43.5906 338.417 49.3419 339.54C50.6774 339.986 54.4965 340.006 55.8482 340.713L56.156 340.411C56.2093 339.147 57.6449 338.245 58.2196 337.136C60.8141 333.486 62.8822 329.495 64.7584 325.439L65.065 324.548C70.0526 310.044 76.5619 290.078 83.4196 273.198L83.6318 272.677C86.4737 265.716 88.3418 259.299 91.7717 254.033C91.9586 253.749 92.1478 253.466 92.3382 253.182C92.4784 252.901 92.6199 252.619 92.7638 252.339C93.3788 251.142 94.0419 249.971 94.6676 248.779C94.9344 248.271 95.1989 247.698 95.339 247.111C89.8906 237.554 83.3981 228.62 77.2015 219.542ZM85.3615 82.5806C83.6517 82.9961 81.8995 83.1657 80.1798 83.5103C68.3278 84.9217 59.2411 93.3141 51.4139 101.647C36.5869 117.198 27.9603 136.332 28.597 157.958C33.8919 158.921 39.1322 160.331 44.527 160.639C43.743 159.453 45.056 157.97 45.5079 156.835C53.311 141.781 59.3359 125.162 64.2284 109.314L64.0955 110.005C62.5593 117.96 60.7699 125.88 58.0386 133.521C58.8297 132.744 71.8266 122.423 70.8107 125.836C66.8399 128.935 62.355 131.39 58.1943 134.234C63.1414 150.736 55.9894 167.455 54.6305 183.964C54.2891 187.634 54.3187 191.33 53.8599 194.987C53.6854 195.4 53.8691 196.242 53.6122 196.635C53.8024 197.606 54.2026 198.49 55.0285 199.247C55.3762 199.566 55.7557 199.843 56.1547 200.089C57.1507 200.239 58.1512 200.622 58.9624 200.977C60.7675 201.766 62.3561 202.93 63.9695 204.042L64.0127 204.071C66.6142 205.406 69.213 206.922 71.8214 208.503L71.9379 208.564C72.9081 209.073 73.9001 209.531 74.7455 210.236C74.784 210.268 74.8097 210.305 74.8266 210.344L76.4109 211.321C89.1014 219.141 102.186 226.875 117.065 221.293C121.245 219.611 127.323 216.205 126.542 210.937C126.388 210.432 126.154 209.958 125.89 209.496C125.816 209.396 125.74 209.299 125.664 209.203C125.088 208.475 124.442 207.808 123.942 207.022C123.738 206.702 123.555 206.373 123.396 206.034C123.283 206 123.182 205.921 123.119 205.783C122.403 204.223 121.702 202.661 121.048 201.074C113.128 173.502 122.742 143.878 125.461 116.07C125.65 114.477 125.928 112.868 125.927 111.265C125.927 111.189 126.036 111.192 126.042 111.265C127.001 118.362 126.274 125.526 125.362 132.592C124.194 141.431 122.66 150.233 121.606 159.088C124.408 168.014 132.255 174.464 140.496 178.331C141.898 178.996 143.331 179.589 144.793 180.111L144.891 180.145C146.497 180.706 148.31 181.574 149.859 180.437C152.833 178.422 154.932 175.347 156.859 172.386C156.08 172.301 155.299 172.228 154.518 172.175C152.6 174.365 150.25 176.225 147.769 177.745C146.759 178.323 145.611 178.079 145.143 176.946C144.702 175.878 145.242 174.63 145.633 173.6L145.69 173.45C147.669 168.12 151.106 163.236 155.746 159.898C152.245 159.2 148.609 159.221 145.25 157.84C145.433 158.032 145.194 158.247 145.077 158.41C145.118 158.725 144.889 158.956 144.606 159.041C141.866 162.616 139.789 166.85 139.355 171.384C139.471 172.928 138.087 174.711 136.754 173.09C135.712 168.576 139.812 161.523 143.417 158.737C139.802 156.26 140.855 152.684 138.586 152.667C137.999 153.792 137.234 154.868 136.269 155.703C135.833 156.057 135.304 156.324 134.836 156.638C134.344 156.968 133.831 156.241 134.221 155.842L134.324 155.719C135.804 153.951 137.562 152.213 137.868 149.821C138.31 146.875 136.984 143.891 135.968 141.2C134.019 136.042 132.727 130.675 132.097 125.198C131.384 120.29 132.251 115.2 130.569 110.451C130.234 109.129 129.753 107.924 129.164 106.806C129.15 106.794 129.136 106.783 129.123 106.768C128.423 105.96 127.864 105.06 127.212 104.214C126.529 103.328 125.789 102.485 125.006 101.688C123.696 100.355 122.25 99.243 120.743 98.1723C120.715 98.1622 120.687 98.1492 120.658 98.1325C120.376 97.9659 120.105 97.7636 119.843 97.5413L119.818 97.5236C118.941 96.9153 118.047 96.2551 117.363 95.4293C116.691 94.6185 116.213 93.673 115.665 92.78C114.915 91.8671 114.201 90.8891 113.297 90.1285C112.786 89.8371 112.254 89.5624 111.798 89.198C111.723 89.1668 111.647 89.1372 111.57 89.1092C111.764 89.9008 112.058 90.6291 112.323 91.4332C112.707 91.2714 113.233 91.4507 113.297 92.0413L113.321 92.2618C113.707 95.8786 113.902 100.255 111.772 103.387C107.081 110.178 100.074 104.38 96.5306 99.6046C93.3506 95.7963 90.6771 91.5601 88.7028 87.0075L88.6701 86.9473C88.3025 86.2506 87.5058 84.1261 87.2806 83.1052C86.7113 82.8059 86.0186 82.6609 85.3615 82.5806ZM70.3431 209.151C70.3289 209.169 70.3126 209.184 70.2949 209.198C70.9603 210.141 71.5942 211.117 72.2474 212.064C71.7118 211.19 71.2083 210.309 70.7625 209.418C70.6231 209.329 70.4829 209.24 70.3431 209.151ZM33.109 172.499C35.6516 186.28 39.2852 200.78 49.4099 211.084C46.2589 206.653 43.8085 201.48 43.0956 196.062C43.066 194.608 43.5965 193.072 45.2081 192.856C45.4831 192.819 45.6921 193.065 45.7903 193.284L45.7998 193.306C46.4338 194.817 47.2581 196.254 48.2343 197.57L48.33 197.695C49.0666 198.646 52.1931 202.522 52.6293 200.669C52.31 191.302 42.6135 187.441 41.0255 174.54C38.3085 174.253 35.7302 173.222 33.109 172.499ZM53.9542 199.835C53.9647 199.982 53.9697 200.128 53.9675 200.271C54.1115 200.212 54.2596 200.164 54.411 200.127C54.2573 200.032 54.1052 199.935 53.9542 199.835ZM53.8104 198.826C53.8637 199.095 53.9087 199.367 53.9364 199.635C54.2131 199.723 54.4868 199.819 54.7591 199.919C54.5941 199.771 54.437 199.615 54.2898 199.448C54.1183 199.253 53.9574 199.044 53.8104 198.826ZM57.5577 134.888C55.5716 140.421 53.347 145.87 50.8633 151.199C49.1957 154.318 48.083 157.952 45.7753 160.659C45.7528 160.681 45.7302 160.701 45.7071 160.719L45.7453 160.721C46.4329 160.751 50.1693 161.118 48.2514 161.962C47.5067 164.891 46.5311 167.754 45.7153 170.664L45.6971 170.748C45.3986 172.156 45.0212 174.991 43.0183 174.045C42.801 174.211 42.5402 174.327 42.2596 174.405C43.1599 182.293 48.1569 187.427 52.1071 193.867C51.2241 190.468 51.4821 186.919 51.7896 183.449L51.8658 182.595C53.4979 166.685 59.4876 151.039 57.5577 134.888ZM74.1459 185.461C70.9265 181.455 55.0916 141.791 66.282 165.821C70.2592 174.186 73.5329 183.142 80.0943 189.92C80.548 190.407 79.9503 191.262 79.3607 190.869C77.2428 189.458 75.5286 187.585 74.1459 185.461ZM62.6854 137.521C62.6722 137.457 62.7547 137.421 62.791 137.476C67.0934 145.955 70.1653 155.067 75.0266 163.29C77.961 168.381 81.4822 173.127 85.5144 177.407C85.8173 177.728 85.3615 178.172 85.0334 177.887C73.5229 167.286 67.9267 151.877 62.6854 137.521ZM147.522 172.429L147.515 172.43L147.41 172.703C147.374 172.796 147.337 172.889 147.3 172.982C147.318 172.975 147.335 172.968 147.353 172.96C147.391 172.922 147.429 172.884 147.466 172.843C147.458 172.704 147.475 172.564 147.522 172.429ZM26.9607 156.761C26.3763 156.99 25.6583 157.033 25.0123 157.089C25.7355 160.49 26.3599 163.918 27.0146 167.328C27.3173 168.375 28.0288 168.743 29.0137 169.075L29.8053 169.327C33.5006 170.509 37.2167 171.723 41.0271 172.448C41.2949 172.274 41.6754 172.282 41.8533 172.561C42.0386 172.579 42.2289 172.589 42.4169 172.607C43.435 168.854 45.1771 165.217 47.5083 162.104C40.9924 162.314 34.4294 160.599 28.2307 158.681C27.9797 158.802 27.6491 158.726 27.5432 158.438L27.4477 158.411C26.4071 158.103 25.0273 157.346 27.2142 157.73C27.0821 157.423 27.0088 157.093 26.9607 156.761ZM176.788 153.984C172.469 153.271 169.168 156.764 165.482 158.368C163.275 159.313 157.394 162.244 155.256 161.269C152.325 164.085 149.85 167.376 148.119 171.068C148.591 171.04 149.063 171.019 149.535 171.004C150.389 170.73 151.302 170.716 152.189 170.98C161.077 171.078 169.971 172.802 178.824 170.617L179.028 170.579C180.846 170.234 187.055 168.924 187.408 167.641C187.315 167.082 185.646 167.672 185.325 167.736C182.774 168.237 180.181 168.476 177.596 168.728C176.877 168.797 176.886 167.681 177.596 167.61C180.708 167.301 183.656 166.134 186.512 164.921C186.816 164.787 187.62 164.509 188.176 164.148C185.538 164.595 182.819 164.673 180.149 164.578C179.23 164.459 179.165 163.066 180.149 163.093C181.952 163.292 183.673 162.404 185.145 161.467L185.465 161.259C187.917 159.663 187.746 159.594 184.647 160.187C180.092 161.015 175.483 160.985 170.884 160.669C170.228 160.658 169.775 159.776 170.318 159.304C172.435 157.478 174.706 155.851 176.788 153.984ZM155.911 160.631L155.861 160.679C155.755 160.78 155.669 160.87 155.62 160.917L155.601 160.936C155.536 160.997 155.473 161.06 155.408 161.122C155.69 161.217 156.002 161.222 156.323 161.172C156.129 161.051 155.985 160.853 155.911 160.631ZM74.7675 146.034L74.757 146.021L74.7813 146.047C77.5595 149.048 80.3756 153.914 82.6774 157.752C82.9808 160.898 76.1752 147.846 74.7675 146.034ZM144.68 157.631C144.707 157.665 144.733 157.699 144.758 157.734L144.796 157.787L144.855 157.75C144.877 157.737 144.9 157.729 144.924 157.723C144.843 157.693 144.762 157.662 144.68 157.631ZM131.969 147.387C134.469 147.778 129.357 150.879 128.682 151.323C128.25 151.487 124.142 154.872 124.392 153.773C126.315 151.309 128.968 148.436 131.969 147.387ZM34.1797 140.89C35.1043 139.403 40.1362 141.36 41.7268 141.595C42.6209 141.83 43.5053 142.109 44.409 142.307C45.1152 142.563 48.408 142.315 47.1995 143.708C45.9386 144.385 44.2923 143.862 43.0009 143.503C40.4316 142.802 37.8535 141.985 35.2225 141.596C35.1435 141.557 35.1387 141.583 35.2078 141.676C35.7738 142.931 36.964 144.109 38.3047 144.514C38.3973 144.541 38.3583 144.682 38.2646 144.658L38.1745 144.639C36.6667 144.303 33.4091 142.71 34.1797 140.89Z" fill="black"/>
<path fill-rule="evenodd" clip-rule="evenodd" d="M124.057 56.861C124.008 54.111 123.954 51.3059 123.545 48.5826C123.146 45.9202 122.047 43.5137 120.158 41.5803C116.145 37.4737 110.329 36.4706 104.916 35.5514L95.6597 33.9797C92.8359 33.5003 89.8234 32.7341 86.9704 33.4139C85.5645 33.7489 84.3706 34.5272 83.2795 35.448C82.2277 36.3356 81.0969 37.2887 80.3843 38.4828C79.6704 39.6785 79.4248 41.0764 79.1927 42.4288C78.9309 43.9536 78.7276 45.4903 78.5831 47.0307C78.2936 50.1169 78.2541 53.2262 78.4641 56.3188C78.5658 57.8188 78.7277 59.3145 78.9344 60.8035C79.0368 61.5419 79.1527 62.2785 79.2835 63.0125C79.3221 63.2289 79.3514 63.4685 79.3909 63.7106C79.0989 64.5412 78.933 65.4014 78.9464 66.2578C78.9858 68.7808 81.1147 70.3692 83.261 71.222C84.5054 71.7164 85.8064 72.0524 87.0291 72.6049C88.3154 73.1859 89.191 74.1278 90.0704 75.2023C91.7477 77.2516 93.6405 79.0935 95.8019 80.6302C100.384 83.8884 106.188 85.4294 111.748 84.2597C113.082 83.9791 114.428 83.5433 115.627 82.8867C116.893 82.1934 117.845 81.1889 118.645 80.0012C120.129 77.7963 121.194 75.3135 121.999 72.787C122.82 70.2098 123.403 67.628 123.721 64.9406C124.038 62.262 124.105 59.5562 124.057 56.861V56.861Z" fill="#D08B5B"/>
<path fill-rule="evenodd" clip-rule="evenodd" d="M94.5205 24.4C98.3508 23.873 103.637 25.5859 105.545 29.0396C114.652 26.892 126.138 26.8217 133.644 33.9708C141.477 42.4513 131.639 53.6328 125.116 56.1537C125.591 58.4625 124.85 73.2531 119.61 79.8505C115.452 85.4405 105.768 88.0203 101.287 81.3435L101.252 81.2884C100.772 80.5173 101.185 80.5421 101.678 81.1157C106.066 84.9755 112.032 85.0414 116.629 80.968C125.246 73.5227 124.357 55.2672 120.257 44.7061C108.582 43.4235 96.0823 46.963 88.0186 55.7537L88.5639 59.0372C88.6568 59.5966 88.7623 60.1556 88.8428 60.7169C88.8944 61.0766 88.9001 61.4343 88.651 61.7255C87.8284 62.6867 86.4419 61.2423 85.3012 60.6678C84.9644 60.6205 84.627 60.6022 84.2962 60.6255C78.8155 61.3316 79.8953 71.9662 85.919 70.1021C86.4251 69.7867 86.8599 69.883 87.0563 70.3406C88.4921 71.6561 89.4388 74.0023 91.8242 76.262C92.6658 77.1097 93.4318 77.8189 94.3785 78.4988C94.9346 79.0613 96.6125 79.6348 96.0806 80.5974C95.0747 82.7877 89.1432 75.9076 88.0945 74.005C84.8088 75.3028 81.1675 74.862 77.7625 74.5448C59.799 73.6106 62.1971 54.6701 76.9213 42.712C79.693 40.671 82.7509 39.006 85.9297 37.7248C86.3636 37.5499 86.174 36.8371 85.7339 37.0145C83.6306 37.8624 81.5802 38.8716 79.6257 40.0397L79.6227 39.3413C79.6199 38.1651 79.6383 36.9406 79.8426 35.866C79.9447 35.1213 80.1164 34.326 80.3807 33.7276C80.7075 31.8932 85.8271 25.5967 94.5205 24.4ZM84.0564 63.067C84.3338 62.8035 84.8516 63.1177 85.0985 63.1099C85.7299 63.1963 86.3298 63.463 86.7976 63.7923C87.1065 63.9654 87.323 64.1279 87.5039 64.2774L87.5088 64.2761C87.5075 64.2761 87.5058 64.2774 87.5043 64.2778L87.5213 64.2893C87.7847 64.4765 88.749 65.5309 88.1398 65.2473C88.0944 65.1883 88.0479 65.1316 88.001 65.076C87.9959 65.0836 87.9889 65.0911 87.9806 65.0983L88.0148 65.1491C88.5326 65.9282 87.6386 65.1074 87.5011 64.8894C87.4946 64.8947 87.4872 64.8982 87.48 64.902L87.6591 65.1201C87.6842 65.151 87.7038 65.1757 87.7202 65.1966L87.7579 65.2331C88.3566 65.8217 88.3753 66.3514 87.6798 65.4812C87.7072 65.5222 87.7291 65.5657 87.7322 65.6042L87.7734 65.6568C88.3195 66.3606 87.8753 66.1107 87.604 65.81L87.5813 65.7842L87.5859 65.7912C87.8384 66.1802 87.3375 65.9073 87.249 65.6992L87.2452 65.6898C87.1488 65.6111 87.0894 65.5227 87.0691 65.5004L87.0653 65.4967C86.5958 65.0154 85.9151 64.6083 85.337 64.4233C85.2531 64.4073 85.1683 64.3945 85.0827 64.3854C84.735 64.3079 84.3835 64.2547 84.0283 64.226C83.9849 64.2208 83.9408 64.1889 83.9079 64.1477C83.3709 64.1295 83.5366 63.9093 83.7595 63.8685L83.7634 63.8678L83.7192 63.8641C83.3745 63.8304 83.1391 63.7067 83.4876 63.6308L83.5318 63.622C83.5264 63.6135 83.5216 63.6051 83.5169 63.5966C83.2185 63.5638 83.4132 63.2736 83.5789 63.3438C83.5092 63.1159 83.8278 63.2297 83.8676 63.1958C83.8979 63.1622 83.9355 63.1324 83.9573 63.1309C84.0532 63.0631 84.0067 63.0692 84.0564 63.067ZM85.8826 59.3762L85.8127 59.417C85.7561 59.4501 85.6979 59.472 85.6395 59.4849C85.722 59.52 85.8035 59.558 85.8841 59.5985C85.8828 59.549 85.8819 59.4995 85.8819 59.4501L85.8826 59.3762Z" fill="black"/>
<path fill-rule="evenodd" clip-rule="evenodd" d="M102.292 75.275C103.288 72.9466 105.461 71.2353 107.963 70.6097C109.8 70.1514 111.729 70.1661 113.602 70.3479C114.583 70.4426 115.636 70.5201 116.561 70.8839C117.35 71.1946 117.994 71.7821 118.478 72.4716C119.054 73.2887 119.446 74.2239 119.721 75.1824C119.76 75.3187 119.797 75.456 119.831 75.594C119.711 76.3172 119.457 76.9328 118.786 77.3875C118.131 77.8315 117.35 78.0131 116.571 78.0776C116.494 78.041 116.421 78.0034 116.353 77.9648C115.139 77.2712 114.285 75.6321 112.753 75.8539C111.385 76.052 110.485 77.7692 109.672 78.7761C107.062 79.0797 104.454 78.2968 102.331 76.8072C102.223 76.2973 102.217 75.7831 102.292 75.275M121.605 73.5087C121.396 72.9238 121.133 72.3574 120.821 71.8238C119.791 70.0593 118.209 68.6533 116.331 67.8496C111.888 65.9509 106.14 67.2893 102.553 70.4032C101.327 71.4677 100.088 73.032 99.7132 74.7146C99.6013 74.7367 99.4957 74.7948 99.4087 74.8767C96.8167 73.2478 94.1474 71.6806 92.0587 69.4226C90.5418 67.782 89.4868 65.8404 88.8407 63.7069C88.7879 63.5313 88.5042 63.557 88.5128 63.7513C88.5152 63.7968 88.5177 63.8421 88.5202 63.8876C88.4931 63.804 88.3654 63.847 88.3556 63.9281C88.008 66.5199 87.5732 69.2677 87.9736 71.873C88.2131 73.4276 88.9206 74.5657 89.8663 75.7946C90.8796 77.1118 92.0267 78.337 93.1997 79.512C93.944 80.2578 94.7215 81.118 95.6328 81.6649C96.6928 82.3002 97.8952 82.7833 99.0264 83.2735C100.177 83.7737 101.345 84.2358 102.535 84.6364C104.915 85.4401 107.373 85.9956 109.875 86.2389C111.879 86.433 114.168 86.6445 116.088 85.8923C117.559 85.316 118.747 84.274 119.689 83.0204C120.714 81.6551 121.525 80.0999 121.973 78.4599C122.439 76.7564 121.703 73.7833 121.605 73.5087" fill="black"/>
<path fill-rule="evenodd" clip-rule="evenodd" d="M113.277 74.4115C112.371 74.6734 111.398 74.6968 110.475 74.4263C109.637 74.1809 108.777 73.641 108.16 72.9265C107.613 72.2917 107.258 71.5204 107.272 70.697C107.274 70.603 107.307 70.5245 107.359 70.4636C107.415 70.398 107.493 70.353 107.576 70.3334C107.662 70.3133 107.753 70.3204 107.83 70.3555C107.9 70.3872 107.96 70.4411 107.998 70.5198C108.092 70.644 108.187 70.7664 108.281 70.8854C109.043 71.8243 109.781 72.526 110.926 72.7776C111.548 72.9142 112.169 72.8536 112.738 72.6453C113.348 72.4222 113.899 72.03 114.331 71.5282C114.526 71.3014 114.756 71.2088 114.982 71.2072C115.237 71.2055 115.489 71.3239 115.679 71.5132C115.866 71.6992 115.991 71.952 116.003 72.2165C116.013 72.4486 115.937 72.6911 115.735 72.9074C115.07 73.62 114.209 74.142 113.277 74.4115ZM113.249 62.6522C114.177 63.2156 115.592 64.5295 114.593 65.9264C113.417 67.1581 111.724 65.7459 110.89 65.1072C110.116 64.6122 109.247 65.8853 109.965 66.4633C115.994 70.9189 118.441 62.7995 113.718 61.9897C113.198 61.9004 113.005 62.4779 113.249 62.6522ZM104.561 60.1728C104.262 59.9823 103.911 59.9169 103.522 60.0936C103.218 60.2316 102.685 60.6918 102.314 61.2967C102.06 61.7105 101.88 62.196 101.917 62.7017C101.926 62.8192 101.882 62.9058 101.814 62.9698C101.76 63.0204 101.681 63.0575 101.589 63.0692C101.511 63.079 101.424 63.0701 101.353 63.048C101.218 63.0059 101.147 62.9185 101.12 62.8471C100.86 62.1581 100.972 61.3893 101.263 60.6957C101.656 59.7597 102.37 58.9756 102.838 58.7228C103.638 58.2901 104.582 58.2702 105.384 58.711C106.066 59.0862 106.492 59.692 106.917 60.3095C107.007 60.4407 107.096 60.571 107.189 60.699C107.374 60.9555 107.393 61.2099 107.321 61.4281C107.242 61.6697 107.039 61.8737 106.785 61.9804C106.551 62.0791 106.279 62.093 106.038 61.9916C105.834 61.906 105.648 61.739 105.53 61.4558C105.331 60.9789 104.999 60.4526 104.561 60.1728V60.1728ZM119.721 61.234C119.516 61.3403 119.357 61.3723 119.13 61.3045C119.004 61.2669 118.88 61.1949 118.783 61.098C118.687 61.002 118.618 60.8826 118.591 60.7502C118.525 60.4234 118.345 60.1175 118.09 59.918C117.872 59.7476 117.596 59.6572 117.291 59.7082C116.961 59.7631 116.647 59.9741 116.431 60.223C116.359 60.3062 116.302 60.4008 116.245 60.4947C116.138 60.6703 116.035 60.8336 115.888 60.9625C115.832 61.0116 115.748 61.0456 115.667 61.0456C115.634 61.0456 115.6 61.0402 115.568 61.0303C115.24 60.7016 115.177 60.4522 115.188 60.2049C115.199 59.9455 115.301 59.6829 115.467 59.4379C115.855 58.8631 116.592 58.3919 117.09 58.2852C117.771 58.139 118.448 58.3145 118.991 58.6943C119.549 59.0852 119.963 59.6921 120.091 60.376C120.123 60.5407 120.109 60.7185 120.046 60.8726C119.985 61.0232 119.878 61.1523 119.721 61.234ZM106.064 54.045C105.655 54.4427 105.171 54.5043 104.681 54.559C104.409 54.5898 104.192 54.6145 103.978 54.6627C103.391 54.795 102.81 54.9944 102.28 55.2815C101.727 55.5816 101.123 55.9435 100.689 56.4072C100.586 56.5175 100.488 56.6333 100.391 56.7493C100.302 56.8551 100.217 56.957 100.126 57.0552C100.023 57.168 99.9244 57.2863 99.8265 57.4042C99.766 57.5037 99.754 57.5282 99.7418 57.5536C99.7235 57.5919 99.7022 57.6348 99.6778 57.6807C99.6444 57.7437 99.6053 57.8126 99.5644 57.875C99.4963 57.9892 99.4598 58.0207 99.4282 58.0347C99.3758 58.058 99.3261 58.0695 99.2779 58.0633C99.2327 58.0575 99.1901 58.0358 99.1481 58.0003C98.9381 57.8233 98.8762 57.5327 98.8825 57.2243C98.8922 56.7562 99.0651 56.238 99.2246 55.9194C99.5953 55.1792 100.109 54.4097 100.728 53.8573C101.433 53.2267 102.205 52.7493 103.091 52.4203C103.642 52.2158 104.28 52.0281 104.88 52.0518C105.312 52.0689 105.725 52.1971 106.065 52.5172C106.274 52.7137 106.375 52.9932 106.375 53.2725C106.375 53.5573 106.271 53.8439 106.064 54.045ZM120.553 57.6866C120.527 57.7292 120.491 57.7585 120.45 57.7761C120.408 57.7945 120.362 57.7999 120.317 57.7923C120.272 57.7848 120.229 57.7645 120.196 57.7335C120.163 57.7038 120.139 57.6645 120.128 57.6163C119.856 56.4261 119.329 55.5405 118.204 54.9695C117.65 54.6886 117.014 54.5101 116.411 54.3678C116.236 54.3264 116.051 54.2996 115.865 54.2725C115.281 54.1874 114.693 54.0899 114.312 53.6188C114.083 53.335 113.986 52.9721 114.041 52.6401C114.092 52.3276 114.275 52.0411 114.608 51.8693C115.436 51.442 116.465 51.8613 117.301 52.2185C117.363 52.245 117.424 52.271 117.483 52.2961C118.301 52.6407 119.047 53.0954 119.66 53.7457C120.146 54.2617 120.597 55.0244 120.778 55.8091C120.929 56.4618 120.894 57.1282 120.553 57.6866Z" fill="black"/>
</g>
<defs>
<filter id="filter0_d_10_358" x="0.118744" y="-4" width="218.311" height="420" filterUnits="userSpaceOnUse" color-interpolation-filters="sRGB">
<feFlood flood-opacity="0" result="BackgroundImageFix"/>
<feColorMatrix in="SourceAlpha" type="matrix" values="0 0 0 0 0 0 0 0 0 0 0 0 0 0 0 0 0 0 127 0" result="hardAlpha"/>
<feOffset dy="4"/>
<feGaussianBlur stdDeviation="4"/>
<feComposite in2="hardAlpha" operator="out"/>
<feColorMatrix type="matrix" values="0 0 0 0 0 0 0 0 0 0 0 0 0 0 0 0 0 0 0.25 0"/>
<feBlend mode="normal" in2="BackgroundImageFix" result="effect1_dropShadow_10_358"/>
<feBlend mode="normal" in="SourceGraphic" in2="effect1_dropShadow_10_358" result="shape"/>
</filter>
</defs>
</svg>
