<svg width="224" height="440" viewBox="0 0 224 400" fill="none" xmlns="http://www.w3.org/2000/svg">
<g filter="url(#filter0_d_19_246)">
<path fill-rule="evenodd" clip-rule="evenodd" d="M156.462 394.883C156.758 393.688 156.275 392.137 155.997 390.583C155.565 388.168 154.543 384.667 152.597 383.572C152.252 382.661 140.587 375.315 135.592 371.647C133.027 369.763 133.016 366.256 132.496 366.297C131.507 363.869 131.38 361.472 130.773 358.661C133.029 358.365 136.883 358.897 138.661 357.615C138.98 357.636 138.975 354.162 139.022 353.671C137.682 350.048 134.389 261.406 137.682 219.184C138.031 214.484 138.939 209.226 138.042 204.378C139.511 204.056 140.392 202.536 140.397 202.475C143.912 195.588 138.521 172.172 135.142 165.688C137.825 165.619 141.359 165.254 143.02 163.018C143.807 162.76 144.302 162.31 144.684 161.587C145.124 160.898 145.531 160.175 145.899 159.434C147.686 155.727 148.789 151.611 148.193 147.526C148.307 147.49 148.892 147.487 148.921 147.323C148.979 146.319 148.794 145.434 148.492 144.486C145.422 133.804 141.726 123.288 136.841 113.231C134.393 107.849 129.329 105.884 124.081 103.864C121.557 102.874 119.031 101.731 116.396 101.083C116.363 100.899 116.52 100.339 116.175 100.384C115.749 100.473 115.833 101.158 115.675 101.542C109.582 96.5635 113.446 93.9983 109.772 91.2719C105.971 89.3024 103.718 89.2224 99.5269 89.6487C97.9808 89.6933 96.7436 90.389 96.379 91.9425C95.0499 95.1568 91.9357 97.5226 88.5383 98.2478C88.2576 97.749 87.4857 96.3184 87.0534 96.77C82.1467 96.9372 72.6648 100.806 68.0722 102.151C63.4619 103.327 63.5203 104.579 62.3141 109.579C60.1255 118.49 60.5356 151.955 66.2469 159.008C66.2469 159.008 69.3527 161.078 70.9122 161.587C70.8772 164.883 71.4303 169.795 70.9122 173.019C69.7458 178.867 68.324 184.739 67.0246 190.617C67.0189 191.272 61.8191 200.981 64.2564 199.183C64.7594 199.43 65.6438 200.468 66.1856 200.698C63.5961 206.589 64.0728 213.82 64.2564 221.097C64.3023 225.43 63.2879 230.179 62.3141 234.617C55.1091 272.219 50.2218 314.914 47.5464 352.579C47.4374 354.122 47.3658 355.299 47.3141 356.395C47.2609 356.771 47.7694 356.764 47.9581 356.573L48.2185 356.32C48.5085 356.403 48.9721 356.529 49.266 356.609C49.3033 357.842 49.181 359.123 49.0316 360.247C48.8943 361.322 47.1447 366.016 47.5464 367.065C46.2127 366.994 43.7089 369.179 42.5144 371.543C41.9018 372.09 42.1286 373.058 41.6792 373.899C40.7695 374.774 31.2723 380.282 31.2723 380.282C28.946 382.14 22.4549 387.596 23.0655 389.093C23.0655 389.093 22.9968 389.561 22.9738 389.717C21.6893 397.177 23.8281 396.865 30.7481 397.962C40.8568 399.742 50.4179 394.344 58.9611 389.769C61.8 387.858 64.5654 388.365 64.2564 386.057C63.6961 383.207 63.5965 373.006 60.3561 373.236C60.889 372.652 60.7554 367.298 60.3561 366.297C60.1024 363.72 62.4387 361.314 62.3141 358.661C63.6715 358.761 66.4445 359.397 67.0246 357.886C66.9986 357.733 66.3576 357.736 66.2469 357.7L66.2585 357.615L66.1856 357.597C71.8368 337.715 85.6036 246.41 100.552 239.402C100.644 240.151 102.289 239.263 103.285 239.402C107.908 275.408 113.202 309.346 116.026 347.857C116.308 349 116.961 356.966 117.237 358.287C117.237 358.287 118.103 359.001 118.613 359.142C118.767 363.206 118.244 371.685 118.227 371.694L117.956 372.354C116.382 375.898 115.209 380.641 117.237 384.114C115.732 384.005 115.074 385.286 115.007 386.616C114.12 392.451 137.573 397.629 143.02 397.962C144.81 398.274 157.568 396.003 156.462 394.883Z" fill="#FFDBB4"/>
<path d="M66.0742 200.439L67.0227 200.812C88.3736 209.2 112.844 210.974 136.756 206.29L137.48 206.146L138.714 205.897L138.529 207.993C136.082 235.845 134.692 259.423 134.354 281.989C133.958 308.343 135.042 332.736 137.835 356.058L137.92 356.765L138.007 357.484L137.332 357.75C135.622 358.425 133.83 358.802 131.319 359.105L130.842 359.161C127.397 359.565 123.743 359.681 119.681 359.561L119.442 359.553L119.112 359.542L119.1 359.564L118.639 359.525L118.36 359.515L118.354 359.501L118.158 359.486L118.089 359.481L117.997 359.476L116.74 359.423L117.111 358.254C117.374 357.422 117.435 356.518 117.303 355.57L117.284 355.44L117.281 355.402C117.089 352.65 104.399 251.882 104.399 251.882C104.169 250.119 102.093 240.519 101.14 239.217L101.106 239.171L101.105 239.171L101.086 239.166C101.041 239.156 100.965 239.154 100.86 239.17C100.555 239.214 100.135 239.382 99.6522 239.654C98.9055 240.074 98.0309 240.745 97.5725 241.186L97.5193 241.237L97.4525 241.333C95.1963 244.563 93.2735 248.206 91.5164 252.449L91.4287 252.661L91.3427 252.871C89.962 256.257 85.591 270.129 85.591 270.129C84.7364 272.935 67.3311 345.064 67.3311 345.064C66.5297 348.753 65.9071 351.597 65.3041 354.319L65.0123 355.633L64.2348 359.111L63.1449 359.06C62.1679 359.011 61.2181 358.947 59.8981 358.843L59.3569 358.799L57.1437 358.618C53.5447 358.327 51.6954 358.231 49.5618 358.267L49.4222 358.269L48.2997 358.294L48.3145 357.341L47.9863 357.25L47.8614 357.17L47.2775 356.894L47.3239 356.253C50.3443 314.553 55.4886 273.979 62.8501 234.564L63.0645 233.42L63.0802 233.22C63.2605 230.882 63.5913 214.997 63.814 212.323L63.8397 212.021C64.1733 208.185 64.7656 204.798 65.7247 201.59L65.7784 201.412L66.0742 200.439Z" fill="#BA98DE"/>
<path fill-rule="evenodd" clip-rule="evenodd" d="M118.27 373.346C117.807 375.072 118.647 375.935 120.789 375.935C124.003 375.935 126.039 371.006 127.628 370.441L134.087 367.016C135.016 366.676 136.196 371.293 140.607 374.4C145.518 377.859 152.017 382.365 152.292 383.091C155.489 384.89 156.603 387.326 155.846 390.38C156.952 391.5 158.991 395.355 156.913 395.743C155.309 396.124 146.974 398.77 145.185 398.458C139.738 398.124 115.363 391.099 114.505 388.495L114.511 388.371C114.56 386.994 114.376 384.276 115.837 384.382C113.849 380.978 116.013 377.405 117.582 373.927L117.678 373.714L117.725 373.823C117.743 373.814 118.093 373.464 118.112 373.495C118.134 373.465 118.185 373.411 118.252 373.346L118.27 373.346ZM51.1885 370.159L51.2104 370.233C51.5809 371.509 52.5945 375.935 53.7905 375.935C54.6041 375.935 56.611 377.434 57.8049 376.427L57.9428 376.301C58.9912 375.341 59.8375 374.695 60.4817 374.361C61.8849 374.431 62.3553 374.976 61.8929 375.997L61.9322 376.284C62.263 378.662 61.9793 380.858 62.0141 381.112C62.5284 382.804 64.6052 385.242 63.8722 386.664C62.7333 388.874 58.1807 389.83 56.4534 390.993C47.9102 395.568 40.3553 398.993 30.2466 397.213L29.6367 397.117C23.2014 396.112 21.2264 395.954 22.4723 388.718L22.4809 388.651C22.509 388.418 22.5641 387.843 22.5641 387.843C22.2909 387.173 24.2781 384.202 27.6092 381.736C31.7232 378.69 40.686 373.083 41.1887 372.6C41.638 371.758 43.0077 370.562 43.6204 370.014C44.8149 367.651 44.3018 366.696 45.4357 366.427C47.3479 366.739 50.8484 369.027 51.1885 370.159Z" fill="white"/>
<path fill-rule="evenodd" clip-rule="evenodd" d="M154.317 395.365C151.361 396.042 148.476 397.16 145.557 397.821C136.049 397.122 126.715 393.929 118.375 389.987C115.957 388.931 114.539 387.057 115.62 384.652C119.158 389.017 132.254 392.053 138.249 393.934C141.978 394.751 146.211 396.597 149.977 394.874C152.362 394.467 155.078 393.324 155.996 391.18C156.06 392.094 155.966 393.003 155.886 393.914C155.98 395.032 155.433 395.184 154.317 395.365V395.365ZM119.009 358.584C118.931 358.398 118.683 358.394 118.589 358.563C118.408 358.548 118.215 358.53 118.023 358.522C118.352 357.483 118.398 356.396 118.235 355.322C118.028 352.363 117.792 349.406 117.541 346.45C114.959 318.125 111.985 289.715 106.914 261.701C106.975 261.658 107.015 261.592 107.004 261.507C106.75 259.522 106.213 257.587 105.838 255.622C105.459 253.64 105.14 251.648 104.791 249.662C104.687 249.068 104.581 248.475 104.47 247.882C104.55 246.441 104.201 244.925 104.017 243.529C103.888 242.549 103.701 241.546 103.445 240.567C103.553 240.237 103.496 239.846 103.231 239.597C103.227 239.594 103.223 239.591 103.22 239.588C103.24 239.522 103.261 239.46 103.285 239.402C103.467 238.952 103.862 238.75 104.148 238.43C104.968 238.282 105.808 238.241 106.635 238.372C106.759 238.395 106.85 238.225 106.726 238.158C103.401 236.217 99.2622 238.088 96.8102 240.62C89.2746 251.309 86.549 264.882 82.3851 277.146C74.8475 303.823 69.5602 331.111 63.505 358.122C58.7154 357.9 53.9368 357.202 49.1367 357.322C48.9564 356.916 48.6465 356.481 48.2774 356.306C51.2598 315.13 56.3841 274.107 64.0136 233.529C64.8603 222.9 63.5356 212.063 66.6938 201.67C89.108 210.476 114.171 211.787 137.682 207.051C133.286 256.818 130.964 307.106 137.002 356.863C135.072 357.625 132.999 357.952 130.947 358.191C127 358.667 122.977 358.727 119.009 358.584V358.584ZM59.3709 370.314C59.0159 371.002 59.3925 371.719 60.1365 371.914C57.9108 372.5 57.4979 374.864 55.7435 375.942C55.5791 375.631 55.1143 375.579 54.8034 375.489C53.8661 372.01 52.7842 367.917 48.3932 366.637C48.6726 366.281 48.634 365.86 48.6209 365.438C48.9472 363.783 50.1219 360.087 49.3942 358.188C53.4287 359.106 57.5701 359.482 61.6609 360.076C60.8286 363.097 60.1233 367.659 59.3709 370.314V370.314ZM62.1772 385.027C62.3091 384.992 62.441 384.955 62.5704 384.916C63.2141 387.734 58.852 388.654 56.7006 389.654C53.4581 390.995 50.2196 392.341 46.9887 393.698C40.4468 396.974 34.3026 397.896 27.0301 395.561C22.4021 394.676 23.2825 393.793 22.6041 390.229C27.2444 396.459 36.7501 393.785 42.651 391.092C48.0143 389.042 53.4165 387.073 58.965 385.348C60.0735 385.625 61.1299 385.336 62.1772 385.027V385.027ZM109.289 157.301C106.495 158.056 103.662 158.448 100.821 159.008C101.069 157.187 101.433 155.368 101.439 153.524C103.926 155.038 106.568 156.276 109.289 157.301V157.301ZM82.9248 138.889C88.8963 137.647 95.2189 138.1 100.861 140.461C102.798 141.104 105.416 142.78 107.427 142.004C105.935 146.731 107.815 151.601 109.758 155.903C105.297 154.418 101.369 151.806 97.3064 149.515C98.8273 147.517 84.9954 145.095 83.4939 145.148C83.0678 143.081 82.5599 141.032 82.1147 138.968C82.3631 139.061 82.6715 138.937 82.9248 138.889V138.889ZM113.781 141.125C113.813 141.148 113.837 141.179 113.848 141.219C119.692 142.027 125.562 144.682 131.563 143.912C135.618 143.39 133.751 145.704 131.05 145.617C124.958 146.226 119.309 142.631 113.64 141.406L113.781 141.125ZM116.971 102.055C116.957 102.119 116.942 102.183 116.929 102.247C116.869 102.247 116.809 102.241 116.746 102.224C116.707 102.186 116.67 102.147 116.632 102.109C116.743 102.078 116.858 102.058 116.971 102.055V102.055ZM158.167 394.172C158.083 392.761 157.34 391.347 156.278 390.397C156.987 387.5 155.567 383.809 152.537 382.563C151.713 381.214 149.924 380.622 148.632 379.66C149.716 379.594 150.71 378.823 149.877 377.994C148.117 378.527 146.413 379.247 144.737 379.968C144.284 380.063 143.208 380.959 143.123 380.16C143.442 379.523 145.901 378.881 146.703 378.439C146.108 378.064 145.513 377.688 144.921 377.31C145.973 377.285 147.325 376.497 146.294 375.602C143.517 376.219 140.63 376.762 138.183 378.166C136.164 377.666 142.041 375.87 142.584 375.785C141.662 375.158 140.77 374.503 139.931 373.796C140.851 373.779 142.768 372.856 141.542 372.031C139.998 371.635 137.853 372.906 136.321 373.313C136.32 373.312 136.32 373.313 136.32 373.313C135.165 373.74 134.021 374.201 132.888 374.678C132.43 374.871 132.236 374.24 132.687 374.049C134.448 373.309 136.231 372.609 138.052 372.005C137.556 371.465 137.088 370.903 136.619 370.338C136.744 369.454 135.829 368.677 135.49 367.877C135.562 367.468 135.356 366.825 134.869 366.74C134.482 366.366 133.899 366.342 133.359 366.427C132.504 364.785 131.766 362.229 131.494 360.192C133.761 359.89 136.39 359.881 138.349 358.633C138.932 358.596 139.513 358.174 139.529 357.473C139.587 354.944 139.336 352.452 139.111 349.935C138.886 347.421 138.675 344.906 138.477 342.39C135.133 302.031 135.736 261.46 138.916 221.112C139.255 216.382 139.426 211.543 138.639 206.846C139.616 206.545 143.268 205.917 142.986 204.596C146.155 196.541 141.468 175.908 138.022 167.801C140.587 167.651 143.665 167.102 145.35 164.991C146.972 164.42 147.541 162.522 148.349 161.154C150.088 157.509 151.215 153.407 150.775 149.349C152.571 148.874 150.344 143.949 150.146 142.623C147.168 132.818 143.756 123.067 139.285 113.833C137.689 110.457 134.891 107.79 131.467 106.3C127.351 104.508 123.215 102.655 118.91 101.344C118.936 100.612 118.169 100.325 117.646 100.59C117.613 100.579 117.579 100.568 117.545 100.56C117.016 100.435 116.215 100.641 115.789 101.082C114.394 99.0421 114.032 96.4606 113.518 94.0639C111.442 96.2305 113.359 103.484 116.59 104.108C114.485 119.265 96.8376 115.669 91.4673 104.625C90.3021 102.491 89.5164 100.393 88.3539 98.2214C91.7081 98.9071 95.1386 97.0588 96.3547 93.8472C96.6042 93.3269 96.82 93.0365 97.2802 92.7112C97.8455 92.3107 97.7013 91.292 96.9026 91.3183C93.7527 92.0237 95.8216 97.03 88.1596 97.9073C87.8824 97.4793 87.5552 97.0738 87.2104 96.8648C87.0647 96.7047 86.6046 96.6598 86.3564 96.8435C80.5913 97.1897 74.9678 98.6444 69.4385 100.211C64.6895 101.376 59.7099 103.909 58.5339 109.067C56.2833 117.269 59.8734 158.032 66.0706 163.072C67.0925 164.06 68.3188 164.739 69.6466 165.217C68.3757 174.281 66.3946 183.289 64.7081 192.297C64.582 193.851 61.8802 202.472 65.3096 201.053C65.4026 201.098 65.4969 201.142 65.5908 201.185C65.3882 201.597 65.1975 202.014 65.013 202.437C64.4208 203.792 63.9495 205.162 63.7334 206.63C63.5085 208.157 63.4642 209.699 63.3961 211.239C63.3707 211.811 63.3499 212.373 63.3428 212.932C62.6804 218.334 62.6938 223.849 62.6403 229.276C59.6441 249.795 55.3424 270.16 52.8972 290.787C49.9232 312.824 47.5639 334.952 46.1921 357.148C46.1452 358.166 47.3275 358.367 47.9023 357.802C47.9847 357.826 48.0674 357.848 48.1501 357.871C48.1515 358.761 48.0749 359.654 47.9714 360.538C47.7748 361.827 46.296 365.071 46.6684 366.24C45.3223 366.054 43.1552 366.327 42.7645 367.428C41.2235 369.386 41.3221 372.055 39.4927 373.831C41.2535 374.215 43.0025 374.731 44.7102 375.272C45.0631 375.461 44.8495 375.976 44.4031 375.843C43.455 375.56 42.5043 375.269 41.5484 375.005V375.004C40.624 374.748 39.6957 374.518 38.7553 374.343C38.7228 374.369 38.734 374.426 38.7749 374.449C38.1019 374.97 37.338 375.423 36.5718 375.857C37.0658 375.965 43.6294 377.718 41.6656 378.268C39.7615 377.48 37.7771 376.727 35.7185 376.337C34.8278 376.84 33.9564 377.365 33.0768 377.881C33.5013 377.971 40.577 379.504 38.1248 379.948C36.2228 379.257 34.2514 378.794 32.2648 378.361C29.8291 379.806 27.3895 381.247 24.9856 382.732C23.9803 383.349 22.8873 383.945 22.2417 384.874C21.3841 386.109 21.3739 387.652 21.9634 389.065C20.2427 396.457 23.2791 396.743 30.3566 398.295C40.3891 400.857 49.0899 394.712 57.8083 391.373C59.6294 390.522 61.6423 389.882 63.2745 388.76C64.8157 387.665 65.8315 385.365 64.4201 383.787C65.3956 381.967 64.0928 377.505 63.7815 375.372C63.5246 374.027 63.3517 371.857 61.3489 371.788C61.8844 371.44 61.8674 370.788 61.6892 370.263C61.4548 367.68 62.2593 363.092 62.4527 360.175C63.9835 360.285 66.2537 360.732 67.0481 359.04C67.355 358.551 66.959 358.026 66.4573 357.959C66.4576 357.958 66.4577 357.958 66.458 357.957C66.5652 357.965 66.5348 357.953 66.4634 357.936C74.5791 324.504 79.8135 290.252 91.525 257.788C94.206 251.517 95.4003 243.43 101.391 239.382C101.473 239.888 101.559 240.471 101.877 240.835C101.895 240.901 101.913 240.966 101.929 241.031C102.139 241.847 102.374 242.654 102.582 243.469C107.269 279.466 112.681 315.387 115.281 351.625C115.675 353.303 115.034 359.277 117.388 359.009C117.68 359.172 118.06 359.251 118.376 359.329C117.889 361.482 118.025 364.735 118.04 366.699C118.006 368.661 117.682 370.693 117.901 372.636C118.153 373.913 120.546 373.144 120.155 371.86C120.1 368.178 119.877 363.636 119.243 359.549C122.912 360.263 126.671 360.436 130.407 360.265C130.206 362.423 130.847 365.123 131.593 366.893C129.356 367.642 127.19 368.651 125.461 370.173C123.824 371.657 122.32 375.06 119.434 373.936C118.634 373.581 117.758 372.965 117.482 372.171C117.215 371.972 117.355 372.45 117.407 372.564L117.298 372.602C116.634 372.179 115.415 376.562 115.313 377.109C114.803 379.455 114.213 382.128 115.419 384.322C112.826 385.396 113.105 388.891 115.028 390.355C122.662 395.289 135.39 399.316 144.864 399.992C146.541 400.108 148.305 399.618 149.9 399.091C151.775 398.591 153.655 398.056 155.508 397.469C157.141 397.095 158.369 395.698 158.167 394.172V394.172Z" fill="black"/>
<path fill-rule="evenodd" clip-rule="evenodd" d="M138.145 108.603C137.055 104.371 136.053 102.577 134.116 101.107C132.305 99.7311 129.661 98.5757 125.802 97.7318C121.784 97.0287 121.67 94.9385 120.663 91.5792C120.369 90.5693 118.912 90.3006 118.283 91.0285C118.195 90.9328 118.102 90.8451 118.007 90.7659C118.092 90.2843 117.392 88.9038 117.415 88.4431C117.659 83.6343 116.088 81.2195 112.165 80.3218C111.312 80.1265 105.517 80.0115 104.685 80.2417C101.049 81.2479 97.4689 84.4425 98.0167 88.2909C96.8752 89.7838 95.7581 90.695 93.997 91.176C91.2545 91.5245 92.6321 130.408 97.3952 153.703C99.4389 163.698 148.304 146.686 146.096 141.68C146.409 140.763 145.839 139.754 146.096 138.807C146.283 138.121 146.76 137.837 147 137.158C147.338 136.203 146.971 134.921 146.59 133.946C146.434 133.46 146.877 132.937 147 132.441C147.584 130.102 146.247 130.308 145.283 128.745C145.297 128.74 145.548 127.624 145.547 127.629C145.694 126.832 145.325 125.811 145.002 125.146C144.784 124.697 144.317 124.415 143.853 124.467C144.32 122.879 144.911 121.558 145.547 120.029C146.671 117.333 147.74 114.512 149.353 112.072C150.014 111.073 149.48 110.154 148.411 110.086C144.949 109.866 141.526 109.367 138.145 108.603Z" fill="#FFDBB4"/>
<path fill-rule="evenodd" clip-rule="evenodd" d="M132.741 108.93L124.84 122.313C124.84 122.313 126.714 122.501 127.473 122.865C128.231 123.23 131.715 127.662 131.715 127.662L132.268 130.102L130.957 132.07L131.468 133.305C131.468 133.305 131.833 132.468 132.741 131.818C133.65 131.169 135.653 130.102 135.653 130.102C135.653 130.102 134.987 129.746 134.987 129.327C134.987 128.909 134.401 127.123 135.653 126.449C136.906 125.774 143.376 124.196 143.376 124.196L149.934 110.351L132.741 108.93Z" fill="#EC7495"/>
<path fill-rule="evenodd" clip-rule="evenodd" d="M97.4919 91.2668L122.582 95.674L134.116 101.107L135.999 102.558L124.84 122.313L107.609 125.46L103.219 136.872L104.115 149.735L132.146 146.391L144.237 144.953L147.08 156.437L146.566 161.162L145.819 163.557L115.844 171.657C115.844 171.657 100.58 170.176 97.8747 170.176C95.169 170.176 75.3308 172.148 75.3308 172.148L70.7408 171.657C70.7408 171.657 60.5854 160.944 59.0103 157.132C57.4352 153.319 54.0292 130.144 54.0292 130.144L54.4042 126.583L63.1783 103.985C63.1783 103.985 64.3499 102.92 65.8271 101.107C67.3042 99.2937 97.4919 91.2668 97.4919 91.2668Z" fill="#9DDADB"/>
<path fill-rule="evenodd" clip-rule="evenodd" d="M142.903 123.911C140.636 124.026 138.366 124.565 136.315 125.543C135.475 125.944 134.715 126.522 134.492 127.473C134.38 127.959 134.407 128.461 134.467 128.952C134.512 129.324 134.524 129.798 134.846 130.05C134.901 130.092 134.96 130.125 135.021 130.149C134.265 130.49 133.544 130.901 132.904 131.324C132.319 131.711 131.717 132.307 131.447 132.979C131.424 132.903 131.402 132.832 131.379 132.764C130.919 131.402 130.21 130.287 129.093 129.537C128.966 129.074 127.605 127.083 126.341 127.158C124.956 127.239 123.843 127.341 122.591 127.978C122.134 127.968 121.679 127.974 121.229 127.994C121.151 127.997 121.155 128.102 121.229 128.111C121.594 128.157 121.959 128.208 122.324 128.268C123.192 128.407 124.058 128.584 124.904 128.803C125.92 129.066 126.971 129.33 127.92 129.789C129.761 130.682 130.9 133.016 130.666 135.046C130.628 135.379 130.499 136.386 130.037 136.282C129.647 136.194 129.492 135.379 129.356 135.077C128.991 134.276 128.333 133.753 127.544 133.399C126.617 132.982 125.625 132.7 124.664 132.372C124.12 132.186 123.576 131.999 123.031 131.814C122.473 131.622 121.943 131.358 121.349 131.492C120.99 131.573 120.949 132.002 121.15 132.247C121.456 132.621 121.912 132.731 122.353 132.885C122.936 133.088 123.518 133.291 124.099 133.494C124.998 133.807 125.94 134.071 126.817 134.454L126.789 134.517C126.718 134.497 126.634 134.568 126.648 134.655C126.779 135.465 126.962 136.402 126.759 137.213C126.599 137.857 126.035 138.569 125.302 138.38C125.417 138.275 125.46 138.093 125.382 137.925C125.092 137.304 121.29 134.853 120.951 135.764C120.94 135.796 120.975 135.82 121.002 135.815C121.291 135.755 121.775 136.248 122.007 136.404C122.341 136.63 122.679 136.85 123.01 137.082C123.371 137.335 123.724 137.6 124.068 137.874C124.338 138.09 124.542 138.313 124.852 138.423C124.689 138.5 124.561 138.644 124.506 138.828C124.366 139.307 124.095 139.714 123.626 139.926C123.135 140.146 122.581 140.007 122.063 140.061C121.358 140.132 120.742 140.468 120.228 140.948C119.149 141.956 118.607 143.734 117.098 144.211C116.196 144.495 115.196 144.316 114.283 144.187C113.263 144.043 112.27 143.929 111.243 144.08C110.26 144.224 109.331 144.564 108.433 144.98C107.591 145.369 106.661 145.81 105.914 146.391C105.76 145.916 105.605 145.447 105.488 144.962C105.21 143.817 105.06 142.65 105.024 141.473C104.99 140.353 105.052 139.227 105.149 138.112C105.196 137.555 105.271 137 105.319 136.443C105.331 136.303 105.356 136.153 105.375 136.003C106.708 135.215 108.109 134.612 109.521 133.991C109.525 133.99 109.529 133.987 109.532 133.986C109.576 133.966 109.619 133.947 109.662 133.928C109.661 133.926 109.66 133.923 109.657 133.921C109.819 133.822 109.931 133.69 109.999 133.543C112.034 132.192 113.735 130.348 115.003 128.197C115.534 127.296 116.046 126.361 116.741 125.571C117.482 124.728 118.361 124.227 119.449 123.967C120.721 123.662 122.032 123.479 123.335 123.375C124.047 123.319 124.842 123.231 125.617 123.235C126.158 123.238 126.687 123.285 127.172 123.419C127.891 123.616 128.311 124.164 128.763 124.717C129.194 125.248 129.623 125.78 130.026 126.333C130.407 126.858 130.768 127.4 131.08 127.968C131.268 128.308 131.442 128.659 131.588 129.021C131.64 129.149 131.707 129.294 131.738 129.426C131.77 129.56 131.712 129.702 131.862 129.702C131.243 129.711 130.832 131.256 131.447 131.219C132.312 131.169 132.747 130.131 132.578 129.21C132.275 127.566 130.642 125.582 130.319 125.161C129.605 124.232 128.868 123.021 127.725 122.589C127.709 122.582 127.691 122.576 127.675 122.571C128.008 122.256 128.27 121.878 128.522 121.493C128.78 121.098 129.089 120.644 129.174 120.175C129.228 119.876 128.857 119.706 128.68 119.967C128.424 120.349 128.3 120.832 128.109 121.252C127.914 121.677 127.676 122.079 127.488 122.509C127.037 122.37 126.549 122.306 126.053 122.285C126.679 121.436 127.75 119.798 127.879 119.588C128.472 118.614 129.036 117.61 129.575 116.605C130.157 115.516 130.656 114.381 131.214 113.28C131.531 112.655 131.85 112.025 132.201 111.419C132.322 111.212 132.452 111.004 132.6 110.815C132.629 110.777 132.665 110.746 132.699 110.711C132.738 110.69 132.778 110.666 132.8 110.653C133.003 110.537 133.074 110.267 133.217 110.095C133.444 109.818 133.712 109.786 134.055 109.782C134.785 109.774 135.518 109.803 136.247 109.823C137.319 109.853 138.389 109.896 139.46 109.952C139.784 109.97 140.107 109.987 140.431 110.007C141.988 110.1 143.544 110.221 145.096 110.37C146.469 110.502 147.842 110.716 149.217 110.819C147.356 115.244 145.292 119.589 142.956 123.783C142.932 123.825 142.914 123.868 142.903 123.911ZM132.577 135.311C132.277 135.449 131.986 135.621 131.715 135.816C131.76 135.512 131.771 135.191 131.758 134.87C131.982 135.11 132.269 135.248 132.577 135.311ZM145.391 127.699C145.37 127.701 145.35 127.713 145.34 127.734C144.924 128.591 145.098 129.549 145.776 130.221C146.131 130.572 146.905 130.967 146.88 131.543C146.859 132.009 146.353 132.4 146.136 132.784C145.935 133.142 145.86 133.535 146.021 133.923C146.227 134.42 146.804 134.618 147.002 135.106C147.252 135.726 146.845 136.473 146.56 137.013C146.295 137.512 145.952 138.012 145.725 138.54C144.2 139.33 140.741 140.765 140.324 140.845C139.816 140.944 139.307 141.038 138.797 141.125C137.818 141.295 136.836 141.453 135.852 141.592C135.291 141.671 134.73 141.749 134.168 141.81C133.678 141.863 133.125 141.934 132.73 141.565C131.933 140.818 132.38 139.568 132.884 138.814C132.894 138.799 132.894 138.785 132.89 138.773C133.365 138.661 133.839 138.531 134.312 138.44C135.221 138.265 136.137 138.117 137.054 137.986C138.937 137.716 140.833 137.539 142.727 137.36C143.196 137.314 143.201 136.576 142.727 136.62C140.006 136.869 137.273 137.105 134.589 137.63C133.916 137.76 133.248 137.908 132.584 138.074C132.27 138.152 131.933 138.274 131.604 138.277C131.584 138.277 131.564 138.277 131.544 138.276C130.9 138.256 130.807 137.704 131.16 137.244C131.204 137.188 131.249 137.132 131.296 137.078C131.921 136.332 132.7 135.834 133.503 135.318C134.402 135.195 135.299 134.922 136.179 134.722C138.353 134.226 140.527 133.73 142.702 133.236C143.128 133.138 142.947 132.482 142.52 132.579C140.87 132.953 139.219 133.327 137.568 133.702L135.151 134.25C134.669 134.359 134.066 134.578 133.498 134.657C133.218 134.696 132.946 134.701 132.701 134.643C131.91 134.455 131.87 133.465 132.211 132.877C132.594 132.216 133.317 131.802 133.958 131.428C135.07 130.778 136.253 130.311 137.409 129.773C137.614 129.728 137.819 129.683 138.024 129.638C139.217 129.375 140.581 129.246 141.704 128.764C142.04 128.621 141.856 128.091 141.524 128.098C140.652 128.117 139.74 128.427 138.888 128.611C137.967 128.812 137.044 129.011 136.122 129.21C136.029 129.23 135.482 129.405 135.399 129.366C135.347 129.341 135.328 129.159 135.31 129.038C135.254 128.643 135.213 128.227 135.274 127.83C135.409 126.94 136.151 126.522 136.901 126.18C138.572 125.42 140.404 124.945 142.228 124.754C142.648 124.711 143.068 124.683 143.491 124.669C143.987 124.654 144.396 124.567 144.648 125.056C145.043 125.827 145.261 126.819 145.391 127.699ZM143.07 155.659C142.706 154.398 142.805 153.053 142.556 151.767C142.427 151.104 142.251 150.446 142.06 149.798C141.905 149.275 141.646 148.719 141.617 148.173C141.615 148.137 141.658 148.116 141.688 148.133C142.202 148.427 142.596 149.064 142.889 149.563C143.24 150.161 143.507 150.787 143.723 151.445C144.154 152.756 144.507 154.338 143.952 155.659C143.787 156.052 143.207 156.131 143.07 155.659ZM128.861 165.2C128.319 164.821 127.924 164.291 127.463 163.824C127.011 163.364 127.718 162.656 128.171 163.116C128.564 163.515 128.904 164.013 129.366 164.335C129.589 164.49 129.692 164.771 129.546 165.021C129.417 165.241 129.083 165.355 128.861 165.2ZM125.836 150.635C126.826 150.206 127.8 149.74 128.837 149.431C129.456 149.246 129.719 150.213 129.103 150.396C128.148 150.681 127.253 151.105 126.341 151.5C125.755 151.753 125.246 150.89 125.836 150.635ZM115.376 150.335C115.134 149.737 116.102 149.479 116.341 150.069C116.616 150.748 116.931 151.409 117.206 152.088C117.448 152.686 116.479 152.944 116.241 152.354C115.966 151.675 115.651 151.014 115.376 150.335ZM105.053 162.28C104.891 162.496 104.622 162.612 104.368 162.46C104.155 162.332 104.025 161.993 104.189 161.775C104.665 161.139 105.149 160.51 105.708 159.943C106.161 159.483 106.868 160.192 106.415 160.651C105.916 161.158 105.479 161.712 105.053 162.28ZM103.576 95.2559C104.036 95.5699 104.438 95.9513 104.83 96.3438C105.286 96.8001 104.579 97.5081 104.123 97.0518C103.792 96.7211 103.459 96.3853 103.071 96.1207C102.848 95.9677 102.747 95.6831 102.892 95.4355C103.022 95.2137 103.353 95.1034 103.576 95.2559ZM118.596 111.372C118.336 111.893 118.103 112.403 118.088 112.994C118.072 113.639 117.072 113.639 117.087 112.994C117.107 112.22 117.392 111.549 117.732 110.867C118.02 110.289 118.883 110.797 118.596 111.372ZM124.107 98.4286C124.645 98.0697 125.145 98.9377 124.612 99.2934C124.18 99.5817 123.747 99.8703 123.315 100.159C122.777 100.518 122.277 99.6497 122.81 99.2939C123.242 99.0055 123.674 98.7171 124.107 98.4286ZM100.204 121.059C100.112 121.696 99.1484 121.423 99.2394 120.793C99.3801 119.819 99.5518 118.858 99.8158 117.909C99.9886 117.288 100.954 117.553 100.781 118.175C100.517 119.124 100.345 120.085 100.204 121.059ZM96.6962 132.531C96.0522 132.518 96.0521 131.516 96.6962 131.53C97.279 131.542 97.852 131.696 98.4141 131.836C99.0395 131.993 98.7728 132.958 98.1481 132.802C97.6729 132.683 97.189 132.542 96.6962 132.531ZM95.4013 155.641C95.18 155.749 94.953 155.846 94.7294 155.948C94.2815 156.153 93.8339 156.358 93.3864 156.564C92.4541 156.992 91.5224 157.422 90.5915 157.854C88.728 158.717 86.8501 159.55 84.982 160.404C83.0771 161.275 81.1772 162.158 79.2797 163.045C78.3857 163.462 77.4849 163.865 76.5859 164.272C75.8173 164.62 74.8671 165.228 74.0233 165.285C73.9799 165.288 73.9654 165.233 73.9902 165.205C74.309 164.842 74.8175 164.631 75.2365 164.395C75.6644 164.154 76.1004 163.927 76.5344 163.697C77.4392 163.217 78.345 162.741 79.2585 162.278C81.0858 161.353 82.9165 160.434 84.7477 159.516C86.6152 158.58 88.4803 157.638 90.3642 156.735C91.2512 156.31 92.1391 155.886 93.0275 155.464C93.5087 155.235 93.9902 155.006 94.4717 154.778C94.6797 154.68 94.8856 154.574 95.0982 154.485C95.3807 154.368 95.5955 154.392 95.8869 154.32C96.3622 154.203 96.5679 154.808 96.2031 155.071C95.9027 155.288 95.7446 155.473 95.4013 155.641ZM88.7217 165.91C88.619 165.661 88.834 165.357 89.0712 165.294C89.3552 165.219 89.5829 165.392 89.6866 165.644C89.9609 166.312 90.3516 166.925 90.8545 167.442C91.304 167.905 90.5969 168.613 90.147 168.15C89.5168 167.502 89.064 166.744 88.7217 165.91ZM83.8076 149.835C83.3515 149.378 84.0592 148.67 84.5152 149.127L85.8119 150.425C86.268 150.881 85.5602 151.589 85.1044 151.133L83.8076 149.835ZM70.5041 147.719C69.5719 147.992 68.4845 148.244 67.8489 149.04C67.8179 149.079 67.7657 149.029 67.7844 148.99C68.5981 147.302 70.9316 146.71 72.5472 146.118C73.69 145.7 74.8625 145.353 76.0449 145.043C75.9267 143.692 76.2526 142.245 76.366 140.902C76.4869 139.467 76.5853 138.029 76.6358 136.59C76.6875 135.123 76.7 133.645 76.6517 132.177C76.6037 130.714 76.414 129.269 76.3309 127.811C76.3229 127.67 76.519 127.663 76.5613 127.78C77.0523 129.133 77.2621 130.631 77.4219 132.058C77.5865 133.527 77.6412 134.993 77.6201 136.471C77.5984 137.991 77.5101 139.507 77.3889 141.022C77.3315 141.74 77.2648 142.457 77.2019 143.174C77.1539 143.722 77.1316 144.265 77.0201 144.795C77.7332 144.62 78.448 144.454 79.1605 144.293C81.4325 143.78 83.714 143.304 85.9765 142.749C87.0871 142.477 88.1818 142.15 89.2874 141.861C90.3285 141.588 91.4273 141.257 92.4962 141.136C92.8776 141.092 92.9262 141.614 92.6736 141.792C91.8049 142.402 90.6512 142.827 89.6477 143.169C88.6407 143.512 87.5939 143.759 86.5617 144.013C84.4091 144.543 82.2362 144.976 80.0665 145.427C77.8998 145.878 75.729 146.325 73.5867 146.882C72.555 147.149 71.5268 147.418 70.5041 147.719ZM65.3954 120.926C64.8384 121.253 64.3355 120.387 64.8905 120.061C65.6168 119.634 66.3909 119.314 67.1712 119.001C67.77 118.761 68.0276 119.73 67.4372 119.967C66.7359 120.248 66.048 120.542 65.3954 120.926ZM63.3783 158.133C62.8198 158.458 62.3165 157.592 62.8734 157.269C63.6556 156.815 64.5122 156.512 65.3228 156.115C65.8995 155.832 66.406 156.697 65.8277 156.98C65.0172 157.377 64.1605 157.68 63.3783 158.133ZM62.4711 137.013C63.0111 137.526 63.7319 137.768 64.4115 138.038C65.0041 138.273 64.7442 139.241 64.1455 139.003C63.2988 138.667 62.4363 138.36 61.7636 137.721C61.2956 137.276 62.0043 136.569 62.4711 137.013ZM68.4457 108.329C69.0394 108.562 68.7794 109.53 68.1797 109.295C67.5146 109.034 66.8277 108.835 66.1626 108.574C65.569 108.341 65.8289 107.373 66.4286 107.608C67.0938 107.869 67.7806 108.068 68.4457 108.329ZM78.9856 96.9359C79.6165 96.8295 79.8851 97.7947 79.2517 97.9017C78.4657 98.0346 77.6918 98.1899 76.9464 98.4786C76.3444 98.7117 76.0862 97.743 76.6804 97.5129C77.4259 97.2242 78.1998 97.0687 78.9856 96.9359ZM82.4682 124.675C81.8897 124.391 82.3973 123.527 82.9731 123.811C83.5799 124.109 84.2086 124.34 84.8707 124.481C85.5012 124.616 85.2327 125.581 84.6047 125.447C83.8596 125.288 83.1505 125.011 82.4682 124.675ZM85.7573 109.05C86.3802 108.879 86.6436 109.846 86.0234 110.016C84.9321 110.315 83.8086 110.471 82.7094 110.737C82.0829 110.889 81.8179 109.923 82.4434 109.771C83.5426 109.505 84.6662 109.35 85.7573 109.05ZM99.7107 104.147C100.344 104.264 100.074 105.229 99.4448 105.113C98.7749 104.988 98.0959 104.986 97.4166 104.986C96.7718 104.986 96.7729 103.984 97.4166 103.985C98.1883 103.985 98.9501 104.006 99.7107 104.147ZM145.218 109.379C143.584 109.222 141.946 109.097 140.307 109.003C140.23 108.999 140.155 108.995 140.079 108.991C140.07 108.973 140.059 108.957 140.048 108.939C139.513 108.153 139.119 107.367 138.777 106.478C138.451 105.632 138.134 104.76 137.632 103.996C137.058 103.126 136.284 102.445 135.435 101.855C134.921 102.201 134.443 102.607 134.006 103.037C133.546 103.489 132.839 102.781 133.299 102.329C133.687 101.947 134.101 101.594 134.54 101.275C134.034 100.967 133.518 100.678 133.014 100.39C131.127 99.3126 129.194 98.316 127.222 97.4047C126.305 96.9802 125.377 96.6034 124.443 96.2216C123.94 96.0164 123.444 95.7521 122.941 95.5144C122.977 95.1587 122.871 94.7606 122.598 94.5265C122.397 94.355 122.241 94.2912 122 94.1699C121.947 94.151 121.914 94.1397 121.899 94.1334C121.91 94.1359 121.943 94.146 121.997 94.1635C122.124 94.2225 122.134 94.2048 122.027 94.1122C122.02 93.9095 121.621 93.4813 121.53 93.2723C121.213 92.5548 121.114 91.7962 120.645 91.1427C119.998 90.2426 118.913 89.9022 117.901 90.2076C117.796 89.1247 117.768 87.9944 117.36 87.0278C117.349 87.0016 117.313 86.9902 117.297 87.019C116.871 87.744 116.835 88.5513 116.803 89.3876C116.771 90.1725 116.801 90.975 116.904 91.7549C116.839 91.805 116.773 91.8526 116.704 91.8988C116.381 92.1117 116.033 92.2757 115.668 92.3972C114.973 92.6274 114.244 92.7276 113.515 92.7626C111.632 92.8528 109.692 92.6625 107.841 92.3395C105.969 92.0128 103.099 91.522 101.433 90.5844C100.333 89.9661 99.3193 89.2111 98.2911 88.48C98.6639 87.2782 98.759 85.9862 98.3838 84.9709C98.3387 84.8495 98.1486 84.827 98.1124 84.9709C97.8772 85.9399 97.8084 86.9139 97.4958 87.8716C97.4908 87.8853 97.4858 87.9005 97.4808 87.9141C97.3832 87.8479 97.2857 87.7827 97.1881 87.7176C96.963 87.5686 96.6566 87.6801 96.5215 87.8928C94.3614 91.2992 90.9409 91.4945 87.349 92.103C83.4179 92.7689 79.4672 93.4875 75.6876 94.7907C72.0731 96.0377 68.6187 97.8529 65.8822 100.564C65.2627 101.178 64.6834 101.832 64.1366 102.515C64.6657 102.582 65.1903 102.686 65.7082 102.849C66.3214 103.042 66.0579 104.008 65.4422 103.815C64.7766 103.605 64.1036 103.502 63.4237 103.45C61.5643 105.996 60.1145 108.883 58.8609 111.725C56.4562 117.173 54.8909 122.975 54.1707 128.883C54.5661 128.645 54.9687 128.419 55.3813 128.209C55.9546 127.917 56.4603 128.782 55.8864 129.074C55.249 129.398 54.6299 129.756 54.0301 130.144C53.7681 132.73 53.6665 135.332 53.728 137.93C53.8744 144.125 54.7098 150.501 56.5996 156.411C57.5264 159.311 58.7546 162.188 60.5843 164.639C61.4123 165.75 62.3528 166.751 63.4609 167.586C63.9974 167.992 64.5652 168.354 65.1643 168.659C65.936 169.055 66.9415 169.185 67.6069 169.744C67.8258 169.929 67.9946 170.171 68.1222 170.445C68.0484 170.966 68.0396 171.488 68.1822 172.009C68.2272 172.172 68.3498 172.304 68.5011 172.368C68.5036 172.413 68.5036 172.457 68.5036 172.5C68.5036 172.52 68.5337 172.525 68.5374 172.505C68.5437 172.466 68.5499 172.427 68.5562 172.387C68.6049 172.403 68.6562 172.411 68.7088 172.411C70.6085 172.418 72.5107 172.372 74.413 172.307C74.2659 171.856 74.1066 171.409 73.9536 170.958C73.7459 170.345 74.7125 170.085 74.9184 170.692C75.0974 171.219 75.2845 171.742 75.4509 172.271C77.4892 172.195 79.5268 172.104 81.5608 172.037C85.8869 171.893 90.2118 171.845 94.539 171.754C101.259 171.611 108.028 171.319 114.758 171.605C114.991 171.11 115.252 170.627 115.499 170.139C115.79 169.564 116.653 170.071 116.363 170.645C116.191 170.984 116.013 171.318 115.844 171.657C117.207 171.728 118.569 171.821 119.928 171.949C122.247 172.167 124.543 172.554 126.859 172.794C129.214 173.039 131.518 172.996 133.854 172.606C134.275 172.536 134.522 172.282 134.625 171.966C134.628 171.965 134.631 171.963 134.634 171.959C134.754 171.819 134.866 171.702 134.982 171.601C135.121 171.511 135.271 171.434 135.448 171.367C135.777 171.242 136.119 171.165 136.467 171.114C136.85 171.056 137.238 171.051 137.62 171.004C137.943 170.963 138.258 170.901 138.573 170.826C139.14 170.691 139.678 170.514 140.213 170.28C140.679 170.076 141.101 169.783 141.499 169.464C142.322 168.862 143.034 168.093 143.657 167.294C144.02 166.828 144.361 166.343 144.672 165.839C145.212 164.965 145.672 164.057 146.137 163.142C146.306 162.871 146.46 162.593 146.601 162.31C145.692 162.041 144.774 161.823 143.81 161.807C143.166 161.797 143.166 160.795 143.81 160.806C144.916 160.823 145.961 161.082 147 161.39C147.051 161.255 147.099 161.12 147.144 160.982C147.268 160.696 147.371 160.402 147.456 160.104C147.506 159.968 147.556 159.833 147.606 159.698C147.718 159.23 147.831 158.76 147.945 158.291C148.171 157.54 148.35 156.777 148.481 156.005C148.591 155.497 148.676 154.985 148.734 154.466C148.909 153.211 149.052 151.958 149.062 150.688C149.047 149.906 148.997 149.125 148.911 148.347C148.875 147.819 148.814 147.293 148.731 146.771C148.624 145.995 148.517 145.226 148.339 144.46C148.205 143.942 148.071 143.424 147.937 142.905C147.603 141.825 147.209 140.766 146.755 139.731C146.73 139.666 146.604 139.523 146.528 139.522C146.47 139.52 146.39 139.573 146.416 139.643C146.419 139.649 146.421 139.657 146.424 139.663C146.398 139.604 146.373 139.544 146.346 139.485C146.324 139.43 146.236 139.32 146.169 139.321C146.165 139.321 146.161 139.321 146.156 139.322C146.174 139.31 146.19 139.294 146.206 139.275C146.655 138.743 146.947 138.043 147.268 137.427C147.534 136.919 147.786 136.383 147.858 135.808C147.922 135.304 147.836 134.807 147.519 134.399C147.159 133.934 146.481 133.717 146.858 133.046C147.286 132.282 147.915 131.62 147.288 130.752C146.969 130.31 146.464 130.067 146.089 129.683C145.657 129.239 145.452 128.644 145.463 128.037C145.49 128.052 145.525 128.044 145.537 128.007C145.9 126.91 145.637 125.706 145.266 124.638C145.063 124.058 144.634 123.899 144.135 123.871C146.296 119.646 148.319 115.353 150.121 110.961C150.181 110.817 150.24 110.673 150.298 110.529C150.386 110.314 150.201 110.027 149.987 109.98C148.429 109.638 146.805 109.529 145.218 109.379Z" fill="black"/>
<path fill-rule="evenodd" clip-rule="evenodd" d="M101.86 36.8834C120.777 35.9502 122.098 41.4652 124.695 44.9811C125.985 46.7259 129.313 49.31 129.865 55.2772C130.248 59.4194 127.808 64.1937 127.808 67.895C127.808 69.7844 130.115 73.8405 129.041 76.5942C126.651 82.7232 121.592 89.5253 115.144 89.5253C108.697 89.5253 96.7953 85.961 89.6711 75.7292C87.3376 72.3778 82.9433 37.8165 101.86 36.8834Z" fill="#FFDBB4"/>
<path fill-rule="evenodd" clip-rule="evenodd" d="M129.394 68.2646C128.98 67.8077 128.66 67.4321 128.552 66.8036C128.507 66.5419 128.487 66.2729 128.479 66.0024C130.137 63.6765 131.75 58.1823 131.75 55.1773C131.75 50.9378 130.191 46.8587 127.633 43.4849C122.645 36.9137 114.343 33.5449 106.219 33.8091C98.4383 34.0606 90.1627 36.9375 85.3093 43.0869C69.2065 63.4894 82.7214 85.7749 92.6199 90.4114C93.4815 90.815 96.2644 90.6748 95.8766 89.8129C94.7629 87.3368 93.8854 82.7764 93.6807 81.7497C93.9977 81.9639 94.3172 82.173 94.638 82.3895C95.2058 82.7712 95.9671 83.2081 96.681 83.0817C96.7147 83.0756 96.7359 83.0393 96.7372 83.008C96.7696 82.3356 96.2904 81.6445 95.8685 81.1651C95.2832 80.4991 94.7266 79.8168 94.0963 79.1921C93.828 78.9255 93.5559 78.6613 93.2838 78.3972C93.2489 76.8123 93.355 75.22 93.6383 73.6264C94.1288 70.8635 94.9749 68.1719 95.9472 65.523C96.7596 64.9219 97.5484 64.2899 98.2785 63.5987C100.037 61.935 101.379 59.8995 102.529 57.7588C102.543 57.7524 102.558 57.7449 102.572 57.7388C104.802 56.6984 107.014 55.6181 109.208 54.5039C110.34 53.9292 111.464 53.3408 112.589 52.7526C113.2 52.432 113.83 52.1403 114.456 51.8386C114.287 52.7049 114.06 53.5587 113.784 54.3987C113.557 55.0886 114.251 55.598 114.865 55.484C116.956 55.0961 118.976 54.3162 120.795 53.212C121.696 52.6649 122.553 52.0327 123.348 51.3391C124.143 52.5271 125.109 53.6413 126.084 54.6003C126.741 55.2476 127.429 55.8634 128.143 56.4469C127.82 58.679 127.543 60.9159 127.192 63.1432C127.009 64.3074 126.788 65.4715 126.649 66.642C126.498 67.9177 126.919 68.8266 127.756 69.7592C128.927 71.0625 128.926 72.9477 128.477 74.5665C128.423 74.7667 128.354 74.9621 128.283 75.1561C128.268 75.1961 128.224 75.305 128.208 75.3477C128.208 75.349 128.208 75.3502 128.207 75.3526C128.207 75.3538 128.205 75.3552 128.205 75.3564C128.204 75.3564 128.204 75.3576 128.203 75.359V75.3614V75.3626L128.202 75.3639C128.149 75.4865 128.093 75.6067 128.037 75.7269C127.781 76.269 127.495 76.7986 127.198 77.3194C125.738 79.8907 123.893 82.2429 121.792 84.3185C120.813 85.285 119.796 86.184 118.647 86.9201C118.405 87.0741 118.157 87.2229 117.904 87.3594C117.768 87.4332 117.628 87.5022 117.488 87.5722C117.284 87.6736 117.369 87.6335 117.244 87.6836C117.018 87.7726 116.787 87.8501 116.551 87.9114C116.425 87.944 116.298 87.9717 116.169 87.9953C116.168 87.9953 116.166 87.9966 116.162 87.9966C116.161 87.9966 116.159 87.9978 116.158 87.9966C116.157 87.9978 116.154 87.9978 116.152 87.9978C116.104 88.0016 116.019 88.0091 116.003 88.0091C114.211 88.0155 112.434 87.7739 110.699 87.3269C109.759 87.0841 108.821 86.7898 107.937 86.3855C107.488 86.179 107.049 85.9499 106.628 85.6906C106.439 85.5743 106.261 85.434 106.063 85.3327C105.766 85.1798 105.475 85.1962 105.154 85.1825C104.665 85.1623 104.318 85.6757 104.438 86.1264C104.584 86.6758 104.813 87.0001 105.285 87.3269C105.662 87.5873 106.061 87.8175 106.468 88.0266C107.354 88.4837 108.292 88.8554 109.24 89.1596C111.016 89.7279 112.886 90.0772 114.745 90.205C116.099 90.2976 117.273 90.116 118.506 89.5439C119.807 88.9392 120.974 88.0366 122.054 87.1002C124.471 85.0046 126.574 82.462 128.358 79.8093C130.034 77.3155 131.334 74.6002 130.906 71.5043C130.735 70.2625 130.231 69.1935 129.394 68.2646" fill="black"/>
<path fill-rule="evenodd" clip-rule="evenodd" d="M115.693 79.9798C114.852 79.6365 114.102 79.0638 113.554 78.3323C113.363 78.078 113.313 77.8094 113.353 77.5638C113.398 77.2876 113.562 77.0373 113.784 76.8694C114.008 76.701 114.287 76.6179 114.557 76.6603C114.792 76.6971 115.025 76.8257 115.21 77.0924L115.249 77.1457C115.575 77.5873 116 77.9495 116.484 78.183C116.95 78.4081 117.472 78.5131 118.012 78.4521C119.041 78.3358 119.75 77.779 120.503 77.0229C120.597 76.9274 120.69 76.829 120.784 76.7289C120.843 76.6383 120.926 76.58 121.017 76.5494C121.119 76.5154 121.233 76.5174 121.338 76.5541C121.44 76.5895 121.53 76.6566 121.591 76.7459C121.649 76.8308 121.682 76.9357 121.671 77.0564C121.602 77.8399 121.193 78.5392 120.612 79.0883C119.966 79.6982 119.11 80.1201 118.304 80.268C117.417 80.431 116.512 80.3143 115.693 79.9798V79.9798ZM118.723 67.8917C119.667 68.4664 121.107 69.8063 120.091 71.2308C118.895 72.4869 117.173 71.0467 116.324 70.3954C115.537 69.8906 114.653 71.1889 115.383 71.7783C121.515 76.322 124.003 68.042 119.201 67.2161C118.672 67.1251 118.476 67.714 118.723 67.8917ZM107.736 62.6062C107.84 61.3097 109.813 61.0153 110.009 62.2983C110.185 63.4475 109.978 64.5032 109.461 65.5379C108.966 66.5264 107.724 66.0652 107.631 65.1651C107.505 63.9585 107.671 63.4127 107.736 62.6062ZM122.752 62.0322C123.027 61.6717 123.424 61.4256 123.9 61.5647C125.386 61.9994 124.948 64.1117 124.426 65.1399C124.142 65.6983 123.225 65.8398 122.811 65.3482C122.136 64.5465 121.812 62.9455 122.671 62.1558C122.694 62.115 122.72 62.0738 122.752 62.0322ZM109.44 56.9332L109.674 56.8921C110.401 56.7663 111.304 56.6455 111.818 57.23C112.09 57.54 112.184 58.1161 111.818 58.4128C111.173 58.9348 110.461 58.7325 109.689 58.7767C109.053 58.8133 108.441 58.9187 107.828 59.0941C106.483 59.4788 105.388 60.1811 104.239 60.9522C104.088 61.0534 103.935 60.8605 104.006 60.7194C104.669 59.4196 105.954 58.3519 107.241 57.701C107.928 57.3536 108.68 57.0654 109.44 56.9332ZM121.397 56.351L121.577 56.3878C123.532 56.797 126.073 57.6144 126.999 59.5372C127.035 59.8091 126.997 59.8673 126.967 59.9054L126.957 59.9181C126.932 59.9506 126.912 59.9954 126.794 60.0324C126.762 60.0246 126.729 60.0164 126.695 60.0076C126.271 59.8963 125.935 59.7428 125.61 59.5837L125.257 59.4098C124.848 59.2091 124.435 59.0156 123.998 58.8728C123.065 58.5681 122.105 58.3535 121.13 58.2388C120.919 58.214 120.715 58.1426 120.555 58.0203C120.402 57.9042 120.286 57.7434 120.233 57.5297C120.164 57.2532 120.184 57.0438 120.332 56.7943C120.444 56.607 120.603 56.4771 120.786 56.4025C120.973 56.3265 121.186 56.3086 121.397 56.351Z" fill="black"/>
<path fill-rule="evenodd" clip-rule="evenodd" d="M95.7801 196.054C96.3201 196.567 97.0409 196.809 97.7205 197.079C98.3131 197.314 98.0532 198.282 97.4545 198.045C96.6078 197.708 95.7453 197.402 95.0726 196.762C94.6046 196.317 95.3133 195.61 95.7801 196.054Z" fill="#C4C4C4"/>
<path fill-rule="evenodd" clip-rule="evenodd" d="M105.83 179.517C106.039 180.232 106.54 180.804 106.992 181.379C107.386 181.879 106.675 182.586 106.277 182.08C105.714 181.364 105.122 180.665 104.862 179.774C104.681 179.154 105.649 178.899 105.83 179.517Z" fill="#C4C4C4"/>
<path fill-rule="evenodd" clip-rule="evenodd" d="M134.003 179.73C133.621 180.37 133.543 181.126 133.429 181.849C133.33 182.478 132.328 182.437 132.429 181.801C132.571 180.901 132.68 179.993 133.157 179.196C133.488 178.641 134.333 179.178 134.003 179.73Z" fill="#C4C4C4"/>
<path fill-rule="evenodd" clip-rule="evenodd" d="M79.8473 184.921C80.8377 184.493 81.8117 184.026 82.8483 183.717C83.4678 183.532 83.73 184.499 83.1143 184.683C82.1597 184.967 81.2643 185.391 80.3523 185.786C79.7667 186.039 79.2578 185.176 79.8473 184.921Z" fill="#9DDADB"/>
<path fill-rule="evenodd" clip-rule="evenodd" d="M137.143 198.015C136.809 199.041 136.515 200.08 136.061 201.062C135.79 201.649 134.891 201.206 135.161 200.623C135.579 199.719 135.853 198.767 136.161 197.822C136.358 197.215 137.342 197.404 137.143 198.015Z" fill="#9DDADB"/>
<path fill-rule="evenodd" clip-rule="evenodd" d="M122.114 189.064C122.925 189.776 123.763 190.457 124.485 191.262C124.917 191.744 124.155 192.394 123.726 191.916C123.061 191.174 122.295 190.546 121.548 189.89C121.069 189.469 121.632 188.64 122.114 189.064Z" fill="#9DDADB"/>
</g>
<defs>
<filter id="filter0_d_19_246" x="0.828506" y="0" width="222.257" height="439.838" filterUnits="userSpaceOnUse" color-interpolation-filters="sRGB">
<feFlood flood-opacity="0" result="BackgroundImageFix"/>
<feColorMatrix in="SourceAlpha" type="matrix" values="0 0 0 0 0 0 0 0 0 0 0 0 0 0 0 0 0 0 127 0" result="hardAlpha"/>
<feOffset dy="4"/>
<feGaussianBlur stdDeviation="4"/>
<feComposite in2="hardAlpha" operator="out"/>
<feColorMatrix type="matrix" values="0 0 0 0 0 0 0 0 0 0 0 0 0 0 0 0 0 0 0.25 0"/>
<feBlend mode="normal" in2="BackgroundImageFix" result="effect1_dropShadow_19_246"/>
<feBlend mode="normal" in="SourceGraphic" in2="effect1_dropShadow_19_246" result="shape"/>
</filter>
</defs>
</svg>
