<svg width="434" height="626" viewBox="0 0 334 546" fill="none" xmlns="http://www.w3.org/2000/svg">
<path fill-rule="evenodd" clip-rule="evenodd" d="M206.853 367.166C207.415 373.015 206.267 378.601 203.532 383.324L202.643 384.86L204.336 385.451C207.418 386.528 210.845 387.051 214.814 387.051C218.898 387.051 223.145 386.483 226.557 386.026L228.742 385.734L227.669 383.839C226.806 382.316 226.646 380.47 226.477 378.516C226.431 377.991 226.384 377.449 226.323 376.912C223.089 348.05 219.002 318.812 215.049 290.537C214.009 283.097 212.933 275.403 211.89 267.835L208.897 267.95C208.091 281.959 207.31 296.204 206.555 309.98C206.222 316.038 205.89 322.096 205.555 328.153C204.36 343.467 204.773 355.866 206.853 367.166ZM208.074 540.236C203.679 540.236 199.275 539.779 194.985 538.877C181.561 536.064 169.365 529.425 158.988 523.423C158.458 523.123 157.92 522.823 157.369 522.515C153.306 520.245 148.25 517.421 145.081 513.976C141.605 510.196 141.007 506.43 143.199 502.123L143.545 501.442L143.183 500.768C140.913 496.55 141.082 491.331 143.593 488.077L145.704 485.343L142.234 485.71C138.735 486.081 135.209 486.583 131.799 487.069C128.015 487.608 124.102 488.166 120.248 488.539L119.177 488.642L118.931 489.673C118.794 490.246 118.625 490.595 117.436 490.595C116.405 490.595 115.02 490.293 113.553 489.974C111.734 489.579 109.671 489.13 107.682 489.13C106.807 489.13 106.02 489.213 105.276 489.385L104.843 489.484L104.535 489.799C104.338 490.001 104.002 490.126 103.659 490.126C103.4 490.126 103.159 490.054 102.999 489.928L102.513 489.549L101.896 489.616C91.1529 490.794 81.8891 492.862 73.5764 495.936L73.5388 495.95L73.3585 496.027C70.3527 497.323 67.245 498.662 64.4147 498.662C62.3457 498.662 60.6656 497.96 59.127 496.451L58.6921 496.024L58.0788 496.019C51.8554 495.961 49.0118 488.715 48.6186 483.858L48.5692 483.246L48.0948 482.849C37.249 473.76 30.8461 461.277 28.5196 444.688C26.4007 429.576 28.0276 413.644 29.8985 400.051C34.2263 364.826 38.7402 333.248 50.2145 303.298L50.7506 301.898L49.322 301.386C44.3663 299.607 40.5788 297.486 37.743 294.899L37.5466 294.72L37.2994 294.618C33.2351 292.951 31.2446 286.796 30.7313 284.95L30.6901 284.801L30.6184 284.663C29.7892 283.075 29.5978 280.865 30.0938 278.601L30.147 278.357L30.1161 278.109C29.8483 275.959 30.7373 273.711 31.6784 271.332C32.1084 270.244 32.5528 269.121 32.8775 268.001C33.9939 264.803 35.109 261.548 36.1878 258.399C38.6081 251.335 41.1104 244.031 43.7762 236.925L44.1408 235.954L43.3377 235.284C41.9665 234.14 42.4244 232.794 44.4016 229.575C44.8688 228.815 45.3106 228.095 45.6467 227.387C48.1811 223.014 50.8973 218.816 53.7213 214.908L53.7795 214.828L53.8259 214.741C68.317 187.716 94.0216 172.832 126.204 172.832L126.86 172.834L127.223 172.616C133.255 168.994 137.56 162.779 140.386 153.617L140.476 153.325L140.442 153.021C140.345 152.177 140.239 151.07 140.275 149.995C140.367 147.275 141.435 144.847 143.205 143.334C146.563 140.464 151.661 140.224 156.594 140.224L157.303 140.225C163.61 140.243 168.064 141.336 171.318 143.667C175.098 146.375 177.187 150.746 177.705 157.029C177.86 158.91 177.855 160.858 177.85 162.741L177.849 163.267L177.912 163.476C178.365 164.969 178.896 166.404 179.49 167.741L180.101 169.117L181.49 168.497C182.389 168.096 183.528 167.89 184.973 167.866C185.39 167.857 185.796 167.852 186.206 167.852C189.562 167.852 193.152 168.158 196.624 168.454C199.24 168.677 201.945 168.908 204.564 169.01L204.599 169.012C204.599 169.012 204.961 169.009 205.123 169.009C211.487 169.009 216.101 170.009 219.642 172.155C223.455 174.465 226.196 178.173 228.269 183.824C239.388 216.216 243.96 251.106 247.992 281.888C250.279 297.985 250.975 314.487 251.647 330.446C252.358 347.291 253.092 364.709 255.692 381.736L255.897 383.082L257.278 382.993C263.354 382.601 269.92 381.758 276.872 380.865C287.434 379.508 298.355 378.105 308.913 378.105C323.676 378.105 334.869 381.006 343.126 386.971C348.883 392.389 351.861 399.723 351.739 408.188C351.566 420.147 345.231 433.37 335.6 441.873L335.564 441.906C323.39 453.39 301.169 463.351 269.517 471.511C240.412 479.015 210.306 483.093 194.95 484.856L191.15 485.293L194.234 487.519C195.483 488.421 196.622 489.215 197.717 489.946L198.424 490.418L199.197 490.063C201.404 489.053 202.806 488.841 203.593 488.841C204.292 488.841 205.135 488.992 205.181 489.715C205.212 490.187 204.875 490.89 204.163 490.978L200.386 491.449L203.47 493.646C205.531 495.113 208.604 496.881 212.164 498.929C223.809 505.629 241.407 515.755 238.38 524.646L238.182 525.23L238.463 525.781C239.276 527.373 239.346 528.851 238.675 530.298C237.238 533.401 232.743 535.757 228.926 536.715L228.86 536.731L228.796 536.754C222.154 539.064 215.182 540.236 208.074 540.236Z" fill="#D08B5B"/>
<path fill-rule="evenodd" clip-rule="evenodd" d="M178.089 473.462C178.207 473.279 178.312 473.023 178.37 472.796C179.175 473.94 192.062 485.218 204.806 494.79C216.643 503.681 230.219 510.398 235.49 517.81C237.493 520.627 238.511 528.883 238.126 530.27C237.265 531.361 227.789 536.256 227.789 536.256C225.648 536.834 208.463 541.488 200.83 539.904C198.022 539.478 177.774 533.006 175.216 531.85L153.458 519.242C152.983 519.033 152.51 518.826 152.04 518.62L151.404 518.367C146.551 516.428 140.361 512.318 141.628 506.395C143.119 500.299 140.445 498.967 141.057 494.951C141.587 491.476 142.744 487.937 144.593 484.564C151.734 492.584 160.799 491.884 165.366 481.914L165.47 481.711L165.573 481.507C167.066 478.533 168.478 474.754 172.013 473.585C173.964 472.268 176.459 471.994 178.089 473.462ZM112.828 451.09L113.27 452.104C115.418 457.012 119.979 467.21 121.791 471.233C121.388 470.488 120.926 469.773 120.407 469.097C118.89 467.123 120.67 473.089 120.684 479.317C120.697 485.093 118.91 491.093 118.499 491.193C117.992 491.316 110.926 487.848 104.302 488.901C98.9542 489.751 90.8455 490.709 82.7898 492.905C76.2419 494.69 69.7291 497.718 64.7624 498.747C60.7271 499.583 59.9384 495.216 57.3019 495.486C54.9266 495.73 54.5442 495.671 53.956 495.181C50.6585 492.458 47.5416 481.698 47.8525 477.655C50.5894 456.229 92.8351 449.322 112.828 451.09Z" fill="white"/>
<path fill-rule="evenodd" clip-rule="evenodd" d="M71.2986 308.559L72.6717 308.935L133.5 325.932C133.889 326.186 134.178 326.371 134.456 326.539L134.654 326.658L135.805 327.34L135.537 328.649C134.935 331.595 134.846 334.624 135.119 338.855L135.135 339.091L135.168 339.571L135.216 340.226L135.234 340.449L135.565 344.482L135.627 345.291C135.676 345.944 135.711 346.491 135.743 347.063L135.75 347.195L135.798 348.121L135.815 348.518C135.98 352.551 135.695 356.491 134.957 362.189L134.92 362.47L134.815 363.261L134.743 363.953L134.438 366.78L134.331 367.79C133.641 374.454 133.3 379.685 133.388 384.561L133.393 384.804C133.527 391.201 134.511 395.536 136.146 397.027L136.195 397.071L136.239 397.108L136.249 397.109C136.41 397.117 136.673 397.016 137.184 396.708L137.398 396.575C137.53 396.492 137.781 396.334 137.897 396.262L138.026 396.184C138.263 396.043 138.47 395.934 138.686 395.841C139.021 395.696 139.363 395.603 139.702 395.575L139.803 395.568L139.818 395.568L139.911 395.486C140.218 395.211 140.511 394.907 140.778 394.584L140.891 394.444L140.989 394.318L141.647 393.453L142.094 392.681C142.437 392.088 142.747 391.457 143.026 390.791L143.129 390.54L143.219 390.311L147.122 380.222L146.854 391.034C146.763 394.705 148.138 396.608 149.831 396.627C151.613 396.648 153.437 394.692 153.964 391.22L153.982 391.099L157.713 391.572C157.469 393.748 158.247 397.189 159.495 399.128C160.037 399.97 160.547 400.366 160.911 400.397C161.352 400.434 162.048 400.023 162.98 398.824L162.979 398.825L162.96 398.849L163 398.793C163.811 397.634 164.262 396.077 164.499 393.86L164.516 393.701L164.531 393.543L165.838 379.823L168.255 393.392C168.492 394.722 168.759 396.058 169.055 397.402L169.111 397.652L169.152 397.637C169.24 397.602 169.354 397.549 169.486 397.474L169.544 397.441L169.598 397.409C170.405 396.918 171.358 395.928 171.738 395.284L171.774 395.221L172.206 394.435L173.09 394.277C173.244 394.249 173.408 394.178 173.526 394.095L173.568 394.063L174.204 393.546L175.015 393.659C186.855 395.3 195.575 393.917 201.124 388.113L201.291 387.936L202.156 387.006L203.342 387.461C208.617 389.481 279.448 380.566 285.358 380.013L286.669 379.892L287.765 379.795C297.041 378.984 305.387 379.106 313.406 379.194L313.921 379.2L314.639 379.243L315.3 379.285C322.032 379.731 327.353 380.555 332.169 382.131C338.207 384.107 342.976 387.181 346.35 391.648L346.501 391.849L346.664 392.099C351.093 398.927 352.428 407.165 350.89 415.788C349.496 423.598 345.775 431.374 340.567 437.63L340.401 437.829L340.1 438.205C329.083 451.774 306.4 462.682 274.89 471.358L273.932 471.62L272.95 471.886C249.601 478.175 223.368 482.793 197.684 485.888L196.882 485.984L195.294 486.172L189.994 486.792L193.368 483.363L193.352 483.357C193.001 483.242 187.577 484.368 187.577 484.368L186.418 483.405C185.753 482.849 185.253 482.42 184.779 481.995L184.556 481.793L183.665 480.974L183.826 479.971C183.827 479.955 183.819 479.928 183.786 479.867L183.77 479.839C183.77 479.839 179.848 475.257 179.544 474.991L179.493 474.948L179.419 474.886L179.389 474.862C178.68 474.334 171.288 474.589 171.288 474.589C171.288 474.589 166.191 465.944 165.52 465.031L165.358 464.811L163.689 464.798L164.321 463.737C165.242 462.192 165.809 460.458 166.046 458.548L166.07 458.35L166.083 458.221L165.978 458.291C165.27 458.771 164.857 459.248 164.72 459.699L164.705 459.753L164.694 459.798L164.684 459.845L164.629 460.042C163.86 462.744 162.226 464.866 159.83 466.55C158.137 467.741 133.796 476.216 127.772 477.748L127.352 477.855L125.85 478.233L124.774 475.949C123.118 472.413 120.972 467.69 118.337 461.778L117.039 458.861L115.707 455.853L109.363 452.135L105.005 452.207C104.083 452.223 103.236 452.239 102.464 452.254L102.084 452.262L99.6822 452.314L99.2495 452.359C89.2007 453.434 79.4108 455.611 70.1339 458.864L69.6627 459.03L69.1715 459.206L68.9095 459.291L68.4432 459.444C61.8889 461.618 57.512 463.834 54.3709 466.779C50.7232 470.199 48.7803 474.669 48.5209 480.877L48.5132 481.076L48.3602 485.352L45.312 482.345C36.2355 473.391 30.293 461.239 27.7591 447.397C25.4315 434.682 26.1059 421.045 29.5565 408.756L29.6081 408.573L29.6172 408.449C29.8754 405.014 30.4989 401.501 31.4813 397.659L31.5745 397.298L31.6697 396.934C32.375 394.268 33.0758 391.979 34.3351 388.17L34.4748 387.748L36.1458 382.743C44.8042 357.85 56.2263 333.619 70.1407 310.477L70.5631 309.776L71.2986 308.559Z" fill="#78E185"/>
<path fill-rule="evenodd" clip-rule="evenodd" d="M195.295 483.114C195.754 482.648 195.947 482.036 195.519 481.318C193.861 479.204 190.423 480.65 188.284 481.138C187.477 480.467 186.674 479.794 185.902 479.084C186.17 477.421 184.169 476.316 183.347 475.033C182.539 474.089 181.78 473.016 180.811 472.224C178.452 470.386 175.182 471.63 172.444 471.546C170.335 468.867 168.163 466.273 166.157 463.505C168.469 459.625 168.632 455.079 167.865 450.756C203.33 437.318 234.028 411.876 272.384 405.995C273.703 405.776 274.443 404.175 274.114 403.001C271.438 396.625 232.989 413.077 227.242 416.056C210.291 424.161 194.413 434.264 177.938 443.178C174.503 445.001 170.724 445.98 166.967 446.928C161.195 428.009 151.43 410.667 143.943 392.427C144.429 391.586 144.843 390.703 145.194 389.795C144.946 399.827 154.715 399.686 156.064 390.17C155.508 395.13 159.264 405.754 164.685 398.783C165.957 397.032 166.408 394.79 166.623 392.528C166.902 394.092 167.218 395.648 167.569 397.2C168.961 400.273 172.76 396.536 173.642 394.933C174.151 394.842 174.628 394.61 174.976 394.326C184.563 395.656 195.854 395.579 202.888 388.022C214.82 392.592 228.025 388.498 240.091 386.673C264.645 383.853 289.297 379.556 314.072 379.885C325.133 380.526 338.183 382.309 345.179 391.734C354.154 405.32 349.081 423.668 339.181 435.429C315.366 465.537 233.621 478.63 195.295 483.114ZM195.965 493.959C196.398 493.843 196.835 493.737 197.269 493.636C204.22 499.415 236.956 514.422 234.466 523.385C233.586 524.5 231.48 524.754 230.148 525.114C227.828 525.74 225.486 526.283 223.122 526.712C215.479 528.101 207.562 528.343 199.929 526.759C197.121 526.333 194.586 525.136 192.028 523.98C183.763 520.349 174.66 516.338 166.435 512.737C155.986 508.601 137.658 500.449 145.196 486.693C152.338 494.714 161.403 494.013 165.969 484.044C167.544 481.017 168.918 476.938 172.617 475.714C174.568 474.397 177.063 474.124 178.693 475.591C178.81 475.409 178.916 475.152 178.973 474.925C180.811 477.537 182.396 480.287 184.55 482.675C183.811 482.714 176.112 488.404 178.384 488.407C181.117 487.001 183.833 485.83 186.785 485.072C188.924 487.221 191.276 489.219 193.713 491.066C191.346 492.627 189.219 494.539 187.509 496.613C187.361 496.796 187.542 497.033 187.762 496.934C190.418 495.752 193.149 494.714 195.965 493.959ZM231.202 532.718C204.614 544.644 176.466 531.365 153.792 517.207C148.559 514.289 141.676 510.152 142.734 503.283C146.588 508.914 152.942 512.121 159.041 514.9C169.287 519.525 179.6 524.002 189.872 528.57C190.842 531.784 195.481 531.907 198.285 532.62C210.765 535.037 224.18 533.836 235.926 529.016C235.246 531.027 233.022 531.949 231.202 532.718ZM125.122 486.281C124.465 486.365 123.808 486.441 123.151 486.515C123.219 485.647 122.694 484.779 121.852 484.51C122.231 482.67 122.371 480.768 122.168 478.901C123.266 481.735 126.812 480.875 129.064 480.058C132.281 479.185 135.478 478.245 138.658 477.244C139.912 479.57 141.241 481.861 142.873 483.968C136.93 484.495 131.042 485.544 125.122 486.281ZM122.505 477.367C122.347 477.7 122.122 478.053 122.117 478.452C121.956 477.074 121.643 475.712 121.166 474.407C121.612 475.394 122.059 476.38 122.505 477.367ZM118.754 469.975C115.83 466.169 110.427 463.058 105.432 464.119C105.111 464.188 105.103 464.704 105.432 464.768C112.142 465.678 118.035 470.993 118.268 477.865C118.797 480.976 116.63 484.029 117.36 487.014C117.215 487.024 117.069 487.031 116.926 487.041C116.874 487.24 116.826 487.418 116.763 487.574C117.488 487.694 117.701 488.859 116.846 489.066C116.34 489.189 115.81 489.253 115.271 489.28C112.535 488.543 109.649 488.372 107.034 487.282C104.446 486.141 105.093 482.932 104.18 480.709C103.511 478.146 102.741 475.594 101.77 473.134C101.7 472.937 101.432 472.982 101.409 473.181C100.725 478.087 100.747 483.077 100.913 488.022C100.015 488.114 99.1224 488.215 98.2269 488.326C98.2849 486.944 94.1348 470.115 91.9482 474.434C93.049 479.182 93.1819 484.143 93.2998 489.029C86.8076 490.097 80.4108 491.688 74.1869 493.853C69.8012 495.18 64.5851 499.107 60.3275 495.557C57.03 492.835 55.9191 488.084 56.2301 484.041C60.5181 460.123 94.3856 457.329 114.379 459.097C116.267 463.448 118.19 467.785 120.139 472.111C119.735 471.366 119.273 470.651 118.754 469.975ZM50.5661 483.575C50.2 478.144 51.1152 471.383 55.1449 467.336C64.3679 459.549 77.2819 457.099 88.8068 454.28C94.1753 453.222 99.6171 452.519 105.081 452.169C107.019 452.016 109.482 452.455 110.851 450.872C111.556 452.539 112.27 454.204 112.985 455.869C90.0406 452.867 42.1707 463.295 55.5763 494.682C52.7374 491.611 50.8567 487.872 50.5661 483.575ZM164.558 465.622C165.613 468.256 166.905 470.764 168.592 473.058C166.674 474.311 165.109 476.163 164.006 478.154C156.935 496.628 149.372 486.733 139.976 476.819C147.927 473.823 158.459 471.578 164.558 465.622ZM46.8537 479.816C28.4655 461.677 24.8972 431.46 31.6903 407.707C32.2946 398.899 35.379 390.506 38.1423 382.166C46.9415 356.87 58.514 332.532 72.3935 309.554C89.6131 314.277 106.803 319.126 124.062 323.695C126.439 324.21 128.819 325.229 131.259 325.377C132.132 325.932 133.007 326.544 133.915 327.081C132.593 333.546 133.812 340.146 134.12 346.651C134.401 351.771 133.847 356.786 133.167 361.852C132.408 369.222 129.28 393.194 135.547 397.582C137.671 398.606 139.569 395.574 140.485 396.408C141.31 395.833 142.079 395.086 142.706 394.262C145.126 402.076 149.081 409.325 151.523 417.147C154.773 428.64 165.445 447.246 163.075 458.209C161.242 464.98 153.223 466.44 147.436 468.653C140.748 470.976 133.985 473.11 127.112 474.841C123.756 467.73 120.549 460.552 117.402 453.348C103.019 420.106 90.2801 386.172 78.8957 351.833C78.6825 351.071 76.0646 342.813 75.5857 345.116C75.5455 344.88 75.2471 344.268 75.1343 344.791C77.0651 352.854 79.0233 360.915 81.1425 368.933C75.9367 368.206 70.3398 367.922 65.5754 370.47C65.3296 370.601 65.5102 370.924 65.7532 370.884C71.3952 369.908 76.8369 371.753 82.2558 373.077C89.8664 398.946 99.6861 424.159 110.08 449.056C106.865 448.033 103.134 449.165 99.7789 449.246C89.2119 450.336 78.7653 452.645 68.7826 456.236C56.2346 460.299 47.3627 465.596 46.8537 479.816ZM36.7302 291.04C33.6411 287.718 31.2135 283.475 31.6827 278.974C33.5383 276.502 34.1527 273.279 35.2334 270.422C39.4587 258.469 43.3806 246.425 47.9795 234.601C57.7616 237.605 67.3855 241.209 76.4632 245.942C78.1333 246.793 79.7858 247.676 81.4182 248.591C83.1284 249.548 84.994 251.211 87.0453 250.735C84.8035 253.904 80.187 257.202 79.4071 260.864C79.2391 262.024 80.0616 263.099 81.3254 262.84C101.108 276.872 121.537 290.609 140.236 306.239C154.239 317.309 164.989 326.287 169.791 344.248C173.028 355.883 173.038 368.043 172.562 380.006C172.469 382.331 172.466 384.712 172.278 387.052C172.559 388.804 172.025 392.368 170.054 392.432C170.099 392.856 170.24 393.248 170.463 393.594C170.4 393.677 170.335 393.756 170.267 393.838C170.169 393.359 170.074 392.883 169.984 392.405C168.449 385.617 168.243 377.741 168.499 370.514C168.607 368.442 165.425 368.492 165.247 370.514C164.768 375.978 164.289 381.441 163.81 386.902C163.236 390.441 164.141 395.071 161.308 397.762C158.426 395.103 159.379 389.859 159.52 386.428C159.745 380.832 159.989 375.238 160.197 369.641C160.262 367.868 157.32 367.411 156.987 369.214C156.042 374.355 155.018 379.48 153.917 384.591C153.253 386.567 152.797 395.431 149.477 393.892C147.498 392.543 148.925 384.633 148.664 382.013C148.787 376.829 148.86 371.651 149.241 366.479C149.396 364.392 145.994 363.948 145.527 365.986C144.77 369.284 144.045 372.581 143.388 375.901C141.946 381.498 142.471 389.085 137.265 392.804C135.226 378.267 138.16 363.83 138.571 349.344C138.325 344.65 137.518 340.003 136.806 335.366C136.018 330.238 135.56 324.657 137.403 319.711C136.899 317.496 134.918 323.487 134.732 323.986C133.24 321.05 129.607 320.824 126.733 319.908C120.346 317.844 113.804 316.288 107.342 314.452C90.2046 309.699 73.0476 305.02 55.8859 300.351C49.0302 298.457 41.8134 296.215 36.7302 291.04ZM208.337 368.369C205.973 355.57 206.038 342.601 207.048 329.661C208.159 309.594 209.237 289.521 210.391 269.456C215.399 305.773 220.737 342.048 224.819 378.481C225.11 381.017 225.065 383.701 226.347 385.962C219.265 386.91 211.717 387.864 204.832 385.459C207.853 380.243 208.919 374.303 208.337 368.369ZM244.118 278.219C249.472 312.639 246.418 347.664 251.611 382.045C244.407 382.852 237.258 384.046 230.128 385.358C230.908 381.11 229.429 376.725 229.173 372.448C225.301 341.942 221.026 311.456 215.361 281.216C213.972 273.979 212.568 266.772 210.958 259.574C211.201 255.216 211.414 250.858 211.555 246.497C219.416 241.561 228.28 238.367 237.448 236.757C239.925 250.54 242.401 264.313 244.118 278.219ZM182.143 170.057C181.83 169.522 181.531 168.974 181.246 168.419C182.214 168.456 183.156 168.491 184.109 168.649C184.067 170.18 184.152 171.724 184.169 173.268C183.693 172.139 182.76 171.108 182.143 170.057ZM343.838 385.758C320.971 369.153 283.412 379.732 256.922 381.439C251.872 348.37 253.933 314.761 249.226 281.638C244.891 248.547 240.32 214.995 229.432 183.29C224.938 171.031 217.165 167.39 204.366 167.489C197.871 167.235 191.003 166.197 184.691 166.344C183.307 166.367 181.86 166.549 180.611 167.107C178.856 163.155 177.903 158.913 177.422 154.638C177.392 154.367 177.046 154.318 176.943 154.577C175.458 158.299 175.3 162.361 176.108 166.258C176.692 169.05 180.17 180.039 184.21 175.74C184.531 184.755 182.547 195.521 173.703 200.2C158.249 206.929 136.886 200.802 127.935 186.521C126.204 183.667 124.712 180.631 122.796 177.89C136.144 174.117 143.637 158.146 140.493 145.983C138.549 155.443 135.006 166.012 126.182 171.31C94.0492 171.238 67.3336 185.852 52.2379 214C49.284 218.088 46.5532 222.335 44.0507 226.656C42.7038 229.547 38.7596 233.568 42.1073 236.36C38.2406 246.665 34.8102 257.113 31.1842 267.5C30.1884 270.96 27.9116 274.591 28.3657 278.229C27.8742 280.471 27.8968 283.123 29.0227 285.278C30.0909 289.121 32.4879 294.291 36.4627 295.921C39.8354 298.997 44.1008 301.116 48.5493 302.712C36.6856 333.672 32.1697 367.061 28.15 399.772C24.2104 428.389 22.1769 463.199 46.8617 483.881C47.3406 489.798 50.856 497.339 57.8073 497.403C62.6216 502.123 68.4896 499.534 73.8483 497.225C82.8932 493.88 92.3794 492.026 101.805 490.992C102.816 491.782 104.461 491.651 105.361 490.731C111.071 489.416 118.985 494.739 120.138 489.917C127.501 489.204 134.783 487.867 142.138 487.087C139.038 491.103 139.261 497.025 141.596 501.364C135.65 513.043 149.5 519.806 157.968 524.599C169.4 531.209 181.339 537.481 194.413 540.222C205.908 542.636 217.949 541.904 229.04 538.046C234.868 536.583 243.008 531.781 239.55 525.016C243.933 512.14 213.15 498.799 204.095 492.351C207.796 491.89 207.932 484.219 198.305 488.627C197.141 487.85 195.998 487.048 194.867 486.232C233.805 481.762 308.168 469.467 336.348 442.887C351.829 429.22 360.762 401.575 343.838 385.758Z" fill="black"/>
<path fill-rule="evenodd" clip-rule="evenodd" d="M156.405 65.7731C194.332 63.9067 211.447 90.6289 212.554 102.564C213.323 110.85 208.431 120.399 208.431 127.803C208.431 131.582 213.055 139.695 210.902 145.202C206.111 157.462 195.967 171.067 183.04 171.067C170.113 171.067 153.289 174.645 139.006 154.179C137.665 152.259 120.714 141.345 119.067 130.974C114.965 105.142 129.342 67.1049 156.405 65.7731Z" fill="#D08B5B"/>
<path fill-rule="evenodd" clip-rule="evenodd" d="M154.617 49.143C155.974 47.5905 158.263 46.9695 160.297 47.0897C163.253 47.265 165.823 49.0904 168.763 49.2256C171.846 49.3684 174.821 48.2991 177.911 48.7949C179.805 49.1004 181.682 49.9793 182.896 51.4617C187.1 50.2573 191.664 51.8523 194.341 55.3354C197.644 54.8221 201.238 57.0108 202.249 60.1956C206.445 60.3309 210.406 63.7038 210.874 67.9305C212.551 68.3737 214.007 69.5308 214.9 71.0605C215.939 72.8333 216.111 74.8666 215.924 76.8648C217.898 77.8739 218.901 80.0423 219.164 82.336C220.968 83.6832 221.751 86.1045 221.384 88.3907C222.765 89.1694 223.478 90.9823 223.471 92.5999C223.463 94.1098 223.063 95.4472 223.626 96.9043C224.127 98.2021 224.308 99.2836 224.032 100.643L224.004 100.775C223.955 100.997 223.914 101.21 223.877 101.419C224.251 101.747 224.567 102.158 224.804 102.637C225.669 104.384 225.54 106.378 224.88 108.15C225.169 109.279 225.133 110.472 224.705 111.557C225.505 112.71 225.926 114.124 225.802 115.591C225.664 117.234 224.914 118.705 223.777 119.793C224.08 122.037 223.168 124.462 221.519 126.042C221.753 127.385 221.552 128.793 220.817 130.067C220.294 130.974 219.589 131.651 218.776 132.122C218.803 132.871 218.701 133.638 218.452 134.406C218.106 135.471 217.52 136.453 216.749 137.244C217.209 140.188 215.447 143.455 212.347 144.281C212.086 144.351 211.838 144.382 211.6 144.387C211.292 147.219 210.619 150.012 209.578 152.664C206.93 159.417 202.116 165.321 195.838 169.004C192.732 170.825 189.244 172.072 185.683 172.593C183.121 172.968 180.656 172.876 178.084 172.62C174.856 172.297 171.613 171.814 168.475 170.983L167.97 170.848C166.669 170.5 165.298 170.097 164.171 169.395C162.91 168.609 162.255 167.397 161.964 165.97C161.802 165.175 162.305 164.321 163.174 164.304L163.23 164.304C163.42 164.308 163.609 164.301 163.8 164.289L163.944 164.279H163.951C163.961 164.277 163.966 164.277 163.976 164.277C164.061 164.264 164.144 164.239 164.226 164.227C165.182 164.066 166.018 164.225 166.916 164.524L167.029 164.562C168.54 165.083 170.039 165.566 171.6 165.925C173.214 166.293 174.848 166.586 176.487 166.816L176.65 166.836L176.7 166.843L176.725 166.846C176.73 166.846 176.735 166.846 176.74 166.848L177.223 166.909C177.604 166.954 177.984 166.994 178.364 167.034C179.065 167.104 179.765 167.159 180.466 167.199C192.56 167.88 202.716 158.352 205.782 146.929C206.893 142.795 206.965 138.671 206.638 134.544C206.532 134.244 206.47 133.911 206.472 133.545C206.472 133.355 206.483 133.167 206.495 132.977C206.087 128.986 205.379 124.992 204.936 120.985C204.418 116.305 204.13 111.598 204.235 106.888C204.288 104.562 204.536 102.258 204.861 99.9544L204.979 99.1268C203.508 98.8396 202.142 98.142 201.053 97.1321C198.692 98.4968 195.635 98.6178 193.304 97.1767C190.692 98.8161 187.042 98.9648 184.411 97.362C182.821 98.4978 180.818 98.9879 178.851 98.5567C177.967 98.3629 177.087 97.9434 176.334 97.3628C175.796 97.4577 175.251 97.4945 174.71 97.4662L174.598 97.5288C173.349 98.1873 171.966 98.6208 170.542 98.5724C169.488 98.5369 168.403 98.3288 167.398 97.9352C166.324 98.5837 165.149 99.0264 163.892 99.1852C162.056 99.4168 160.074 99.0104 158.547 97.9682C155.757 99.5588 152.325 99.8037 149.313 98.735C148.696 99.7804 147.843 100.682 146.843 101.377C147.022 102.018 147.079 102.702 147.018 103.36C146.917 104.443 146.645 105.414 146.202 106.286C146.669 107.259 146.81 108.454 146.548 109.654C146.175 111.366 145.18 112.854 143.892 114.014C143.779 116.744 142.282 119.305 139.846 120.728C139.723 120.799 139.6 120.858 139.478 120.911C139.37 121.058 139.242 121.188 139.095 121.297C137.546 122.729 135.095 122.615 133.153 121.806C133.116 121.808 133.078 121.811 133.04 121.812C132.347 121.829 131.874 121.559 131.594 121.161C131.311 121.176 131.031 121.206 130.748 121.258C129.717 121.451 128.586 121.822 127.652 122.303C125.23 123.549 124.109 125.753 123.774 128.402C123.409 131.292 124.239 134.236 126.474 136.192C127.56 137.144 128.949 137.74 130.36 137.99C131.919 138.268 133.585 137.584 134.737 138.924C134.967 139.189 135.124 139.56 134.999 139.918C134.609 141.035 133.966 141.463 132.96 141.618C134.414 143.343 135.905 145.011 137.557 146.561C139.343 148.241 141.19 149.869 142.802 151.722C144.505 153.682 146.044 155.761 147.113 158.14C147.723 159.507 148.214 160.917 148.742 162.316L148.836 162.56C149.425 164.047 150.209 165.481 149.302 167.034C148.942 167.645 148.126 168.236 147.376 168.138C145.261 167.868 144.553 166.438 143.902 164.575C143.412 163.168 143.037 161.72 142.509 160.326C142.41 160.067 142.302 159.812 142.19 159.558C140.97 159.898 139.63 159.628 138.542 158.932C137.379 159.448 136.091 159.705 134.848 159.683C133.182 159.654 131.66 159.191 130.352 158.356C130.248 158.328 130.144 158.302 130.04 158.272C128.05 159.035 125.719 158.898 123.917 157.662C122.75 156.862 121.953 155.793 121.499 154.603C119.991 154.575 118.5 154.04 117.42 152.97C116.428 151.987 115.848 150.719 115.676 149.402C114.378 149.145 113.162 148.517 112.208 147.46C111.411 146.576 110.927 145.452 110.763 144.284C109.183 143.832 107.757 142.8 106.979 141.36C106.254 140.02 106.15 138.566 106.504 137.243L106.412 137.111C104.784 136.258 103.542 134.862 103.414 132.869C103.378 132.301 103.439 131.733 103.593 131.196C103.538 130.595 103.573 129.995 103.731 129.414C101.541 127.283 100.748 123.86 101.936 121.03C99.7969 118.727 99.2314 115.083 100.8 112.349C99.7243 111.047 99.1713 109.387 99.2639 107.614C99.379 105.401 100.392 103.467 101.606 101.677C100.705 100.68 100.225 99.2906 100.26 97.9484C100.31 96.0028 101.343 94.3277 102.637 92.9404C101.508 89.515 102.77 85.799 105.54 83.6306C104.979 82.7066 104.771 81.5623 104.954 80.4029C105.274 78.3772 106.793 76.9975 108.432 75.9057C108.09 74.7892 108.18 73.5845 108.725 72.4302C109.453 70.8902 110.827 69.9137 112.261 69.0873C112.631 65.6719 116.445 62.7547 119.643 64.5175C118.849 61.976 121.134 59.2316 123.762 58.9411C125.048 55.0399 129.484 52.581 133.473 53.55C135.512 50.7606 139.308 49.6866 142.531 50.8833C146.075 48.1664 150.471 47.7633 154.617 49.143ZM129.376 125.743C131.866 125.608 133.732 127.641 135.044 129.501C136.275 131.247 133.117 133.09 132.196 131.167C131.866 130.481 131.49 129.754 130.987 129.153C130.903 129.272 130.828 129.394 130.754 129.52L130.68 129.647C130.625 129.739 130.567 129.835 130.52 129.932C130.525 129.95 130.449 130.18 130.447 130.19C130.242 130.814 129.794 131.214 129.184 131.43C128.395 131.705 127.649 131.112 127.397 130.415C126.994 129.304 127.93 128.335 128.903 127.894C127.947 127.739 127.006 128.064 126.316 128.8C126.221 128.903 126.06 128.82 126.056 128.693C125.975 126.947 127.8 125.828 129.376 125.743Z" fill="black"/>
<path fill-rule="evenodd" clip-rule="evenodd" d="M190.273 151.782C188.426 152.316 186.443 152.364 184.56 151.812C182.852 151.312 181.098 150.21 179.841 148.753C178.725 147.458 178.002 145.885 178.03 144.205C178.033 144.014 178.102 143.854 178.208 143.729C178.321 143.596 178.48 143.504 178.65 143.464C178.825 143.423 179.01 143.437 179.168 143.509C179.311 143.573 179.433 143.683 179.509 143.844C179.702 144.097 179.895 144.347 180.088 144.59C181.641 146.505 183.145 147.936 185.481 148.449C186.748 148.728 188.014 148.604 189.175 148.179C190.418 147.724 191.542 146.924 192.422 145.901C192.82 145.438 193.29 145.249 193.749 145.246C194.27 145.243 194.784 145.484 195.172 145.87C195.553 146.25 195.808 146.765 195.831 147.305C195.852 147.778 195.697 148.273 195.286 148.714C193.93 150.168 192.174 151.232 190.273 151.782ZM190.216 127.796C192.11 128.945 194.995 131.625 192.958 134.475C190.56 136.987 187.108 134.106 185.407 132.804C183.829 131.794 182.057 134.391 183.52 135.57C195.814 144.658 200.802 128.096 191.174 126.444C190.114 126.262 189.72 127.44 190.216 127.796ZM172.503 122.738C171.894 122.35 171.178 122.216 170.385 122.577C169.765 122.858 168.677 123.797 167.921 125.031C167.403 125.875 167.036 126.865 167.112 127.897C167.13 128.136 167.041 128.313 166.901 128.444C166.791 128.547 166.631 128.623 166.444 128.646C166.285 128.666 166.107 128.648 165.962 128.603C165.687 128.517 165.541 128.339 165.486 128.193C164.956 126.788 165.185 125.22 165.778 123.805C166.58 121.896 168.035 120.296 168.989 119.781C170.621 118.898 172.546 118.858 174.18 119.757C175.571 120.522 176.441 121.758 177.306 123.017C177.49 123.285 177.673 123.551 177.861 123.812C178.239 124.335 178.277 124.854 178.131 125.299C177.968 125.792 177.555 126.208 177.038 126.426C176.56 126.627 176.005 126.655 175.514 126.448C175.099 126.274 174.719 125.933 174.478 125.356C174.072 124.383 173.397 123.309 172.503 122.738ZM203.412 124.903C202.995 125.12 202.669 125.185 202.207 125.047C201.951 124.97 201.699 124.823 201.501 124.626C201.305 124.43 201.163 124.186 201.108 123.916C200.973 123.25 200.608 122.626 200.087 122.219C199.642 121.871 199.081 121.687 198.458 121.791C197.786 121.903 197.145 122.333 196.704 122.841C196.557 123.011 196.441 123.203 196.325 123.395C196.108 123.753 195.897 124.086 195.597 124.349C195.483 124.449 195.312 124.519 195.146 124.519C195.079 124.519 195.011 124.508 194.945 124.488C194.276 123.817 194.148 123.308 194.169 122.804C194.192 122.275 194.401 121.739 194.738 121.239C195.53 120.067 197.033 119.106 198.048 118.888C199.437 118.59 200.817 118.948 201.923 119.723C203.062 120.52 203.905 121.758 204.168 123.153C204.231 123.489 204.204 123.852 204.076 124.166C203.951 124.473 203.733 124.736 203.412 124.903ZM175.567 110.239C174.733 111.05 173.746 111.176 172.748 111.288C172.193 111.35 171.75 111.401 171.314 111.499C170.117 111.769 168.933 112.176 167.853 112.761C166.724 113.373 165.493 114.112 164.608 115.057C164.398 115.283 164.199 115.519 164 115.755C163.819 115.971 163.645 116.179 163.461 116.379C163.249 116.609 163.049 116.851 162.849 117.091C162.726 117.294 162.702 117.344 162.677 117.396C162.639 117.474 162.596 117.561 162.546 117.655C162.478 117.784 162.398 117.924 162.315 118.052C162.176 118.284 162.102 118.349 162.037 118.377C161.93 118.425 161.829 118.448 161.731 118.436C161.639 118.424 161.552 118.379 161.466 118.307C161.038 117.946 160.912 117.353 160.925 116.724C160.944 115.769 161.297 114.712 161.622 114.063C162.378 112.553 163.426 110.983 164.687 109.856C166.125 108.57 167.699 107.596 169.506 106.925C170.629 106.508 171.93 106.125 173.154 106.174C174.035 106.208 174.875 106.47 175.57 107.123C175.996 107.524 176.201 108.094 176.201 108.663C176.201 109.244 175.988 109.829 175.567 110.239ZM205.108 117.667C205.055 117.754 204.982 117.814 204.9 117.85C204.815 117.887 204.719 117.898 204.627 117.883C204.536 117.867 204.449 117.826 204.38 117.763C204.314 117.702 204.264 117.622 204.242 117.524C203.688 115.096 202.613 113.29 200.319 112.125C199.191 111.552 197.893 111.188 196.664 110.898C196.307 110.813 195.93 110.759 195.55 110.703C194.36 110.53 193.161 110.331 192.384 109.37C191.917 108.791 191.72 108.051 191.831 107.374C191.936 106.736 192.309 106.152 192.987 105.801C194.675 104.93 196.773 105.785 198.478 106.514C198.605 106.568 198.729 106.621 198.85 106.672C200.517 107.375 202.038 108.302 203.288 109.629C204.28 110.681 205.199 112.237 205.569 113.837C205.877 115.169 205.804 116.528 205.108 117.667Z" fill="black"/>
</svg>
