<?xml version="1.0" encoding="UTF-8" standalone="no"?><!-- Generator: Gravit.io --><svg xmlns="http://www.w3.org/2000/svg" xmlns:xlink="http://www.w3.org/1999/xlink" style="isolation:isolate" viewBox="452 350 179 179" width="179pt" height="179pt"><defs><clipPath id="_clipPath_risHbhauRybQTV0coFUjDUEhMVUsTKxi"><rect x="452" y="350" width="179" height="179"/></clipPath></defs><g clip-path="url(#_clipPath_risHbhauRybQTV0coFUjDUEhMVUsTKxi)"><defs><filter id="rDV0OhqR3YjUoA0gBSBfGc0LLHKd41KP" x="-200%" y="-200%" width="400%" height="400%" filterUnits="objectBoundingBox" color-interpolation-filters="sRGB"><feGaussianBlur xmlns="http://www.w3.org/2000/svg" in="SourceGraphic" stdDeviation="4.293609062839028"/><feOffset xmlns="http://www.w3.org/2000/svg" dx="-3" dy="3" result="pf_100_offsetBlur"/><feFlood xmlns="http://www.w3.org/2000/svg" flood-color="#000000" flood-opacity="0.58"/><feComposite xmlns="http://www.w3.org/2000/svg" in2="pf_100_offsetBlur" operator="in" result="pf_100_dropShadow"/><feBlend xmlns="http://www.w3.org/2000/svg" in="SourceGraphic" in2="pf_100_dropShadow" mode="normal"/></filter></defs><g filter="url(#rDV0OhqR3YjUoA0gBSBfGc0LLHKd41KP)"><circle vector-effect="non-scaling-stroke" cx="544.4999999999999" cy="436.49999999999983" r="76.5" fill="rgb(255,255,255)"/></g><path d=" M 508.75 451.7 L 508.75 451.7 L 508.75 451.7 Q 504.658 451.7 501.622 449.885 L 501.622 449.885 L 501.622 449.885 Q 498.586 448.07 496.87 444.968 L 496.87 444.968 L 496.87 465.098 L 488.026 465.098 L 488.026 416.456 L 495.748 416.456 L 495.748 422.396 L 495.748 422.396 Q 497.662 419.36 500.698 417.611 L 500.698 417.611 L 500.698 417.611 Q 503.734 415.862 507.694 415.862 L 507.694 415.862 L 507.694 415.862 Q 511.192 415.862 514.162 417.281 L 514.162 417.281 L 514.162 417.281 Q 517.132 418.7 519.277 421.109 L 519.277 421.109 L 519.277 421.109 Q 521.422 423.518 522.643 426.785 L 522.643 426.785 L 522.643 426.785 Q 523.864 430.052 523.864 433.682 L 523.864 433.682 L 523.864 433.682 Q 523.864 437.444 522.742 440.744 L 522.742 440.744 L 522.742 440.744 Q 521.62 444.044 519.607 446.486 L 519.607 446.486 L 519.607 446.486 Q 517.594 448.928 514.822 450.314 L 514.822 450.314 L 514.822 450.314 Q 512.05 451.7 508.75 451.7 Z  M 505.78 444.176 L 505.78 444.176 L 505.78 444.176 Q 507.76 444.176 509.443 443.318 L 509.443 443.318 L 509.443 443.318 Q 511.126 442.46 512.314 441.008 L 512.314 441.008 L 512.314 441.008 Q 513.502 439.556 514.162 437.642 L 514.162 437.642 L 514.162 437.642 Q 514.822 435.728 514.822 433.682 L 514.822 433.682 L 514.822 433.682 Q 514.822 431.504 514.096 429.623 L 514.096 429.623 L 514.096 429.623 Q 513.37 427.742 512.083 426.356 L 512.083 426.356 L 512.083 426.356 Q 510.796 424.97 509.047 424.178 L 509.047 424.178 L 509.047 424.178 Q 507.298 423.386 505.252 423.386 L 505.252 423.386 L 505.252 423.386 Q 503.998 423.386 502.678 423.815 L 502.678 423.815 L 502.678 423.815 Q 501.358 424.244 500.236 425.036 L 500.236 425.036 L 500.236 425.036 Q 499.114 425.828 498.223 426.884 L 498.223 426.884 L 498.223 426.884 Q 497.332 427.94 496.87 429.194 L 496.87 429.194 L 496.87 437.312 L 496.87 437.312 Q 498.058 440.282 500.5 442.229 L 500.5 442.229 L 500.5 442.229 Q 502.942 444.176 505.78 444.176 Z  M 543.4 451.238 L 543.4 451.238 L 543.4 451.238 Q 539.902 451.238 537.064 449.852 L 537.064 449.852 L 537.064 449.852 Q 534.226 448.466 532.147 446.057 L 532.147 446.057 L 532.147 446.057 Q 530.068 443.648 528.946 440.48 L 528.946 440.48 L 528.946 440.48 Q 527.824 437.312 527.824 433.748 L 527.824 433.748 L 527.824 433.748 Q 527.824 429.986 529.012 426.752 L 529.012 426.752 L 529.012 426.752 Q 530.2 423.518 532.312 421.076 L 532.312 421.076 L 532.312 421.076 Q 534.424 418.634 537.394 417.248 L 537.394 417.248 L 537.394 417.248 Q 540.364 415.862 543.928 415.862 L 543.928 415.862 L 543.928 415.862 Q 547.954 415.862 550.99 417.677 L 550.99 417.677 L 550.99 417.677 Q 554.026 419.492 556.006 422.528 L 556.006 422.528 L 556.006 416.456 L 563.728 416.456 L 563.728 449.39 L 563.728 449.39 Q 563.728 453.218 562.276 456.254 L 562.276 456.254 L 562.276 456.254 Q 560.824 459.29 558.283 461.402 L 558.283 461.402 L 558.283 461.402 Q 555.742 463.514 552.211 464.636 L 552.211 464.636 L 552.211 464.636 Q 548.68 465.758 544.522 465.758 L 544.522 465.758 L 544.522 465.758 Q 538.846 465.758 534.985 463.877 L 534.985 463.877 L 534.985 463.877 Q 531.124 461.996 528.352 458.564 L 528.352 458.564 L 533.17 453.878 L 533.17 453.878 Q 535.15 456.32 538.153 457.706 L 538.153 457.706 L 538.153 457.706 Q 541.156 459.092 544.522 459.092 L 544.522 459.092 L 544.522 459.092 Q 546.568 459.092 548.449 458.531 L 548.449 458.531 L 548.449 458.531 Q 550.33 457.97 551.782 456.782 L 551.782 456.782 L 551.782 456.782 Q 553.234 455.594 554.059 453.746 L 554.059 453.746 L 554.059 453.746 Q 554.884 451.898 554.884 449.39 L 554.884 449.39 L 554.884 445.034 L 554.884 445.034 Q 553.168 448.004 550.066 449.621 L 550.066 449.621 L 550.066 449.621 Q 546.964 451.238 543.4 451.238 Z  M 546.37 444.176 L 546.37 444.176 L 546.37 444.176 Q 547.822 444.176 549.142 443.714 L 549.142 443.714 L 549.142 443.714 Q 550.462 443.252 551.584 442.46 L 551.584 442.46 L 551.584 442.46 Q 552.706 441.668 553.564 440.612 L 553.564 440.612 L 553.564 440.612 Q 554.422 439.556 554.884 438.368 L 554.884 438.368 L 554.884 430.118 L 554.884 430.118 Q 553.696 427.082 551.155 425.234 L 551.155 425.234 L 551.155 425.234 Q 548.614 423.386 545.842 423.386 L 545.842 423.386 L 545.842 423.386 Q 543.796 423.386 542.146 424.277 L 542.146 424.277 L 542.146 424.277 Q 540.496 425.168 539.308 426.653 L 539.308 426.653 L 539.308 426.653 Q 538.12 428.138 537.493 430.052 L 537.493 430.052 L 537.493 430.052 Q 536.866 431.966 536.866 434.012 L 536.866 434.012 L 536.866 434.012 Q 536.866 436.124 537.592 437.972 L 537.592 437.972 L 537.592 437.972 Q 538.318 439.82 539.605 441.206 L 539.605 441.206 L 539.605 441.206 Q 540.892 442.592 542.608 443.384 L 542.608 443.384 L 542.608 443.384 Q 544.324 444.176 546.37 444.176 Z  M 587.752 451.7 L 587.752 451.7 L 587.752 451.7 Q 583.594 451.7 580.228 450.281 L 580.228 450.281 L 580.228 450.281 Q 576.862 448.862 574.486 446.42 L 574.486 446.42 L 574.486 446.42 Q 572.11 443.978 570.823 440.744 L 570.823 440.744 L 570.823 440.744 Q 569.536 437.51 569.536 433.946 L 569.536 433.946 L 569.536 433.946 Q 569.536 430.25 570.79 426.983 L 570.79 426.983 L 570.79 426.983 Q 572.044 423.716 574.42 421.241 L 574.42 421.241 L 574.42 421.241 Q 576.796 418.766 580.195 417.314 L 580.195 417.314 L 580.195 417.314 Q 583.594 415.862 587.818 415.862 L 587.818 415.862 L 587.818 415.862 Q 592.042 415.862 595.375 417.314 L 595.375 417.314 L 595.375 417.314 Q 598.708 418.766 601.051 421.208 L 601.051 421.208 L 601.051 421.208 Q 603.394 423.65 604.615 426.884 L 604.615 426.884 L 604.615 426.884 Q 605.836 430.118 605.836 433.616 L 605.836 433.616 L 605.836 433.616 Q 605.836 434.474 605.803 435.266 L 605.803 435.266 L 605.803 435.266 Q 605.77 436.058 605.638 436.586 L 605.638 436.586 L 578.908 436.586 L 578.908 436.586 Q 579.106 438.632 579.898 440.216 L 579.898 440.216 L 579.898 440.216 Q 580.69 441.8 581.944 442.922 L 581.944 442.922 L 581.944 442.922 Q 583.198 444.044 584.782 444.638 L 584.782 444.638 L 584.782 444.638 Q 586.366 445.232 588.082 445.232 L 588.082 445.232 L 588.082 445.232 Q 590.722 445.232 593.065 443.945 L 593.065 443.945 L 593.065 443.945 Q 595.408 442.658 596.266 440.546 L 596.266 440.546 L 603.856 442.658 L 603.856 442.658 Q 601.942 446.618 597.751 449.159 L 597.751 449.159 L 597.751 449.159 Q 593.56 451.7 587.752 451.7 Z  M 578.776 430.844 L 596.728 430.844 L 596.728 430.844 Q 596.398 426.95 593.857 424.607 L 593.857 424.607 L 593.857 424.607 Q 591.316 422.264 587.686 422.264 L 587.686 422.264 L 587.686 422.264 Q 585.904 422.264 584.353 422.891 L 584.353 422.891 L 584.353 422.891 Q 582.802 423.518 581.614 424.64 L 581.614 424.64 L 581.614 424.64 Q 580.426 425.762 579.667 427.346 L 579.667 427.346 L 579.667 427.346 Q 578.908 428.93 578.776 430.844 L 578.776 430.844 L 578.776 430.844 Z " fill="rgb(0,0,0)"/></g></svg>